M48
; DRILL file {KiCad (6.0.10)} date Mon Jan  2 18:23:17 2023
; FORMAT={-:-/ absolute / inch / decimal}
; #@! TF.CreationDate,2023-01-02T18:23:17+01:00
; #@! TF.GenerationSoftware,Kicad,Pcbnew,(6.0.10)
; #@! TF.FileFunction,Plated,1,2,PTH
FMAT,2
INCH
; #@! TA.AperFunction,Plated,PTH,ViaDrill
T1C0.0118
; #@! TA.AperFunction,Plated,PTH,ComponentDrill
T2C0.0276
; #@! TA.AperFunction,Plated,PTH,ComponentDrill
T3C0.0394
%
G90
G05
T1
X3.6535Y-3.4646
X3.6831Y-3.435
X3.6831Y-4.7343
X3.7126Y-3.4646
X3.7126Y-4.1634
X3.7323Y-4.4193
X3.7618Y-4.685
X3.7815Y-4.2028
X3.7913Y-4.4587
X3.939Y-4.7146
X4.0177Y-4.5669
X4.0177Y-4.8228
X4.0374Y-4.5276
X4.0571Y-4.4882
X4.126Y-3.5236
X4.2146Y-4.5571
X4.313Y-4.6358
X4.3327Y-3.248
X4.3327Y-3.4547
X4.3622Y-4.6654
X4.372Y-3.75
X4.4213Y-4.2815
X4.4213Y-4.6654
X4.4705Y-3.9567
X4.4803Y-3.8583
X4.6035Y-4.5061
X4.6035Y-4.5411
X4.6035Y-4.5761
T2
X4.3976Y-4.3488
X4.3976Y-4.3988
X4.3976Y-4.4488
X4.3976Y-4.4988
X4.3976Y-4.5488
X4.4476Y-4.3488
X4.4476Y-4.3988
X4.4476Y-4.4488
X4.4476Y-4.4988
X4.4476Y-4.5488
T3
X3.5185Y-3.1024
X3.5185Y-3.2024
X3.5185Y-3.3024
X3.5185Y-3.4024
X3.5185Y-3.5024
X3.5185Y-3.6024
X3.5185Y-3.7024
X3.5185Y-3.8024
X3.5185Y-3.9024
X3.5185Y-4.0024
X3.5185Y-4.1024
X3.5185Y-4.2024
X4.4185Y-3.1024
X4.4185Y-3.2024
X4.4185Y-3.3024
X4.4185Y-3.4024
X4.4185Y-3.5024
X4.4185Y-3.6024
X4.4185Y-3.7024
X4.4185Y-3.8024
X4.4185Y-3.9024
X4.4185Y-4.0024
X4.4185Y-4.1024
X4.4185Y-4.2024
T0
M30
