%TF.GenerationSoftware,KiCad,Pcbnew,(6.0.10)*%
%TF.CreationDate,2023-01-02T18:22:58+01:00*%
%TF.ProjectId,sniffer,736e6966-6665-4722-9e6b-696361645f70,rev?*%
%TF.SameCoordinates,Original*%
%TF.FileFunction,Soldermask,Top*%
%TF.FilePolarity,Negative*%
%FSLAX46Y46*%
G04 Gerber Fmt 4.6, Leading zero omitted, Abs format (unit mm)*
G04 Created by KiCad (PCBNEW (6.0.10)) date 2023-01-02 18:22:58*
%MOMM*%
%LPD*%
G01*
G04 APERTURE LIST*
G04 Aperture macros list*
%AMRoundRect*
0 Rectangle with rounded corners*
0 $1 Rounding radius*
0 $2 $3 $4 $5 $6 $7 $8 $9 X,Y pos of 4 corners*
0 Add a 4 corners polygon primitive as box body*
4,1,4,$2,$3,$4,$5,$6,$7,$8,$9,$2,$3,0*
0 Add four circle primitives for the rounded corners*
1,1,$1+$1,$2,$3*
1,1,$1+$1,$4,$5*
1,1,$1+$1,$6,$7*
1,1,$1+$1,$8,$9*
0 Add four rect primitives between the rounded corners*
20,1,$1+$1,$2,$3,$4,$5,0*
20,1,$1+$1,$4,$5,$6,$7,0*
20,1,$1+$1,$6,$7,$8,$9,0*
20,1,$1+$1,$8,$9,$2,$3,0*%
%AMFreePoly0*
4,1,37,0.012350,0.794884,0.074210,0.794507,0.088231,0.792412,0.224052,0.751793,0.236921,0.745846,0.355883,0.668739,0.366566,0.659420,0.459104,0.552023,0.466742,0.540080,0.525419,0.411028,0.529398,0.397421,0.549495,0.257088,0.550000,0.250000,0.550000,-0.250000,0.549996,-0.250610,0.549847,-0.262826,0.549158,-0.270511,0.525638,-0.410312,0.521328,-0.423818,0.459516,-0.551397,
0.451589,-0.563150,0.356454,-0.668254,0.345546,-0.677309,0.224736,-0.751486,0.211726,-0.757116,0.074953,-0.794405,0.060885,-0.796158,0.011462,-0.795252,0.000000,-0.800000,-0.500000,-0.800000,-0.535355,-0.785355,-0.550000,-0.750000,-0.550000,0.750000,-0.535355,0.785355,-0.500000,0.800000,0.000000,0.800000,0.012350,0.794884,0.012350,0.794884,$1*%
%AMFreePoly1*
4,1,37,0.535355,0.785355,0.550000,0.750000,0.550000,-0.750000,0.535355,-0.785355,0.500000,-0.800000,0.000000,-0.800000,-0.012524,-0.794812,-0.080857,-0.793560,-0.094851,-0.791293,-0.230166,-0.749018,-0.242962,-0.742915,-0.360972,-0.664360,-0.371540,-0.654911,-0.462760,-0.546392,-0.470252,-0.534356,-0.527347,-0.404597,-0.531159,-0.390943,-0.548742,-0.256483,-0.547388,-0.256306,-0.550000,-0.250000,
-0.550000,0.250000,-0.549522,0.251153,-0.549368,0.263802,-0.527557,0.403879,-0.523412,0.417435,-0.463164,0.545760,-0.455381,0.557609,-0.361537,0.663867,-0.350741,0.673055,-0.230846,0.748703,-0.217905,0.754492,-0.081598,0.793449,-0.067552,0.795373,-0.011991,0.795033,0.000000,0.800000,0.500000,0.800000,0.535355,0.785355,0.535355,0.785355,$1*%
G04 Aperture macros list end*
%ADD10C,1.800000*%
%ADD11RoundRect,0.205000X0.212500X0.155000X-0.212500X0.155000X-0.212500X-0.155000X0.212500X-0.155000X0*%
%ADD12RoundRect,0.287500X0.237500X-0.250000X0.237500X0.250000X-0.237500X0.250000X-0.237500X-0.250000X0*%
%ADD13RoundRect,0.287500X-0.237500X0.250000X-0.237500X-0.250000X0.237500X-0.250000X0.237500X0.250000X0*%
%ADD14RoundRect,0.287500X0.250000X0.237500X-0.250000X0.237500X-0.250000X-0.237500X0.250000X-0.237500X0*%
%ADD15RoundRect,0.050000X0.250000X0.175000X-0.250000X0.175000X-0.250000X-0.175000X0.250000X-0.175000X0*%
%ADD16RoundRect,0.287500X0.237500X-0.300000X0.237500X0.300000X-0.237500X0.300000X-0.237500X-0.300000X0*%
%ADD17RoundRect,0.287500X-0.300000X-0.237500X0.300000X-0.237500X0.300000X0.237500X-0.300000X0.237500X0*%
%ADD18O,1.100000X1.100000*%
%ADD19RoundRect,0.050000X-0.500000X-0.500000X0.500000X-0.500000X0.500000X0.500000X-0.500000X0.500000X0*%
%ADD20C,2.300000*%
%ADD21FreePoly0,90.000000*%
%ADD22FreePoly1,90.000000*%
%ADD23RoundRect,0.050000X-0.400000X0.450000X-0.400000X-0.450000X0.400000X-0.450000X0.400000X0.450000X0*%
%ADD24RoundRect,0.050000X0.450000X0.400000X-0.450000X0.400000X-0.450000X-0.400000X0.450000X-0.400000X0*%
G04 APERTURE END LIST*
D10*
%TO.C,U1*%
X112230000Y-78800000D03*
X112230000Y-81340000D03*
X112230000Y-83880000D03*
X112230000Y-86420000D03*
X112230000Y-88960000D03*
X112230000Y-91500000D03*
X112230000Y-94040000D03*
X112230000Y-96580000D03*
X112230000Y-99120000D03*
X112230000Y-101660000D03*
X112230000Y-104200000D03*
X112230000Y-106740000D03*
X89370000Y-78800000D03*
X89370000Y-81340000D03*
X89370000Y-83880000D03*
X89370000Y-86420000D03*
X89370000Y-88960000D03*
X89370000Y-91500000D03*
X89370000Y-94040000D03*
X89370000Y-96580000D03*
X89370000Y-99120000D03*
X89370000Y-101660000D03*
X89370000Y-104200000D03*
X89370000Y-106740000D03*
%TD*%
D11*
%TO.C,C1*%
X101240500Y-120677000D03*
X100105500Y-120677000D03*
%TD*%
%TO.C,C2*%
X100105500Y-121693000D03*
X101240500Y-121693000D03*
%TD*%
D12*
%TO.C,R2*%
X101050000Y-114087500D03*
X101050000Y-115912500D03*
%TD*%
%TO.C,R3*%
X96300000Y-114087500D03*
X96300000Y-115912500D03*
%TD*%
%TO.C,R4*%
X94550000Y-114087500D03*
X94550000Y-115912500D03*
%TD*%
D13*
%TO.C,R5*%
X117437000Y-117605500D03*
X117437000Y-119430500D03*
%TD*%
D14*
%TO.C,R1*%
X104891000Y-110361000D03*
X103066000Y-110361000D03*
%TD*%
D15*
%TO.C,U2*%
X99648000Y-125225000D03*
X99648000Y-124575000D03*
X99648000Y-123925000D03*
X99648000Y-123275000D03*
X101698000Y-123275000D03*
X101698000Y-123925000D03*
X101698000Y-124575000D03*
X101698000Y-125225000D03*
%TD*%
D16*
%TO.C,C5*%
X115128000Y-115922500D03*
X115128000Y-114197500D03*
%TD*%
%TO.C,C3*%
X109540000Y-114197500D03*
X109540000Y-115922500D03*
%TD*%
D17*
%TO.C,C4*%
X105703500Y-115695000D03*
X103978500Y-115695000D03*
%TD*%
D18*
%TO.C,J1*%
X111700000Y-114270000D03*
X111700000Y-115540000D03*
X111700000Y-111730000D03*
X112970000Y-110460000D03*
X111700000Y-110460000D03*
X112970000Y-114270000D03*
X111700000Y-113000000D03*
X112970000Y-111730000D03*
D19*
X112970000Y-115540000D03*
D18*
X112970000Y-113000000D03*
D20*
X85800000Y-118000000D03*
X115800000Y-85000000D03*
%TD*%
%TO.C,H4*%
X116050000Y-123250000D03*
%TD*%
%TO.C,H2*%
X116050000Y-79750000D03*
%TD*%
%TO.C,H3*%
X85550000Y-123250000D03*
%TD*%
%TO.C,H1*%
X85550000Y-79750000D03*
%TD*%
D21*
%TO.C,JP1*%
X99050000Y-114350000D03*
D22*
X99050000Y-115650000D03*
%TD*%
D23*
%TO.C,Q1*%
X103978500Y-114028000D03*
X103028500Y-112028000D03*
X104928500Y-112028000D03*
%TD*%
D24*
%TO.C,Q2*%
X115897000Y-119468000D03*
X115897000Y-117568000D03*
X113897000Y-118518000D03*
%TD*%
M02*
