%TF.GenerationSoftware,KiCad,Pcbnew,(6.0.10)*%
%TF.CreationDate,2023-01-02T18:22:58+01:00*%
%TF.ProjectId,sniffer,736e6966-6665-4722-9e6b-696361645f70,rev?*%
%TF.SameCoordinates,Original*%
%TF.FileFunction,Copper,L2,Bot*%
%TF.FilePolarity,Positive*%
%FSLAX46Y46*%
G04 Gerber Fmt 4.6, Leading zero omitted, Abs format (unit mm)*
G04 Created by KiCad (PCBNEW (6.0.10)) date 2023-01-02 18:22:58*
%MOMM*%
%LPD*%
G01*
G04 APERTURE LIST*
%TA.AperFunction,ComponentPad*%
%ADD10C,1.700000*%
%TD*%
%TA.AperFunction,ComponentPad*%
%ADD11O,1.000000X1.000000*%
%TD*%
%TA.AperFunction,ComponentPad*%
%ADD12R,1.000000X1.000000*%
%TD*%
%TA.AperFunction,ViaPad*%
%ADD13C,0.600000*%
%TD*%
%TA.AperFunction,Conductor*%
%ADD14C,0.125000*%
%TD*%
%TA.AperFunction,Conductor*%
%ADD15C,0.250000*%
%TD*%
G04 APERTURE END LIST*
D10*
%TO.P,U1,3V3_1,3V3*%
%TO.N,+3V3*%
X112230000Y-78800000D03*
%TO.P,U1,36,SVP/GPIO36/ADC0*%
%TO.N,unconnected-(U1-Pad36)*%
X112230000Y-81340000D03*
%TO.P,U1,37,GPIO37*%
%TO.N,unconnected-(U1-Pad37)*%
X112230000Y-83880000D03*
%TO.P,U1,38,GPIO38*%
%TO.N,unconnected-(U1-Pad38)*%
X112230000Y-86420000D03*
%TO.P,U1,39,SVN/GPIO39/ADC3*%
%TO.N,/BME_PWR_EN*%
X112230000Y-88960000D03*
%TO.P,U1,32,GPIO32/ADC4/TOUCH9*%
%TO.N,/PMS_PWR_EN*%
X112230000Y-91500000D03*
%TO.P,U1,33,GPIO33/ADC5/TOUCH8*%
%TO.N,/PMS_SET*%
X112230000Y-94040000D03*
%TO.P,U1,25,GPIO25/ADC18/DAC1*%
%TO.N,/PMS_RESET*%
X112230000Y-96580000D03*
%TO.P,U1,26,GPIO26/ADC19/DAC2*%
%TO.N,/PMS_RX*%
X112230000Y-99120000D03*
%TO.P,U1,27,GPIO27/ADC17/TOUCH7*%
%TO.N,/PMS_TX*%
X112230000Y-101660000D03*
%TO.P,U1,GND_4,GND*%
%TO.N,GND*%
X112230000Y-104200000D03*
%TO.P,U1,5V,5V*%
%TO.N,+5V*%
X112230000Y-106740000D03*
%TO.P,U1,GND_0,GND*%
%TO.N,GND*%
X89370000Y-78800000D03*
%TO.P,U1,GND_1,GND*%
X89370000Y-81340000D03*
%TO.P,U1,21,SDA*%
%TO.N,/SDA*%
X89370000Y-83880000D03*
%TO.P,U1,22,SCL*%
%TO.N,/SCL*%
X89370000Y-86420000D03*
%TO.P,U1,17,DIO*%
%TO.N,unconnected-(U1-Pad17)*%
X89370000Y-88960000D03*
%TO.P,U1,2,GPIO2/ADC12/TOUCH2*%
%TO.N,unconnected-(U1-Pad2)*%
X89370000Y-91500000D03*
%TO.P,U1,15,GPIO15/ADC13/TOUCH3*%
%TO.N,unconnected-(U1-Pad15)*%
X89370000Y-94040000D03*
%TO.P,U1,13,GPIO13/ADC14/TOUCH4*%
%TO.N,unconnected-(U1-Pad13)*%
X89370000Y-96580000D03*
%TO.P,U1,12,GPIO12/ADC15/TOUCH5*%
%TO.N,unconnected-(U1-Pad12)*%
X89370000Y-99120000D03*
%TO.P,U1,GND_2,GND*%
%TO.N,GND*%
X89370000Y-101660000D03*
%TO.P,U1,GND_3,GND*%
X89370000Y-104200000D03*
%TO.P,U1,3V3_0,3V3*%
%TO.N,+3V3*%
X89370000Y-106740000D03*
%TD*%
D11*
%TO.P,J1,4,Pin_4*%
%TO.N,GND*%
X111700000Y-114270000D03*
%TO.P,J1,2,Pin_2*%
%TO.N,Net-(J2-Pad1)*%
X111700000Y-115540000D03*
%TO.P,J1,8,Pin_8*%
%TO.N,unconnected-(J2-Pad8)*%
X111700000Y-111730000D03*
%TO.P,J1,9,Pin_9*%
%TO.N,/PMS_TX*%
X112970000Y-110460000D03*
%TO.P,J1,10,Pin_10*%
%TO.N,/PMS_SET*%
X111700000Y-110460000D03*
%TO.P,J1,3,Pin_3*%
%TO.N,GND*%
X112970000Y-114270000D03*
%TO.P,J1,6,Pin_6*%
%TO.N,unconnected-(J2-Pad6)*%
X111700000Y-113000000D03*
%TO.P,J1,7,Pin_7*%
%TO.N,/PMS_RX*%
X112970000Y-111730000D03*
D12*
%TO.P,J1,1,Pin_1*%
%TO.N,Net-(J2-Pad1)*%
X112970000Y-115540000D03*
D11*
%TO.P,J1,5,Pin_5*%
%TO.N,/PMS_RESET*%
X112970000Y-113000000D03*
%TD*%
D13*
%TO.N,Net-(JP1-Pad1)*%
X102050000Y-122500000D03*
%TO.N,GND*%
X110050000Y-87750000D03*
X110050000Y-82500000D03*
X104800000Y-89500000D03*
X111050000Y-95250000D03*
X113550000Y-100500000D03*
X113800000Y-98000000D03*
X112300000Y-108750000D03*
X110800000Y-118500000D03*
X95550000Y-119000000D03*
X93550000Y-120250000D03*
X100050000Y-119750000D03*
X94300000Y-88000000D03*
X92800000Y-88000000D03*
X94300000Y-105750000D03*
X94800000Y-112250000D03*
X107050000Y-115750000D03*
X102550000Y-115000000D03*
X109550000Y-117750000D03*
X112300000Y-118500000D03*
%TO.N,+3V3*%
X96050000Y-106750000D03*
%TO.N,/SDA*%
X93550000Y-87250000D03*
%TO.N,/BME_VDDIO*%
X103050000Y-114000000D03*
X96300000Y-113250000D03*
%TO.N,Net-(JP1-Pad1)*%
X102050000Y-116000000D03*
%TO.N,+5V*%
X116929000Y-114454000D03*
X116929000Y-116232000D03*
X116929000Y-115343000D03*
%TD*%
D14*
%TO.N,Net-(JP1-Pad1)*%
X102050000Y-122500000D02*
X102050000Y-116000000D01*
D15*
%TO.N,+3V3*%
X96040000Y-106740000D02*
X89370000Y-106740000D01*
X96050000Y-106750000D02*
X96040000Y-106740000D01*
%TO.N,/SDA*%
X93550000Y-85500000D02*
X91930000Y-83880000D01*
X93550000Y-87250000D02*
X93550000Y-85500000D01*
X91930000Y-83880000D02*
X89370000Y-83880000D01*
%TO.N,/BME_VDDIO*%
X102300000Y-113250000D02*
X103050000Y-114000000D01*
X96300000Y-113250000D02*
X102300000Y-113250000D01*
%TD*%
%TA.AperFunction,Conductor*%
%TO.N,GND*%
G36*
X116037496Y-77252921D02*
G01*
X116037827Y-77252987D01*
X116037829Y-77252987D01*
X116050000Y-77255408D01*
X116062173Y-77252986D01*
X116074582Y-77252986D01*
X116074582Y-77253346D01*
X116085156Y-77252626D01*
X116244372Y-77262257D01*
X116343674Y-77268264D01*
X116358778Y-77270098D01*
X116640672Y-77321757D01*
X116655445Y-77325398D01*
X116929066Y-77410662D01*
X116943284Y-77416054D01*
X117204624Y-77533674D01*
X117218097Y-77540745D01*
X117463358Y-77689011D01*
X117475879Y-77697654D01*
X117701476Y-77874397D01*
X117712865Y-77884487D01*
X117915513Y-78087135D01*
X117925603Y-78098524D01*
X118102346Y-78324121D01*
X118110989Y-78336642D01*
X118259255Y-78581903D01*
X118266325Y-78595374D01*
X118320345Y-78715400D01*
X118383944Y-78856712D01*
X118389338Y-78870934D01*
X118393133Y-78883111D01*
X118474602Y-79144555D01*
X118478243Y-79159328D01*
X118529902Y-79441222D01*
X118531736Y-79456326D01*
X118547374Y-79714842D01*
X118546654Y-79725418D01*
X118547014Y-79725418D01*
X118547014Y-79737827D01*
X118544592Y-79750000D01*
X118547013Y-79762171D01*
X118547013Y-79762173D01*
X118547079Y-79762504D01*
X118549500Y-79787085D01*
X118549500Y-123212915D01*
X118547079Y-123237496D01*
X118544592Y-123250000D01*
X118547014Y-123262173D01*
X118547014Y-123274582D01*
X118546654Y-123274582D01*
X118547374Y-123285158D01*
X118531736Y-123543674D01*
X118529902Y-123558778D01*
X118478243Y-123840672D01*
X118474602Y-123855445D01*
X118390513Y-124125298D01*
X118389340Y-124129061D01*
X118383946Y-124143284D01*
X118317170Y-124291654D01*
X118266326Y-124404624D01*
X118259255Y-124418097D01*
X118110989Y-124663358D01*
X118102346Y-124675879D01*
X117925603Y-124901476D01*
X117915513Y-124912865D01*
X117712865Y-125115513D01*
X117701476Y-125125603D01*
X117475879Y-125302346D01*
X117463358Y-125310989D01*
X117218097Y-125459255D01*
X117204626Y-125466325D01*
X116943284Y-125583946D01*
X116929066Y-125589338D01*
X116667033Y-125670991D01*
X116655445Y-125674602D01*
X116640672Y-125678243D01*
X116358778Y-125729902D01*
X116343674Y-125731736D01*
X116226802Y-125738806D01*
X116057605Y-125749040D01*
X116042395Y-125749040D01*
X115873198Y-125738806D01*
X115756326Y-125731736D01*
X115741222Y-125729902D01*
X115459328Y-125678243D01*
X115444555Y-125674602D01*
X115432967Y-125670991D01*
X115170934Y-125589338D01*
X115156716Y-125583946D01*
X114895374Y-125466325D01*
X114881903Y-125459255D01*
X114636642Y-125310989D01*
X114624121Y-125302346D01*
X114398524Y-125125603D01*
X114387135Y-125115513D01*
X114184487Y-124912865D01*
X114174397Y-124901476D01*
X113997654Y-124675879D01*
X113989011Y-124663358D01*
X113840745Y-124418097D01*
X113833674Y-124404624D01*
X113782830Y-124291654D01*
X113716054Y-124143284D01*
X113710660Y-124129061D01*
X113709488Y-124125298D01*
X113625398Y-123855445D01*
X113621757Y-123840672D01*
X113570098Y-123558778D01*
X113568264Y-123543674D01*
X113552626Y-123285158D01*
X113553346Y-123274582D01*
X113552986Y-123274582D01*
X113552986Y-123262173D01*
X113555408Y-123250000D01*
X114694341Y-123250000D01*
X114714937Y-123485408D01*
X114716361Y-123490722D01*
X114716361Y-123490723D01*
X114742019Y-123586479D01*
X114776097Y-123713663D01*
X114778419Y-123718643D01*
X114778420Y-123718645D01*
X114842212Y-123855445D01*
X114875965Y-123927829D01*
X115011505Y-124121401D01*
X115178599Y-124288495D01*
X115372171Y-124424035D01*
X115377149Y-124426356D01*
X115377152Y-124426358D01*
X115581355Y-124521580D01*
X115586337Y-124523903D01*
X115591645Y-124525325D01*
X115591647Y-124525326D01*
X115698363Y-124553920D01*
X115814592Y-124585063D01*
X115917682Y-124594082D01*
X115988310Y-124600262D01*
X115988317Y-124600262D01*
X115991034Y-124600500D01*
X116108966Y-124600500D01*
X116111683Y-124600262D01*
X116111690Y-124600262D01*
X116182318Y-124594082D01*
X116285408Y-124585063D01*
X116401637Y-124553920D01*
X116508353Y-124525326D01*
X116508355Y-124525325D01*
X116513663Y-124523903D01*
X116518645Y-124521580D01*
X116722848Y-124426358D01*
X116722851Y-124426356D01*
X116727829Y-124424035D01*
X116921401Y-124288495D01*
X117088495Y-124121401D01*
X117091655Y-124116889D01*
X117220878Y-123932339D01*
X117220881Y-123932334D01*
X117224035Y-123927830D01*
X117226358Y-123922848D01*
X117226361Y-123922843D01*
X117321580Y-123718645D01*
X117321581Y-123718644D01*
X117323903Y-123713663D01*
X117357982Y-123586479D01*
X117383639Y-123490723D01*
X117383639Y-123490722D01*
X117385063Y-123485408D01*
X117405659Y-123250000D01*
X117385063Y-123014592D01*
X117376025Y-122980861D01*
X117325326Y-122791647D01*
X117325325Y-122791645D01*
X117323903Y-122786337D01*
X117321580Y-122781355D01*
X117226358Y-122577152D01*
X117226356Y-122577149D01*
X117224035Y-122572171D01*
X117088495Y-122378599D01*
X116921401Y-122211505D01*
X116727829Y-122075965D01*
X116722851Y-122073644D01*
X116722848Y-122073642D01*
X116518645Y-121978420D01*
X116518643Y-121978419D01*
X116513663Y-121976097D01*
X116508355Y-121974675D01*
X116508353Y-121974674D01*
X116290723Y-121916361D01*
X116290722Y-121916361D01*
X116285408Y-121914937D01*
X116182318Y-121905918D01*
X116111690Y-121899738D01*
X116111683Y-121899738D01*
X116108966Y-121899500D01*
X115991034Y-121899500D01*
X115988317Y-121899738D01*
X115988310Y-121899738D01*
X115917682Y-121905918D01*
X115814592Y-121914937D01*
X115809278Y-121916361D01*
X115809277Y-121916361D01*
X115591647Y-121974674D01*
X115591645Y-121974675D01*
X115586337Y-121976097D01*
X115581357Y-121978419D01*
X115581355Y-121978420D01*
X115377152Y-122073642D01*
X115377149Y-122073644D01*
X115372171Y-122075965D01*
X115178599Y-122211505D01*
X115011505Y-122378599D01*
X115008348Y-122383107D01*
X115008346Y-122383110D01*
X114926499Y-122500000D01*
X114875965Y-122572170D01*
X114873642Y-122577152D01*
X114873639Y-122577157D01*
X114780159Y-122777625D01*
X114776097Y-122786337D01*
X114774675Y-122791645D01*
X114774674Y-122791647D01*
X114723975Y-122980861D01*
X114714937Y-123014592D01*
X114694341Y-123250000D01*
X113555408Y-123250000D01*
X113552921Y-123237496D01*
X113550500Y-123212915D01*
X113550500Y-122037085D01*
X113552921Y-122012504D01*
X113552987Y-122012171D01*
X113555408Y-122000000D01*
X113553686Y-121991341D01*
X113552670Y-121978420D01*
X113544731Y-121877558D01*
X113538924Y-121803774D01*
X113537770Y-121798967D01*
X113537769Y-121798961D01*
X113494129Y-121617191D01*
X113492974Y-121612379D01*
X113491080Y-121607806D01*
X113419544Y-121435103D01*
X113419542Y-121435099D01*
X113417649Y-121430529D01*
X113314804Y-121262702D01*
X113186971Y-121113029D01*
X113037298Y-120985196D01*
X112869471Y-120882351D01*
X112864901Y-120880458D01*
X112864897Y-120880456D01*
X112692194Y-120808920D01*
X112692192Y-120808919D01*
X112687621Y-120807026D01*
X112620469Y-120790904D01*
X112501039Y-120762231D01*
X112501033Y-120762230D01*
X112496226Y-120761076D01*
X112422442Y-120755269D01*
X112317534Y-120747012D01*
X112317528Y-120747012D01*
X112308659Y-120746314D01*
X112300000Y-120744592D01*
X112287829Y-120747013D01*
X112287496Y-120747079D01*
X112262915Y-120749500D01*
X104337085Y-120749500D01*
X104312504Y-120747079D01*
X104312171Y-120747013D01*
X104300000Y-120744592D01*
X104291341Y-120746314D01*
X104282472Y-120747012D01*
X104282466Y-120747012D01*
X104177558Y-120755269D01*
X104103774Y-120761076D01*
X104098967Y-120762230D01*
X104098961Y-120762231D01*
X103979531Y-120790904D01*
X103912379Y-120807026D01*
X103907808Y-120808919D01*
X103907806Y-120808920D01*
X103735103Y-120880456D01*
X103735099Y-120880458D01*
X103730529Y-120882351D01*
X103726310Y-120884936D01*
X103726299Y-120884942D01*
X103568843Y-120981432D01*
X103503008Y-121000000D01*
X102489000Y-121000000D01*
X102420879Y-120979998D01*
X102374386Y-120926342D01*
X102363000Y-120874000D01*
X102363000Y-116515852D01*
X102383002Y-116447731D01*
X102412291Y-116415894D01*
X102442621Y-116392621D01*
X102530861Y-116277625D01*
X102586330Y-116143709D01*
X102605250Y-116000000D01*
X102586330Y-115856291D01*
X102530861Y-115722375D01*
X102442621Y-115607379D01*
X102341069Y-115529455D01*
X110944825Y-115529455D01*
X110945512Y-115536462D01*
X110945512Y-115536465D01*
X110952465Y-115607379D01*
X110961255Y-115697025D01*
X111014402Y-115856791D01*
X111018049Y-115862813D01*
X111018050Y-115862815D01*
X111019059Y-115864480D01*
X111101624Y-116000812D01*
X111218586Y-116121929D01*
X111224483Y-116125788D01*
X111353577Y-116210266D01*
X111353581Y-116210268D01*
X111359475Y-116214125D01*
X111517289Y-116272815D01*
X111524270Y-116273746D01*
X111524272Y-116273747D01*
X111569812Y-116279823D01*
X111684183Y-116295083D01*
X111691194Y-116294445D01*
X111691198Y-116294445D01*
X111844843Y-116280462D01*
X111851864Y-116279823D01*
X111858566Y-116277645D01*
X111858568Y-116277645D01*
X112005298Y-116229970D01*
X112005301Y-116229969D01*
X112011997Y-116227793D01*
X112111022Y-116168762D01*
X112179776Y-116151062D01*
X112247185Y-116173344D01*
X112280306Y-116206992D01*
X112289399Y-116220601D01*
X112372260Y-116275966D01*
X112445326Y-116290500D01*
X113494674Y-116290500D01*
X113567740Y-116275966D01*
X113650601Y-116220601D01*
X113705966Y-116137740D01*
X113720500Y-116064674D01*
X113720500Y-115015326D01*
X113705966Y-114942260D01*
X113650601Y-114859399D01*
X113567740Y-114804034D01*
X113494674Y-114789500D01*
X112445326Y-114789500D01*
X112372260Y-114804034D01*
X112289399Y-114859399D01*
X112282507Y-114869714D01*
X112280012Y-114873448D01*
X112225536Y-114918976D01*
X112155093Y-114927825D01*
X112107735Y-114909834D01*
X112031079Y-114861187D01*
X111872462Y-114804706D01*
X111865474Y-114803873D01*
X111865471Y-114803872D01*
X111755068Y-114790707D01*
X111705273Y-114784769D01*
X111698270Y-114785505D01*
X111698269Y-114785505D01*
X111660261Y-114789500D01*
X111537821Y-114802369D01*
X111531155Y-114804638D01*
X111531152Y-114804639D01*
X111385098Y-114854360D01*
X111385095Y-114854361D01*
X111378431Y-114856630D01*
X111372436Y-114860318D01*
X111372432Y-114860320D01*
X111241021Y-114941165D01*
X111241019Y-114941167D01*
X111235022Y-114944856D01*
X111114724Y-115062661D01*
X111023515Y-115204190D01*
X110965927Y-115362409D01*
X110944825Y-115529455D01*
X102341069Y-115529455D01*
X102327625Y-115519139D01*
X102193709Y-115463670D01*
X102050000Y-115444750D01*
X101906291Y-115463670D01*
X101772375Y-115519139D01*
X101657379Y-115607379D01*
X101569139Y-115722375D01*
X101513670Y-115856291D01*
X101494750Y-116000000D01*
X101513670Y-116143709D01*
X101569139Y-116277625D01*
X101657379Y-116392621D01*
X101687706Y-116415892D01*
X101729571Y-116473227D01*
X101737000Y-116515852D01*
X101737000Y-120874000D01*
X101716998Y-120942121D01*
X101663342Y-120988614D01*
X101611000Y-121000000D01*
X97846992Y-121000000D01*
X97781157Y-120981432D01*
X97623701Y-120884942D01*
X97623690Y-120884936D01*
X97619471Y-120882351D01*
X97614901Y-120880458D01*
X97614897Y-120880456D01*
X97442194Y-120808920D01*
X97442192Y-120808919D01*
X97437621Y-120807026D01*
X97370469Y-120790904D01*
X97251039Y-120762231D01*
X97251033Y-120762230D01*
X97246226Y-120761076D01*
X97172442Y-120755269D01*
X97067534Y-120747012D01*
X97067528Y-120747012D01*
X97058659Y-120746314D01*
X97050000Y-120744592D01*
X97037829Y-120747013D01*
X97037496Y-120747079D01*
X97012915Y-120749500D01*
X89337085Y-120749500D01*
X89312504Y-120747079D01*
X89312171Y-120747013D01*
X89300000Y-120744592D01*
X89291341Y-120746314D01*
X89282472Y-120747012D01*
X89282466Y-120747012D01*
X89177558Y-120755269D01*
X89103774Y-120761076D01*
X89098967Y-120762230D01*
X89098961Y-120762231D01*
X88979531Y-120790904D01*
X88912379Y-120807026D01*
X88907808Y-120808919D01*
X88907806Y-120808920D01*
X88735103Y-120880456D01*
X88735099Y-120880458D01*
X88730529Y-120882351D01*
X88562702Y-120985196D01*
X88413029Y-121113029D01*
X88285196Y-121262702D01*
X88182351Y-121430529D01*
X88180458Y-121435099D01*
X88180456Y-121435103D01*
X88108920Y-121607806D01*
X88107026Y-121612379D01*
X88105871Y-121617191D01*
X88062231Y-121798961D01*
X88062230Y-121798967D01*
X88061076Y-121803774D01*
X88055269Y-121877558D01*
X88047331Y-121978420D01*
X88046314Y-121991341D01*
X88044592Y-122000000D01*
X88047013Y-122012171D01*
X88047079Y-122012504D01*
X88049500Y-122037085D01*
X88049500Y-123212915D01*
X88047079Y-123237496D01*
X88044592Y-123250000D01*
X88047014Y-123262173D01*
X88047014Y-123274582D01*
X88046654Y-123274582D01*
X88047374Y-123285158D01*
X88031736Y-123543674D01*
X88029902Y-123558778D01*
X87978243Y-123840672D01*
X87974602Y-123855445D01*
X87890513Y-124125298D01*
X87889340Y-124129061D01*
X87883946Y-124143284D01*
X87817170Y-124291654D01*
X87766326Y-124404624D01*
X87759255Y-124418097D01*
X87610989Y-124663358D01*
X87602346Y-124675879D01*
X87425603Y-124901476D01*
X87415513Y-124912865D01*
X87212865Y-125115513D01*
X87201476Y-125125603D01*
X86975879Y-125302346D01*
X86963358Y-125310989D01*
X86718097Y-125459255D01*
X86704626Y-125466325D01*
X86443284Y-125583946D01*
X86429066Y-125589338D01*
X86167033Y-125670991D01*
X86155445Y-125674602D01*
X86140672Y-125678243D01*
X85858778Y-125729902D01*
X85843674Y-125731736D01*
X85726802Y-125738806D01*
X85557605Y-125749040D01*
X85542395Y-125749040D01*
X85373198Y-125738806D01*
X85256326Y-125731736D01*
X85241222Y-125729902D01*
X84959328Y-125678243D01*
X84944555Y-125674602D01*
X84932967Y-125670991D01*
X84670934Y-125589338D01*
X84656716Y-125583946D01*
X84395374Y-125466325D01*
X84381903Y-125459255D01*
X84136642Y-125310989D01*
X84124121Y-125302346D01*
X83898524Y-125125603D01*
X83887135Y-125115513D01*
X83684487Y-124912865D01*
X83674397Y-124901476D01*
X83497654Y-124675879D01*
X83489011Y-124663358D01*
X83340745Y-124418097D01*
X83333674Y-124404624D01*
X83282830Y-124291654D01*
X83216054Y-124143284D01*
X83210660Y-124129061D01*
X83209488Y-124125298D01*
X83125398Y-123855445D01*
X83121757Y-123840672D01*
X83070098Y-123558778D01*
X83068264Y-123543674D01*
X83052626Y-123285158D01*
X83053346Y-123274582D01*
X83052986Y-123274582D01*
X83052986Y-123262173D01*
X83055408Y-123250000D01*
X84194341Y-123250000D01*
X84214937Y-123485408D01*
X84216361Y-123490722D01*
X84216361Y-123490723D01*
X84242019Y-123586479D01*
X84276097Y-123713663D01*
X84278419Y-123718643D01*
X84278420Y-123718645D01*
X84342212Y-123855445D01*
X84375965Y-123927829D01*
X84511505Y-124121401D01*
X84678599Y-124288495D01*
X84872171Y-124424035D01*
X84877149Y-124426356D01*
X84877152Y-124426358D01*
X85081355Y-124521580D01*
X85086337Y-124523903D01*
X85091645Y-124525325D01*
X85091647Y-124525326D01*
X85198363Y-124553920D01*
X85314592Y-124585063D01*
X85417682Y-124594082D01*
X85488310Y-124600262D01*
X85488317Y-124600262D01*
X85491034Y-124600500D01*
X85608966Y-124600500D01*
X85611683Y-124600262D01*
X85611690Y-124600262D01*
X85682318Y-124594082D01*
X85785408Y-124585063D01*
X85901637Y-124553920D01*
X86008353Y-124525326D01*
X86008355Y-124525325D01*
X86013663Y-124523903D01*
X86018645Y-124521580D01*
X86222848Y-124426358D01*
X86222851Y-124426356D01*
X86227829Y-124424035D01*
X86421401Y-124288495D01*
X86588495Y-124121401D01*
X86591655Y-124116889D01*
X86720878Y-123932339D01*
X86720881Y-123932334D01*
X86724035Y-123927830D01*
X86726358Y-123922848D01*
X86726361Y-123922843D01*
X86821580Y-123718645D01*
X86821581Y-123718644D01*
X86823903Y-123713663D01*
X86857982Y-123586479D01*
X86883639Y-123490723D01*
X86883639Y-123490722D01*
X86885063Y-123485408D01*
X86905659Y-123250000D01*
X86885063Y-123014592D01*
X86876025Y-122980861D01*
X86825326Y-122791647D01*
X86825325Y-122791645D01*
X86823903Y-122786337D01*
X86821580Y-122781355D01*
X86726358Y-122577152D01*
X86726356Y-122577149D01*
X86724035Y-122572171D01*
X86588495Y-122378599D01*
X86421401Y-122211505D01*
X86227829Y-122075965D01*
X86222851Y-122073644D01*
X86222848Y-122073642D01*
X86018645Y-121978420D01*
X86018643Y-121978419D01*
X86013663Y-121976097D01*
X86008355Y-121974675D01*
X86008353Y-121974674D01*
X85790723Y-121916361D01*
X85790722Y-121916361D01*
X85785408Y-121914937D01*
X85682318Y-121905918D01*
X85611690Y-121899738D01*
X85611683Y-121899738D01*
X85608966Y-121899500D01*
X85491034Y-121899500D01*
X85488317Y-121899738D01*
X85488310Y-121899738D01*
X85417682Y-121905918D01*
X85314592Y-121914937D01*
X85309278Y-121916361D01*
X85309277Y-121916361D01*
X85091647Y-121974674D01*
X85091645Y-121974675D01*
X85086337Y-121976097D01*
X85081357Y-121978419D01*
X85081355Y-121978420D01*
X84877152Y-122073642D01*
X84877149Y-122073644D01*
X84872171Y-122075965D01*
X84678599Y-122211505D01*
X84511505Y-122378599D01*
X84508348Y-122383107D01*
X84508346Y-122383110D01*
X84426499Y-122500000D01*
X84375965Y-122572170D01*
X84373642Y-122577152D01*
X84373639Y-122577157D01*
X84280159Y-122777625D01*
X84276097Y-122786337D01*
X84274675Y-122791645D01*
X84274674Y-122791647D01*
X84223975Y-122980861D01*
X84214937Y-123014592D01*
X84194341Y-123250000D01*
X83055408Y-123250000D01*
X83052921Y-123237496D01*
X83050500Y-123212915D01*
X83050500Y-118000000D01*
X84444341Y-118000000D01*
X84464937Y-118235408D01*
X84526097Y-118463663D01*
X84625965Y-118677829D01*
X84761505Y-118871401D01*
X84928599Y-119038495D01*
X85122171Y-119174035D01*
X85127149Y-119176356D01*
X85127152Y-119176358D01*
X85331355Y-119271580D01*
X85336337Y-119273903D01*
X85341645Y-119275325D01*
X85341647Y-119275326D01*
X85559277Y-119333639D01*
X85564592Y-119335063D01*
X85667682Y-119344082D01*
X85738310Y-119350262D01*
X85738317Y-119350262D01*
X85741034Y-119350500D01*
X85858966Y-119350500D01*
X85861683Y-119350262D01*
X85861690Y-119350262D01*
X85932318Y-119344082D01*
X86035408Y-119335063D01*
X86040723Y-119333639D01*
X86258353Y-119275326D01*
X86258355Y-119275325D01*
X86263663Y-119273903D01*
X86268645Y-119271580D01*
X86472848Y-119176358D01*
X86472851Y-119176356D01*
X86477829Y-119174035D01*
X86671401Y-119038495D01*
X86838495Y-118871401D01*
X86841655Y-118866889D01*
X86970878Y-118682339D01*
X86970881Y-118682334D01*
X86974035Y-118677830D01*
X86976358Y-118672848D01*
X86976361Y-118672843D01*
X87071580Y-118468645D01*
X87071581Y-118468644D01*
X87073903Y-118463663D01*
X87135063Y-118235408D01*
X87155659Y-118000000D01*
X87135063Y-117764592D01*
X87073903Y-117536337D01*
X86974035Y-117322171D01*
X86838495Y-117128599D01*
X86671401Y-116961505D01*
X86477829Y-116825965D01*
X86472851Y-116823644D01*
X86472848Y-116823642D01*
X86268645Y-116728420D01*
X86268643Y-116728419D01*
X86263663Y-116726097D01*
X86258355Y-116724675D01*
X86258353Y-116724674D01*
X86040723Y-116666361D01*
X86040722Y-116666361D01*
X86035408Y-116664937D01*
X85932318Y-116655918D01*
X85861690Y-116649738D01*
X85861683Y-116649738D01*
X85858966Y-116649500D01*
X85741034Y-116649500D01*
X85738317Y-116649738D01*
X85738310Y-116649738D01*
X85667682Y-116655918D01*
X85564592Y-116664937D01*
X85559278Y-116666361D01*
X85559277Y-116666361D01*
X85341647Y-116724674D01*
X85341645Y-116724675D01*
X85336337Y-116726097D01*
X85331357Y-116728419D01*
X85331355Y-116728420D01*
X85127152Y-116823642D01*
X85127149Y-116823644D01*
X85122171Y-116825965D01*
X84928599Y-116961505D01*
X84761505Y-117128599D01*
X84758348Y-117133107D01*
X84758346Y-117133110D01*
X84629122Y-117317661D01*
X84625965Y-117322170D01*
X84623642Y-117327152D01*
X84623639Y-117327157D01*
X84528420Y-117531355D01*
X84526097Y-117536337D01*
X84464937Y-117764592D01*
X84444341Y-118000000D01*
X83050500Y-118000000D01*
X83050500Y-113250000D01*
X95744750Y-113250000D01*
X95763670Y-113393709D01*
X95819139Y-113527625D01*
X95907379Y-113642621D01*
X96022375Y-113730861D01*
X96156291Y-113786330D01*
X96300000Y-113805250D01*
X96443709Y-113786330D01*
X96577625Y-113730861D01*
X96681000Y-113651538D01*
X96747220Y-113625937D01*
X96757704Y-113625500D01*
X102092273Y-113625500D01*
X102160394Y-113645502D01*
X102181368Y-113662405D01*
X102460835Y-113941872D01*
X102494861Y-114004184D01*
X102496661Y-114014515D01*
X102513670Y-114143709D01*
X102569139Y-114277625D01*
X102657379Y-114392621D01*
X102772375Y-114480861D01*
X102906291Y-114536330D01*
X103050000Y-114555250D01*
X103193709Y-114536330D01*
X103327625Y-114480861D01*
X103442621Y-114392621D01*
X103530861Y-114277625D01*
X103586330Y-114143709D01*
X103605250Y-114000000D01*
X103586330Y-113856291D01*
X103530861Y-113722375D01*
X103442621Y-113607379D01*
X103327625Y-113519139D01*
X103193709Y-113463670D01*
X103064520Y-113446662D01*
X102999594Y-113417940D01*
X102991872Y-113410835D01*
X102603348Y-113022311D01*
X102588623Y-113004080D01*
X102587222Y-113002540D01*
X102581572Y-112993790D01*
X102576073Y-112989455D01*
X110944825Y-112989455D01*
X110945512Y-112996462D01*
X110945512Y-112996465D01*
X110948046Y-113022311D01*
X110961255Y-113157025D01*
X111014402Y-113316791D01*
X111018049Y-113322813D01*
X111018050Y-113322815D01*
X111093603Y-113447567D01*
X111101624Y-113460812D01*
X111106513Y-113465875D01*
X111106514Y-113465876D01*
X111166145Y-113527625D01*
X111218586Y-113581929D01*
X111224483Y-113585788D01*
X111353577Y-113670266D01*
X111353581Y-113670268D01*
X111359475Y-113674125D01*
X111517289Y-113732815D01*
X111524270Y-113733746D01*
X111524272Y-113733747D01*
X111569812Y-113739823D01*
X111684183Y-113755083D01*
X111691194Y-113754445D01*
X111691198Y-113754445D01*
X111844843Y-113740462D01*
X111851864Y-113739823D01*
X111858566Y-113737645D01*
X111858568Y-113737645D01*
X112005298Y-113689970D01*
X112005301Y-113689969D01*
X112011997Y-113687793D01*
X112156623Y-113601578D01*
X112243193Y-113519139D01*
X112248829Y-113513772D01*
X112311954Y-113481280D01*
X112382625Y-113488074D01*
X112426357Y-113517490D01*
X112442473Y-113534178D01*
X112488586Y-113581929D01*
X112494483Y-113585788D01*
X112623577Y-113670266D01*
X112623581Y-113670268D01*
X112629475Y-113674125D01*
X112787289Y-113732815D01*
X112794270Y-113733746D01*
X112794272Y-113733747D01*
X112839812Y-113739823D01*
X112954183Y-113755083D01*
X112961194Y-113754445D01*
X112961198Y-113754445D01*
X113114843Y-113740462D01*
X113121864Y-113739823D01*
X113128566Y-113737645D01*
X113128568Y-113737645D01*
X113275298Y-113689970D01*
X113275301Y-113689969D01*
X113281997Y-113687793D01*
X113426623Y-113601578D01*
X113431717Y-113596727D01*
X113431721Y-113596724D01*
X113543454Y-113490322D01*
X113543455Y-113490320D01*
X113548554Y-113485465D01*
X113560935Y-113466831D01*
X113609517Y-113393709D01*
X113641731Y-113345223D01*
X113701521Y-113187823D01*
X113724955Y-113021088D01*
X113725249Y-113000000D01*
X113714944Y-112908128D01*
X113707266Y-112839672D01*
X113707265Y-112839669D01*
X113706481Y-112832676D01*
X113651108Y-112673668D01*
X113561884Y-112530879D01*
X113548830Y-112517733D01*
X113485085Y-112453542D01*
X113451278Y-112391111D01*
X113456590Y-112320314D01*
X113487599Y-112273513D01*
X113543450Y-112220327D01*
X113543456Y-112220319D01*
X113548554Y-112215465D01*
X113564934Y-112190812D01*
X113637836Y-112081085D01*
X113641731Y-112075223D01*
X113701521Y-111917823D01*
X113724955Y-111751088D01*
X113725249Y-111730000D01*
X113706481Y-111562676D01*
X113651108Y-111403668D01*
X113561884Y-111260879D01*
X113548830Y-111247733D01*
X113485085Y-111183542D01*
X113451278Y-111121111D01*
X113456590Y-111050314D01*
X113487599Y-111003513D01*
X113543450Y-110950327D01*
X113543456Y-110950319D01*
X113548554Y-110945465D01*
X113564934Y-110920812D01*
X113637836Y-110811085D01*
X113641731Y-110805223D01*
X113701521Y-110647823D01*
X113724955Y-110481088D01*
X113725249Y-110460000D01*
X113706481Y-110292676D01*
X113651108Y-110133668D01*
X113561884Y-109990879D01*
X113549721Y-109978631D01*
X113448205Y-109876403D01*
X113448201Y-109876400D01*
X113443242Y-109871406D01*
X113301079Y-109781187D01*
X113142462Y-109724706D01*
X113135474Y-109723873D01*
X113135471Y-109723872D01*
X113042300Y-109712762D01*
X112975273Y-109704769D01*
X112968270Y-109705505D01*
X112968269Y-109705505D01*
X112922712Y-109710293D01*
X112807821Y-109722369D01*
X112801155Y-109724638D01*
X112801152Y-109724639D01*
X112655098Y-109774360D01*
X112655095Y-109774361D01*
X112648431Y-109776630D01*
X112642436Y-109780318D01*
X112642432Y-109780320D01*
X112511021Y-109861165D01*
X112511019Y-109861167D01*
X112505022Y-109864856D01*
X112422915Y-109945262D01*
X112360250Y-109978631D01*
X112289492Y-109972825D01*
X112245352Y-109944021D01*
X112178205Y-109876403D01*
X112178201Y-109876400D01*
X112173242Y-109871406D01*
X112031079Y-109781187D01*
X111872462Y-109724706D01*
X111865474Y-109723873D01*
X111865471Y-109723872D01*
X111772300Y-109712762D01*
X111705273Y-109704769D01*
X111698270Y-109705505D01*
X111698269Y-109705505D01*
X111652712Y-109710293D01*
X111537821Y-109722369D01*
X111531155Y-109724638D01*
X111531152Y-109724639D01*
X111385098Y-109774360D01*
X111385095Y-109774361D01*
X111378431Y-109776630D01*
X111372436Y-109780318D01*
X111372432Y-109780320D01*
X111241021Y-109861165D01*
X111241019Y-109861167D01*
X111235022Y-109864856D01*
X111114724Y-109982661D01*
X111023515Y-110124190D01*
X110965927Y-110282409D01*
X110944825Y-110449455D01*
X110945512Y-110456462D01*
X110945512Y-110456465D01*
X110948311Y-110485010D01*
X110961255Y-110617025D01*
X111014402Y-110776791D01*
X111018049Y-110782813D01*
X111018050Y-110782815D01*
X111065054Y-110860427D01*
X111101624Y-110920812D01*
X111106513Y-110925875D01*
X111106514Y-110925876D01*
X111185778Y-111007955D01*
X111218711Y-111070852D01*
X111212411Y-111141568D01*
X111183300Y-111185506D01*
X111114724Y-111252661D01*
X111023515Y-111394190D01*
X110965927Y-111552409D01*
X110944825Y-111719455D01*
X110945512Y-111726462D01*
X110945512Y-111726465D01*
X110948311Y-111755010D01*
X110961255Y-111887025D01*
X111014402Y-112046791D01*
X111018049Y-112052813D01*
X111018050Y-112052815D01*
X111065054Y-112130427D01*
X111101624Y-112190812D01*
X111106513Y-112195875D01*
X111106514Y-112195876D01*
X111185778Y-112277955D01*
X111218711Y-112340852D01*
X111212411Y-112411568D01*
X111183300Y-112455506D01*
X111114724Y-112522661D01*
X111023515Y-112664190D01*
X111021105Y-112670810D01*
X111021104Y-112670813D01*
X111005898Y-112712592D01*
X110965927Y-112822409D01*
X110944825Y-112989455D01*
X102576073Y-112989455D01*
X102555535Y-112973264D01*
X102551168Y-112969383D01*
X102551102Y-112969461D01*
X102547144Y-112966107D01*
X102543462Y-112962425D01*
X102539231Y-112959402D01*
X102539228Y-112959399D01*
X102534409Y-112955956D01*
X102527948Y-112951339D01*
X102523212Y-112947783D01*
X102483400Y-112916397D01*
X102474851Y-112913395D01*
X102467481Y-112908128D01*
X102434203Y-112898176D01*
X102418930Y-112893608D01*
X102413286Y-112891774D01*
X102372935Y-112877604D01*
X102372929Y-112877603D01*
X102365452Y-112874977D01*
X102359945Y-112874500D01*
X102357238Y-112874500D01*
X102354665Y-112874389D01*
X102354506Y-112874341D01*
X102354512Y-112874197D01*
X102353892Y-112874158D01*
X102347713Y-112872310D01*
X102294445Y-112874403D01*
X102289498Y-112874500D01*
X96757704Y-112874500D01*
X96689583Y-112854498D01*
X96681000Y-112848462D01*
X96669545Y-112839672D01*
X96577625Y-112769139D01*
X96443709Y-112713670D01*
X96300000Y-112694750D01*
X96156291Y-112713670D01*
X96022375Y-112769139D01*
X95907379Y-112857379D01*
X95819139Y-112972375D01*
X95763670Y-113106291D01*
X95744750Y-113250000D01*
X83050500Y-113250000D01*
X83050500Y-106711069D01*
X88265164Y-106711069D01*
X88278392Y-106912894D01*
X88328178Y-107108928D01*
X88412856Y-107292607D01*
X88529588Y-107457780D01*
X88674466Y-107598913D01*
X88842637Y-107711282D01*
X88847940Y-107713560D01*
X88847943Y-107713562D01*
X88936291Y-107751519D01*
X89028470Y-107791122D01*
X89225740Y-107835760D01*
X89231509Y-107835987D01*
X89231512Y-107835987D01*
X89307683Y-107838979D01*
X89427842Y-107843700D01*
X89514132Y-107831189D01*
X89577510Y-107822000D01*
X110808500Y-107822000D01*
X110814339Y-107876309D01*
X110825725Y-107928651D01*
X110832961Y-107955028D01*
X110882292Y-108041659D01*
X110928785Y-108095315D01*
X110961561Y-108126941D01*
X110997703Y-108145847D01*
X111044417Y-108170283D01*
X111044422Y-108170285D01*
X111049897Y-108173149D01*
X111055833Y-108174892D01*
X111113695Y-108191882D01*
X111113699Y-108191883D01*
X111118018Y-108193151D01*
X111122466Y-108193791D01*
X111122473Y-108193792D01*
X111185552Y-108202861D01*
X111185559Y-108202861D01*
X111190000Y-108203500D01*
X115635500Y-108203500D01*
X115703621Y-108223502D01*
X115750114Y-108277158D01*
X115761500Y-108329500D01*
X115761500Y-116585000D01*
X115767339Y-116639309D01*
X115768053Y-116642593D01*
X115768054Y-116642597D01*
X115770214Y-116652527D01*
X115778725Y-116691651D01*
X115785961Y-116718028D01*
X115789861Y-116724878D01*
X115789862Y-116724879D01*
X115793110Y-116730583D01*
X115835292Y-116804659D01*
X115839344Y-116809335D01*
X115872895Y-116848055D01*
X115881785Y-116858315D01*
X115914561Y-116889941D01*
X115950703Y-116908847D01*
X115997417Y-116933283D01*
X115997422Y-116933285D01*
X116002897Y-116936149D01*
X116008833Y-116937892D01*
X116066695Y-116954882D01*
X116066699Y-116954883D01*
X116071018Y-116956151D01*
X116075466Y-116956791D01*
X116075473Y-116956792D01*
X116138552Y-116965861D01*
X116138559Y-116965861D01*
X116143000Y-116966500D01*
X117669000Y-116966500D01*
X117723309Y-116960661D01*
X117726593Y-116959947D01*
X117726597Y-116959946D01*
X117774019Y-116949630D01*
X117775651Y-116949275D01*
X117777247Y-116948837D01*
X117777264Y-116948833D01*
X117794428Y-116944124D01*
X117794429Y-116944124D01*
X117802028Y-116942039D01*
X117888659Y-116892708D01*
X117942315Y-116846215D01*
X117973941Y-116813439D01*
X117992847Y-116777297D01*
X118017283Y-116730583D01*
X118017285Y-116730578D01*
X118020149Y-116725103D01*
X118029498Y-116693264D01*
X118038882Y-116661305D01*
X118038883Y-116661301D01*
X118040151Y-116656982D01*
X118040792Y-116652527D01*
X118049861Y-116589448D01*
X118049861Y-116589441D01*
X118050500Y-116585000D01*
X118050500Y-105661000D01*
X118044661Y-105606691D01*
X118033275Y-105554349D01*
X118026039Y-105527972D01*
X117976708Y-105441341D01*
X117940700Y-105399785D01*
X117932055Y-105389808D01*
X117932050Y-105389803D01*
X117930215Y-105387685D01*
X117897439Y-105356059D01*
X117861297Y-105337153D01*
X117814583Y-105312717D01*
X117814578Y-105312715D01*
X117809103Y-105309851D01*
X117802329Y-105307862D01*
X117745305Y-105291118D01*
X117745301Y-105291117D01*
X117740982Y-105289849D01*
X117736534Y-105289209D01*
X117736527Y-105289208D01*
X117673448Y-105280139D01*
X117673441Y-105280139D01*
X117669000Y-105279500D01*
X111190000Y-105279500D01*
X111135691Y-105285339D01*
X111132407Y-105286053D01*
X111132403Y-105286054D01*
X111086931Y-105295946D01*
X111083349Y-105296725D01*
X111081753Y-105297163D01*
X111081736Y-105297167D01*
X111064572Y-105301876D01*
X111056972Y-105303961D01*
X110970341Y-105353292D01*
X110916685Y-105399785D01*
X110885059Y-105432561D01*
X110877653Y-105446720D01*
X110841717Y-105515417D01*
X110841715Y-105515422D01*
X110838851Y-105520897D01*
X110837108Y-105526833D01*
X110829029Y-105554349D01*
X110818849Y-105589018D01*
X110818209Y-105593466D01*
X110818208Y-105593473D01*
X110811237Y-105641966D01*
X110808500Y-105661000D01*
X110808500Y-107822000D01*
X89577510Y-107822000D01*
X89622286Y-107815508D01*
X89622291Y-107815507D01*
X89628007Y-107814678D01*
X89633479Y-107812820D01*
X89633481Y-107812820D01*
X89814067Y-107751519D01*
X89814069Y-107751518D01*
X89819531Y-107749664D01*
X89996001Y-107650837D01*
X90058433Y-107598913D01*
X90147073Y-107525191D01*
X90151505Y-107521505D01*
X90280837Y-107366001D01*
X90379664Y-107189531D01*
X90379855Y-107188969D01*
X90424747Y-107136155D01*
X90493872Y-107115500D01*
X95579592Y-107115500D01*
X95647713Y-107135502D01*
X95657061Y-107143036D01*
X95657379Y-107142621D01*
X95772375Y-107230861D01*
X95906291Y-107286330D01*
X96050000Y-107305250D01*
X96193709Y-107286330D01*
X96327625Y-107230861D01*
X96442621Y-107142621D01*
X96530861Y-107027625D01*
X96586330Y-106893709D01*
X96605250Y-106750000D01*
X96586330Y-106606291D01*
X96530861Y-106472375D01*
X96442621Y-106357379D01*
X96327625Y-106269139D01*
X96193709Y-106213670D01*
X96050000Y-106194750D01*
X95906291Y-106213670D01*
X95772375Y-106269139D01*
X95682032Y-106338462D01*
X95615812Y-106364063D01*
X95605328Y-106364500D01*
X90490305Y-106364500D01*
X90422184Y-106344498D01*
X90377299Y-106294229D01*
X90364926Y-106269139D01*
X90312351Y-106162527D01*
X90294079Y-106138057D01*
X90194788Y-106005091D01*
X90194787Y-106005090D01*
X90191335Y-106000467D01*
X90168350Y-105979220D01*
X90047053Y-105867094D01*
X90047051Y-105867092D01*
X90042812Y-105863174D01*
X90015374Y-105845862D01*
X89876637Y-105758325D01*
X89871757Y-105755246D01*
X89683898Y-105680298D01*
X89485526Y-105640839D01*
X89479752Y-105640763D01*
X89479748Y-105640763D01*
X89377257Y-105639422D01*
X89283286Y-105638192D01*
X89277589Y-105639171D01*
X89277588Y-105639171D01*
X89089646Y-105671465D01*
X89089645Y-105671465D01*
X89083949Y-105672444D01*
X88894193Y-105742449D01*
X88720371Y-105845862D01*
X88568305Y-105979220D01*
X88443089Y-106138057D01*
X88348914Y-106317053D01*
X88288937Y-106510213D01*
X88265164Y-106711069D01*
X83050500Y-106711069D01*
X83050500Y-101631069D01*
X111125164Y-101631069D01*
X111138392Y-101832894D01*
X111188178Y-102028928D01*
X111272856Y-102212607D01*
X111389588Y-102377780D01*
X111534466Y-102518913D01*
X111702637Y-102631282D01*
X111707940Y-102633560D01*
X111707943Y-102633562D01*
X111796291Y-102671519D01*
X111888470Y-102711122D01*
X112085740Y-102755760D01*
X112091509Y-102755987D01*
X112091512Y-102755987D01*
X112167683Y-102758979D01*
X112287842Y-102763700D01*
X112374132Y-102751189D01*
X112482286Y-102735508D01*
X112482291Y-102735507D01*
X112488007Y-102734678D01*
X112493479Y-102732820D01*
X112493481Y-102732820D01*
X112674067Y-102671519D01*
X112674069Y-102671518D01*
X112679531Y-102669664D01*
X112856001Y-102570837D01*
X112918433Y-102518913D01*
X113007073Y-102445191D01*
X113011505Y-102441505D01*
X113140837Y-102286001D01*
X113239664Y-102109531D01*
X113304678Y-101918007D01*
X113305507Y-101912291D01*
X113305508Y-101912286D01*
X113333167Y-101721516D01*
X113333700Y-101717842D01*
X113335215Y-101660000D01*
X113316708Y-101458591D01*
X113261807Y-101263926D01*
X113172351Y-101082527D01*
X113154079Y-101058057D01*
X113054788Y-100925091D01*
X113054787Y-100925090D01*
X113051335Y-100920467D01*
X113028350Y-100899220D01*
X112907053Y-100787094D01*
X112907051Y-100787092D01*
X112902812Y-100783174D01*
X112875374Y-100765862D01*
X112736637Y-100678325D01*
X112731757Y-100675246D01*
X112543898Y-100600298D01*
X112345526Y-100560839D01*
X112339752Y-100560763D01*
X112339748Y-100560763D01*
X112237257Y-100559422D01*
X112143286Y-100558192D01*
X112137589Y-100559171D01*
X112137588Y-100559171D01*
X111949646Y-100591465D01*
X111949645Y-100591465D01*
X111943949Y-100592444D01*
X111754193Y-100662449D01*
X111580371Y-100765862D01*
X111428305Y-100899220D01*
X111303089Y-101058057D01*
X111208914Y-101237053D01*
X111148937Y-101430213D01*
X111125164Y-101631069D01*
X83050500Y-101631069D01*
X83050500Y-99091069D01*
X88265164Y-99091069D01*
X88278392Y-99292894D01*
X88328178Y-99488928D01*
X88412856Y-99672607D01*
X88529588Y-99837780D01*
X88674466Y-99978913D01*
X88842637Y-100091282D01*
X88847940Y-100093560D01*
X88847943Y-100093562D01*
X88936291Y-100131519D01*
X89028470Y-100171122D01*
X89225740Y-100215760D01*
X89231509Y-100215987D01*
X89231512Y-100215987D01*
X89307683Y-100218979D01*
X89427842Y-100223700D01*
X89514132Y-100211189D01*
X89622286Y-100195508D01*
X89622291Y-100195507D01*
X89628007Y-100194678D01*
X89633479Y-100192820D01*
X89633481Y-100192820D01*
X89814067Y-100131519D01*
X89814069Y-100131518D01*
X89819531Y-100129664D01*
X89996001Y-100030837D01*
X90058433Y-99978913D01*
X90147073Y-99905191D01*
X90151505Y-99901505D01*
X90280837Y-99746001D01*
X90379664Y-99569531D01*
X90444678Y-99378007D01*
X90445507Y-99372291D01*
X90445508Y-99372286D01*
X90473167Y-99181516D01*
X90473700Y-99177842D01*
X90475215Y-99120000D01*
X90472557Y-99091069D01*
X111125164Y-99091069D01*
X111138392Y-99292894D01*
X111188178Y-99488928D01*
X111272856Y-99672607D01*
X111389588Y-99837780D01*
X111534466Y-99978913D01*
X111702637Y-100091282D01*
X111707940Y-100093560D01*
X111707943Y-100093562D01*
X111796291Y-100131519D01*
X111888470Y-100171122D01*
X112085740Y-100215760D01*
X112091509Y-100215987D01*
X112091512Y-100215987D01*
X112167683Y-100218979D01*
X112287842Y-100223700D01*
X112374132Y-100211189D01*
X112482286Y-100195508D01*
X112482291Y-100195507D01*
X112488007Y-100194678D01*
X112493479Y-100192820D01*
X112493481Y-100192820D01*
X112674067Y-100131519D01*
X112674069Y-100131518D01*
X112679531Y-100129664D01*
X112856001Y-100030837D01*
X112918433Y-99978913D01*
X113007073Y-99905191D01*
X113011505Y-99901505D01*
X113140837Y-99746001D01*
X113239664Y-99569531D01*
X113304678Y-99378007D01*
X113305507Y-99372291D01*
X113305508Y-99372286D01*
X113333167Y-99181516D01*
X113333700Y-99177842D01*
X113335215Y-99120000D01*
X113316708Y-98918591D01*
X113261807Y-98723926D01*
X113172351Y-98542527D01*
X113154079Y-98518057D01*
X113054788Y-98385091D01*
X113054787Y-98385090D01*
X113051335Y-98380467D01*
X113028350Y-98359220D01*
X112907053Y-98247094D01*
X112907051Y-98247092D01*
X112902812Y-98243174D01*
X112875374Y-98225862D01*
X112736637Y-98138325D01*
X112731757Y-98135246D01*
X112543898Y-98060298D01*
X112345526Y-98020839D01*
X112339752Y-98020763D01*
X112339748Y-98020763D01*
X112237257Y-98019422D01*
X112143286Y-98018192D01*
X112137589Y-98019171D01*
X112137588Y-98019171D01*
X111949646Y-98051465D01*
X111949645Y-98051465D01*
X111943949Y-98052444D01*
X111754193Y-98122449D01*
X111580371Y-98225862D01*
X111428305Y-98359220D01*
X111303089Y-98518057D01*
X111208914Y-98697053D01*
X111148937Y-98890213D01*
X111125164Y-99091069D01*
X90472557Y-99091069D01*
X90456708Y-98918591D01*
X90401807Y-98723926D01*
X90312351Y-98542527D01*
X90294079Y-98518057D01*
X90194788Y-98385091D01*
X90194787Y-98385090D01*
X90191335Y-98380467D01*
X90168350Y-98359220D01*
X90047053Y-98247094D01*
X90047051Y-98247092D01*
X90042812Y-98243174D01*
X90015374Y-98225862D01*
X89876637Y-98138325D01*
X89871757Y-98135246D01*
X89683898Y-98060298D01*
X89485526Y-98020839D01*
X89479752Y-98020763D01*
X89479748Y-98020763D01*
X89377257Y-98019422D01*
X89283286Y-98018192D01*
X89277589Y-98019171D01*
X89277588Y-98019171D01*
X89089646Y-98051465D01*
X89089645Y-98051465D01*
X89083949Y-98052444D01*
X88894193Y-98122449D01*
X88720371Y-98225862D01*
X88568305Y-98359220D01*
X88443089Y-98518057D01*
X88348914Y-98697053D01*
X88288937Y-98890213D01*
X88265164Y-99091069D01*
X83050500Y-99091069D01*
X83050500Y-96551069D01*
X88265164Y-96551069D01*
X88278392Y-96752894D01*
X88328178Y-96948928D01*
X88412856Y-97132607D01*
X88529588Y-97297780D01*
X88674466Y-97438913D01*
X88842637Y-97551282D01*
X88847940Y-97553560D01*
X88847943Y-97553562D01*
X88936291Y-97591519D01*
X89028470Y-97631122D01*
X89225740Y-97675760D01*
X89231509Y-97675987D01*
X89231512Y-97675987D01*
X89307683Y-97678979D01*
X89427842Y-97683700D01*
X89514132Y-97671189D01*
X89622286Y-97655508D01*
X89622291Y-97655507D01*
X89628007Y-97654678D01*
X89633479Y-97652820D01*
X89633481Y-97652820D01*
X89814067Y-97591519D01*
X89814069Y-97591518D01*
X89819531Y-97589664D01*
X89996001Y-97490837D01*
X90058433Y-97438913D01*
X90147073Y-97365191D01*
X90151505Y-97361505D01*
X90280837Y-97206001D01*
X90379664Y-97029531D01*
X90444678Y-96838007D01*
X90445507Y-96832291D01*
X90445508Y-96832286D01*
X90473167Y-96641516D01*
X90473700Y-96637842D01*
X90475215Y-96580000D01*
X90472557Y-96551069D01*
X111125164Y-96551069D01*
X111138392Y-96752894D01*
X111188178Y-96948928D01*
X111272856Y-97132607D01*
X111389588Y-97297780D01*
X111534466Y-97438913D01*
X111702637Y-97551282D01*
X111707940Y-97553560D01*
X111707943Y-97553562D01*
X111796291Y-97591519D01*
X111888470Y-97631122D01*
X112085740Y-97675760D01*
X112091509Y-97675987D01*
X112091512Y-97675987D01*
X112167683Y-97678979D01*
X112287842Y-97683700D01*
X112374132Y-97671189D01*
X112482286Y-97655508D01*
X112482291Y-97655507D01*
X112488007Y-97654678D01*
X112493479Y-97652820D01*
X112493481Y-97652820D01*
X112674067Y-97591519D01*
X112674069Y-97591518D01*
X112679531Y-97589664D01*
X112856001Y-97490837D01*
X112918433Y-97438913D01*
X113007073Y-97365191D01*
X113011505Y-97361505D01*
X113140837Y-97206001D01*
X113239664Y-97029531D01*
X113304678Y-96838007D01*
X113305507Y-96832291D01*
X113305508Y-96832286D01*
X113333167Y-96641516D01*
X113333700Y-96637842D01*
X113335215Y-96580000D01*
X113316708Y-96378591D01*
X113261807Y-96183926D01*
X113172351Y-96002527D01*
X113154079Y-95978057D01*
X113054788Y-95845091D01*
X113054787Y-95845090D01*
X113051335Y-95840467D01*
X113028350Y-95819220D01*
X112907053Y-95707094D01*
X112907051Y-95707092D01*
X112902812Y-95703174D01*
X112875374Y-95685862D01*
X112736637Y-95598325D01*
X112731757Y-95595246D01*
X112543898Y-95520298D01*
X112345526Y-95480839D01*
X112339752Y-95480763D01*
X112339748Y-95480763D01*
X112237257Y-95479422D01*
X112143286Y-95478192D01*
X112137589Y-95479171D01*
X112137588Y-95479171D01*
X111949646Y-95511465D01*
X111949645Y-95511465D01*
X111943949Y-95512444D01*
X111754193Y-95582449D01*
X111580371Y-95685862D01*
X111428305Y-95819220D01*
X111303089Y-95978057D01*
X111208914Y-96157053D01*
X111148937Y-96350213D01*
X111125164Y-96551069D01*
X90472557Y-96551069D01*
X90456708Y-96378591D01*
X90401807Y-96183926D01*
X90312351Y-96002527D01*
X90294079Y-95978057D01*
X90194788Y-95845091D01*
X90194787Y-95845090D01*
X90191335Y-95840467D01*
X90168350Y-95819220D01*
X90047053Y-95707094D01*
X90047051Y-95707092D01*
X90042812Y-95703174D01*
X90015374Y-95685862D01*
X89876637Y-95598325D01*
X89871757Y-95595246D01*
X89683898Y-95520298D01*
X89485526Y-95480839D01*
X89479752Y-95480763D01*
X89479748Y-95480763D01*
X89377257Y-95479422D01*
X89283286Y-95478192D01*
X89277589Y-95479171D01*
X89277588Y-95479171D01*
X89089646Y-95511465D01*
X89089645Y-95511465D01*
X89083949Y-95512444D01*
X88894193Y-95582449D01*
X88720371Y-95685862D01*
X88568305Y-95819220D01*
X88443089Y-95978057D01*
X88348914Y-96157053D01*
X88288937Y-96350213D01*
X88265164Y-96551069D01*
X83050500Y-96551069D01*
X83050500Y-94011069D01*
X88265164Y-94011069D01*
X88278392Y-94212894D01*
X88328178Y-94408928D01*
X88412856Y-94592607D01*
X88529588Y-94757780D01*
X88674466Y-94898913D01*
X88842637Y-95011282D01*
X88847940Y-95013560D01*
X88847943Y-95013562D01*
X88936291Y-95051519D01*
X89028470Y-95091122D01*
X89225740Y-95135760D01*
X89231509Y-95135987D01*
X89231512Y-95135987D01*
X89307683Y-95138979D01*
X89427842Y-95143700D01*
X89514132Y-95131189D01*
X89622286Y-95115508D01*
X89622291Y-95115507D01*
X89628007Y-95114678D01*
X89633479Y-95112820D01*
X89633481Y-95112820D01*
X89814067Y-95051519D01*
X89814069Y-95051518D01*
X89819531Y-95049664D01*
X89996001Y-94950837D01*
X90058433Y-94898913D01*
X90147073Y-94825191D01*
X90151505Y-94821505D01*
X90280837Y-94666001D01*
X90379664Y-94489531D01*
X90444678Y-94298007D01*
X90445507Y-94292291D01*
X90445508Y-94292286D01*
X90473167Y-94101516D01*
X90473700Y-94097842D01*
X90475215Y-94040000D01*
X90472557Y-94011069D01*
X111125164Y-94011069D01*
X111138392Y-94212894D01*
X111188178Y-94408928D01*
X111272856Y-94592607D01*
X111389588Y-94757780D01*
X111534466Y-94898913D01*
X111702637Y-95011282D01*
X111707940Y-95013560D01*
X111707943Y-95013562D01*
X111796291Y-95051519D01*
X111888470Y-95091122D01*
X112085740Y-95135760D01*
X112091509Y-95135987D01*
X112091512Y-95135987D01*
X112167683Y-95138979D01*
X112287842Y-95143700D01*
X112374132Y-95131189D01*
X112482286Y-95115508D01*
X112482291Y-95115507D01*
X112488007Y-95114678D01*
X112493479Y-95112820D01*
X112493481Y-95112820D01*
X112674067Y-95051519D01*
X112674069Y-95051518D01*
X112679531Y-95049664D01*
X112856001Y-94950837D01*
X112918433Y-94898913D01*
X113007073Y-94825191D01*
X113011505Y-94821505D01*
X113140837Y-94666001D01*
X113239664Y-94489531D01*
X113304678Y-94298007D01*
X113305507Y-94292291D01*
X113305508Y-94292286D01*
X113333167Y-94101516D01*
X113333700Y-94097842D01*
X113335215Y-94040000D01*
X113316708Y-93838591D01*
X113261807Y-93643926D01*
X113172351Y-93462527D01*
X113154079Y-93438057D01*
X113054788Y-93305091D01*
X113054787Y-93305090D01*
X113051335Y-93300467D01*
X113028350Y-93279220D01*
X112907053Y-93167094D01*
X112907051Y-93167092D01*
X112902812Y-93163174D01*
X112875374Y-93145862D01*
X112736637Y-93058325D01*
X112731757Y-93055246D01*
X112543898Y-92980298D01*
X112345526Y-92940839D01*
X112339752Y-92940763D01*
X112339748Y-92940763D01*
X112237257Y-92939422D01*
X112143286Y-92938192D01*
X112137589Y-92939171D01*
X112137588Y-92939171D01*
X111949646Y-92971465D01*
X111949645Y-92971465D01*
X111943949Y-92972444D01*
X111754193Y-93042449D01*
X111580371Y-93145862D01*
X111428305Y-93279220D01*
X111303089Y-93438057D01*
X111208914Y-93617053D01*
X111148937Y-93810213D01*
X111125164Y-94011069D01*
X90472557Y-94011069D01*
X90456708Y-93838591D01*
X90401807Y-93643926D01*
X90312351Y-93462527D01*
X90294079Y-93438057D01*
X90194788Y-93305091D01*
X90194787Y-93305090D01*
X90191335Y-93300467D01*
X90168350Y-93279220D01*
X90047053Y-93167094D01*
X90047051Y-93167092D01*
X90042812Y-93163174D01*
X90015374Y-93145862D01*
X89876637Y-93058325D01*
X89871757Y-93055246D01*
X89683898Y-92980298D01*
X89485526Y-92940839D01*
X89479752Y-92940763D01*
X89479748Y-92940763D01*
X89377257Y-92939422D01*
X89283286Y-92938192D01*
X89277589Y-92939171D01*
X89277588Y-92939171D01*
X89089646Y-92971465D01*
X89089645Y-92971465D01*
X89083949Y-92972444D01*
X88894193Y-93042449D01*
X88720371Y-93145862D01*
X88568305Y-93279220D01*
X88443089Y-93438057D01*
X88348914Y-93617053D01*
X88288937Y-93810213D01*
X88265164Y-94011069D01*
X83050500Y-94011069D01*
X83050500Y-91471069D01*
X88265164Y-91471069D01*
X88278392Y-91672894D01*
X88328178Y-91868928D01*
X88412856Y-92052607D01*
X88529588Y-92217780D01*
X88674466Y-92358913D01*
X88842637Y-92471282D01*
X88847940Y-92473560D01*
X88847943Y-92473562D01*
X88936291Y-92511519D01*
X89028470Y-92551122D01*
X89225740Y-92595760D01*
X89231509Y-92595987D01*
X89231512Y-92595987D01*
X89307683Y-92598979D01*
X89427842Y-92603700D01*
X89514132Y-92591189D01*
X89622286Y-92575508D01*
X89622291Y-92575507D01*
X89628007Y-92574678D01*
X89633479Y-92572820D01*
X89633481Y-92572820D01*
X89814067Y-92511519D01*
X89814069Y-92511518D01*
X89819531Y-92509664D01*
X89996001Y-92410837D01*
X90058433Y-92358913D01*
X90147073Y-92285191D01*
X90151505Y-92281505D01*
X90280837Y-92126001D01*
X90379664Y-91949531D01*
X90444678Y-91758007D01*
X90445507Y-91752291D01*
X90445508Y-91752286D01*
X90473167Y-91561516D01*
X90473700Y-91557842D01*
X90475215Y-91500000D01*
X90472557Y-91471069D01*
X111125164Y-91471069D01*
X111138392Y-91672894D01*
X111188178Y-91868928D01*
X111272856Y-92052607D01*
X111389588Y-92217780D01*
X111534466Y-92358913D01*
X111702637Y-92471282D01*
X111707940Y-92473560D01*
X111707943Y-92473562D01*
X111796291Y-92511519D01*
X111888470Y-92551122D01*
X112085740Y-92595760D01*
X112091509Y-92595987D01*
X112091512Y-92595987D01*
X112167683Y-92598979D01*
X112287842Y-92603700D01*
X112374132Y-92591189D01*
X112482286Y-92575508D01*
X112482291Y-92575507D01*
X112488007Y-92574678D01*
X112493479Y-92572820D01*
X112493481Y-92572820D01*
X112674067Y-92511519D01*
X112674069Y-92511518D01*
X112679531Y-92509664D01*
X112856001Y-92410837D01*
X112918433Y-92358913D01*
X113007073Y-92285191D01*
X113011505Y-92281505D01*
X113140837Y-92126001D01*
X113239664Y-91949531D01*
X113304678Y-91758007D01*
X113305507Y-91752291D01*
X113305508Y-91752286D01*
X113333167Y-91561516D01*
X113333700Y-91557842D01*
X113335215Y-91500000D01*
X113316708Y-91298591D01*
X113261807Y-91103926D01*
X113172351Y-90922527D01*
X113154079Y-90898057D01*
X113054788Y-90765091D01*
X113054787Y-90765090D01*
X113051335Y-90760467D01*
X113028350Y-90739220D01*
X112907053Y-90627094D01*
X112907051Y-90627092D01*
X112902812Y-90623174D01*
X112875374Y-90605862D01*
X112736637Y-90518325D01*
X112731757Y-90515246D01*
X112543898Y-90440298D01*
X112345526Y-90400839D01*
X112339752Y-90400763D01*
X112339748Y-90400763D01*
X112237257Y-90399422D01*
X112143286Y-90398192D01*
X112137589Y-90399171D01*
X112137588Y-90399171D01*
X111949646Y-90431465D01*
X111949645Y-90431465D01*
X111943949Y-90432444D01*
X111754193Y-90502449D01*
X111580371Y-90605862D01*
X111428305Y-90739220D01*
X111303089Y-90898057D01*
X111208914Y-91077053D01*
X111148937Y-91270213D01*
X111125164Y-91471069D01*
X90472557Y-91471069D01*
X90456708Y-91298591D01*
X90401807Y-91103926D01*
X90312351Y-90922527D01*
X90294079Y-90898057D01*
X90194788Y-90765091D01*
X90194787Y-90765090D01*
X90191335Y-90760467D01*
X90168350Y-90739220D01*
X90047053Y-90627094D01*
X90047051Y-90627092D01*
X90042812Y-90623174D01*
X90015374Y-90605862D01*
X89876637Y-90518325D01*
X89871757Y-90515246D01*
X89683898Y-90440298D01*
X89485526Y-90400839D01*
X89479752Y-90400763D01*
X89479748Y-90400763D01*
X89377257Y-90399422D01*
X89283286Y-90398192D01*
X89277589Y-90399171D01*
X89277588Y-90399171D01*
X89089646Y-90431465D01*
X89089645Y-90431465D01*
X89083949Y-90432444D01*
X88894193Y-90502449D01*
X88720371Y-90605862D01*
X88568305Y-90739220D01*
X88443089Y-90898057D01*
X88348914Y-91077053D01*
X88288937Y-91270213D01*
X88265164Y-91471069D01*
X83050500Y-91471069D01*
X83050500Y-88931069D01*
X88265164Y-88931069D01*
X88278392Y-89132894D01*
X88328178Y-89328928D01*
X88412856Y-89512607D01*
X88529588Y-89677780D01*
X88674466Y-89818913D01*
X88842637Y-89931282D01*
X88847940Y-89933560D01*
X88847943Y-89933562D01*
X88936291Y-89971519D01*
X89028470Y-90011122D01*
X89225740Y-90055760D01*
X89231509Y-90055987D01*
X89231512Y-90055987D01*
X89307683Y-90058979D01*
X89427842Y-90063700D01*
X89514132Y-90051189D01*
X89622286Y-90035508D01*
X89622291Y-90035507D01*
X89628007Y-90034678D01*
X89633479Y-90032820D01*
X89633481Y-90032820D01*
X89814067Y-89971519D01*
X89814069Y-89971518D01*
X89819531Y-89969664D01*
X89996001Y-89870837D01*
X90058433Y-89818913D01*
X90147073Y-89745191D01*
X90151505Y-89741505D01*
X90280837Y-89586001D01*
X90379664Y-89409531D01*
X90444678Y-89218007D01*
X90445507Y-89212291D01*
X90445508Y-89212286D01*
X90473167Y-89021516D01*
X90473700Y-89017842D01*
X90475215Y-88960000D01*
X90472557Y-88931069D01*
X111125164Y-88931069D01*
X111138392Y-89132894D01*
X111188178Y-89328928D01*
X111272856Y-89512607D01*
X111389588Y-89677780D01*
X111534466Y-89818913D01*
X111702637Y-89931282D01*
X111707940Y-89933560D01*
X111707943Y-89933562D01*
X111796291Y-89971519D01*
X111888470Y-90011122D01*
X112085740Y-90055760D01*
X112091509Y-90055987D01*
X112091512Y-90055987D01*
X112167683Y-90058979D01*
X112287842Y-90063700D01*
X112374132Y-90051189D01*
X112482286Y-90035508D01*
X112482291Y-90035507D01*
X112488007Y-90034678D01*
X112493479Y-90032820D01*
X112493481Y-90032820D01*
X112674067Y-89971519D01*
X112674069Y-89971518D01*
X112679531Y-89969664D01*
X112856001Y-89870837D01*
X112918433Y-89818913D01*
X113007073Y-89745191D01*
X113011505Y-89741505D01*
X113140837Y-89586001D01*
X113239664Y-89409531D01*
X113304678Y-89218007D01*
X113305507Y-89212291D01*
X113305508Y-89212286D01*
X113333167Y-89021516D01*
X113333700Y-89017842D01*
X113335215Y-88960000D01*
X113316708Y-88758591D01*
X113261807Y-88563926D01*
X113172351Y-88382527D01*
X113154079Y-88358057D01*
X113054788Y-88225091D01*
X113054787Y-88225090D01*
X113051335Y-88220467D01*
X113028350Y-88199220D01*
X112907053Y-88087094D01*
X112907051Y-88087092D01*
X112902812Y-88083174D01*
X112875374Y-88065862D01*
X112736637Y-87978325D01*
X112731757Y-87975246D01*
X112543898Y-87900298D01*
X112345526Y-87860839D01*
X112339752Y-87860763D01*
X112339748Y-87860763D01*
X112237257Y-87859422D01*
X112143286Y-87858192D01*
X112137589Y-87859171D01*
X112137588Y-87859171D01*
X111949646Y-87891465D01*
X111949645Y-87891465D01*
X111943949Y-87892444D01*
X111754193Y-87962449D01*
X111580371Y-88065862D01*
X111428305Y-88199220D01*
X111303089Y-88358057D01*
X111208914Y-88537053D01*
X111148937Y-88730213D01*
X111125164Y-88931069D01*
X90472557Y-88931069D01*
X90456708Y-88758591D01*
X90401807Y-88563926D01*
X90312351Y-88382527D01*
X90294079Y-88358057D01*
X90194788Y-88225091D01*
X90194787Y-88225090D01*
X90191335Y-88220467D01*
X90168350Y-88199220D01*
X90047053Y-88087094D01*
X90047051Y-88087092D01*
X90042812Y-88083174D01*
X90015374Y-88065862D01*
X89876637Y-87978325D01*
X89871757Y-87975246D01*
X89683898Y-87900298D01*
X89485526Y-87860839D01*
X89479752Y-87860763D01*
X89479748Y-87860763D01*
X89377257Y-87859422D01*
X89283286Y-87858192D01*
X89277589Y-87859171D01*
X89277588Y-87859171D01*
X89089646Y-87891465D01*
X89089645Y-87891465D01*
X89083949Y-87892444D01*
X88894193Y-87962449D01*
X88720371Y-88065862D01*
X88568305Y-88199220D01*
X88443089Y-88358057D01*
X88348914Y-88537053D01*
X88288937Y-88730213D01*
X88265164Y-88931069D01*
X83050500Y-88931069D01*
X83050500Y-86391069D01*
X88265164Y-86391069D01*
X88278392Y-86592894D01*
X88328178Y-86788928D01*
X88412856Y-86972607D01*
X88529588Y-87137780D01*
X88674466Y-87278913D01*
X88842637Y-87391282D01*
X88847940Y-87393560D01*
X88847943Y-87393562D01*
X88936291Y-87431519D01*
X89028470Y-87471122D01*
X89225740Y-87515760D01*
X89231509Y-87515987D01*
X89231512Y-87515987D01*
X89307683Y-87518979D01*
X89427842Y-87523700D01*
X89514132Y-87511189D01*
X89622286Y-87495508D01*
X89622291Y-87495507D01*
X89628007Y-87494678D01*
X89633479Y-87492820D01*
X89633481Y-87492820D01*
X89814067Y-87431519D01*
X89814069Y-87431518D01*
X89819531Y-87429664D01*
X89996001Y-87330837D01*
X90058433Y-87278913D01*
X90147073Y-87205191D01*
X90151505Y-87201505D01*
X90280837Y-87046001D01*
X90379664Y-86869531D01*
X90444678Y-86678007D01*
X90445507Y-86672291D01*
X90445508Y-86672286D01*
X90473167Y-86481516D01*
X90473700Y-86477842D01*
X90475215Y-86420000D01*
X90456708Y-86218591D01*
X90401807Y-86023926D01*
X90326590Y-85871401D01*
X90314906Y-85847708D01*
X90312351Y-85842527D01*
X90294079Y-85818057D01*
X90194788Y-85685091D01*
X90194787Y-85685090D01*
X90191335Y-85680467D01*
X90183093Y-85672848D01*
X90047053Y-85547094D01*
X90047051Y-85547092D01*
X90042812Y-85543174D01*
X90015374Y-85525862D01*
X89876637Y-85438325D01*
X89871757Y-85435246D01*
X89683898Y-85360298D01*
X89485526Y-85320839D01*
X89479752Y-85320763D01*
X89479748Y-85320763D01*
X89377257Y-85319422D01*
X89283286Y-85318192D01*
X89277589Y-85319171D01*
X89277588Y-85319171D01*
X89089646Y-85351465D01*
X89089645Y-85351465D01*
X89083949Y-85352444D01*
X88894193Y-85422449D01*
X88889232Y-85425401D01*
X88889231Y-85425401D01*
X88824902Y-85463673D01*
X88720371Y-85525862D01*
X88568305Y-85659220D01*
X88443089Y-85818057D01*
X88348914Y-85997053D01*
X88288937Y-86190213D01*
X88265164Y-86391069D01*
X83050500Y-86391069D01*
X83050500Y-83851069D01*
X88265164Y-83851069D01*
X88278392Y-84052894D01*
X88328178Y-84248928D01*
X88412856Y-84432607D01*
X88529588Y-84597780D01*
X88674466Y-84738913D01*
X88842637Y-84851282D01*
X88847940Y-84853560D01*
X88847943Y-84853562D01*
X88936291Y-84891519D01*
X89028470Y-84931122D01*
X89225740Y-84975760D01*
X89231509Y-84975987D01*
X89231512Y-84975987D01*
X89307683Y-84978979D01*
X89427842Y-84983700D01*
X89514132Y-84971189D01*
X89622286Y-84955508D01*
X89622291Y-84955507D01*
X89628007Y-84954678D01*
X89633479Y-84952820D01*
X89633481Y-84952820D01*
X89814067Y-84891519D01*
X89814069Y-84891518D01*
X89819531Y-84889664D01*
X89996001Y-84790837D01*
X90058433Y-84738913D01*
X90147073Y-84665191D01*
X90151505Y-84661505D01*
X90280837Y-84506001D01*
X90379664Y-84329531D01*
X90379855Y-84328969D01*
X90424747Y-84276155D01*
X90493872Y-84255500D01*
X91722273Y-84255500D01*
X91790394Y-84275502D01*
X91811368Y-84292405D01*
X93137595Y-85618632D01*
X93171621Y-85680944D01*
X93174500Y-85707727D01*
X93174500Y-86792296D01*
X93154498Y-86860417D01*
X93148464Y-86868998D01*
X93069139Y-86972375D01*
X93013670Y-87106291D01*
X92994750Y-87250000D01*
X93013670Y-87393709D01*
X93069139Y-87527625D01*
X93157379Y-87642621D01*
X93272375Y-87730861D01*
X93406291Y-87786330D01*
X93550000Y-87805250D01*
X93693709Y-87786330D01*
X93827625Y-87730861D01*
X93942621Y-87642621D01*
X94030861Y-87527625D01*
X94086330Y-87393709D01*
X94105250Y-87250000D01*
X94086330Y-87106291D01*
X94030861Y-86972375D01*
X93951538Y-86869000D01*
X93925937Y-86802780D01*
X93925500Y-86792296D01*
X93925500Y-86391069D01*
X111125164Y-86391069D01*
X111138392Y-86592894D01*
X111188178Y-86788928D01*
X111272856Y-86972607D01*
X111389588Y-87137780D01*
X111534466Y-87278913D01*
X111702637Y-87391282D01*
X111707940Y-87393560D01*
X111707943Y-87393562D01*
X111796291Y-87431519D01*
X111888470Y-87471122D01*
X112085740Y-87515760D01*
X112091509Y-87515987D01*
X112091512Y-87515987D01*
X112167683Y-87518979D01*
X112287842Y-87523700D01*
X112374132Y-87511189D01*
X112482286Y-87495508D01*
X112482291Y-87495507D01*
X112488007Y-87494678D01*
X112493479Y-87492820D01*
X112493481Y-87492820D01*
X112674067Y-87431519D01*
X112674069Y-87431518D01*
X112679531Y-87429664D01*
X112856001Y-87330837D01*
X112918433Y-87278913D01*
X113007073Y-87205191D01*
X113011505Y-87201505D01*
X113140837Y-87046001D01*
X113239664Y-86869531D01*
X113304678Y-86678007D01*
X113305507Y-86672291D01*
X113305508Y-86672286D01*
X113333167Y-86481516D01*
X113333700Y-86477842D01*
X113335215Y-86420000D01*
X113316708Y-86218591D01*
X113261807Y-86023926D01*
X113186590Y-85871401D01*
X113174906Y-85847708D01*
X113172351Y-85842527D01*
X113154079Y-85818057D01*
X113054788Y-85685091D01*
X113054787Y-85685090D01*
X113051335Y-85680467D01*
X113043093Y-85672848D01*
X112907053Y-85547094D01*
X112907051Y-85547092D01*
X112902812Y-85543174D01*
X112875374Y-85525862D01*
X112736637Y-85438325D01*
X112731757Y-85435246D01*
X112543898Y-85360298D01*
X112345526Y-85320839D01*
X112339752Y-85320763D01*
X112339748Y-85320763D01*
X112237257Y-85319422D01*
X112143286Y-85318192D01*
X112137589Y-85319171D01*
X112137588Y-85319171D01*
X111949646Y-85351465D01*
X111949645Y-85351465D01*
X111943949Y-85352444D01*
X111754193Y-85422449D01*
X111749232Y-85425401D01*
X111749231Y-85425401D01*
X111684902Y-85463673D01*
X111580371Y-85525862D01*
X111428305Y-85659220D01*
X111303089Y-85818057D01*
X111208914Y-85997053D01*
X111148937Y-86190213D01*
X111125164Y-86391069D01*
X93925500Y-86391069D01*
X93925500Y-85553496D01*
X93927979Y-85530199D01*
X93928077Y-85528114D01*
X93930269Y-85517934D01*
X93926373Y-85485016D01*
X93926029Y-85479179D01*
X93925928Y-85479187D01*
X93925500Y-85474008D01*
X93925500Y-85468807D01*
X93922372Y-85450013D01*
X93921535Y-85444137D01*
X93918968Y-85422449D01*
X93915576Y-85393790D01*
X93911654Y-85385623D01*
X93910167Y-85376687D01*
X93905223Y-85367525D01*
X93905222Y-85367521D01*
X93886094Y-85332071D01*
X93883398Y-85326780D01*
X93864897Y-85288251D01*
X93864896Y-85288250D01*
X93861463Y-85281100D01*
X93857906Y-85276869D01*
X93855974Y-85274937D01*
X93854255Y-85273063D01*
X93854181Y-85272926D01*
X93854291Y-85272826D01*
X93853868Y-85272346D01*
X93850806Y-85266671D01*
X93811632Y-85230459D01*
X93808067Y-85227030D01*
X93581037Y-85000000D01*
X114444341Y-85000000D01*
X114464937Y-85235408D01*
X114466361Y-85240722D01*
X114466361Y-85240723D01*
X114522440Y-85450013D01*
X114526097Y-85463663D01*
X114528419Y-85468643D01*
X114528420Y-85468645D01*
X114553724Y-85522908D01*
X114625965Y-85677829D01*
X114761505Y-85871401D01*
X114928599Y-86038495D01*
X115122171Y-86174035D01*
X115127149Y-86176356D01*
X115127152Y-86176358D01*
X115331355Y-86271580D01*
X115336337Y-86273903D01*
X115341645Y-86275325D01*
X115341647Y-86275326D01*
X115559277Y-86333639D01*
X115564592Y-86335063D01*
X115667682Y-86344082D01*
X115738310Y-86350262D01*
X115738317Y-86350262D01*
X115741034Y-86350500D01*
X115858966Y-86350500D01*
X115861683Y-86350262D01*
X115861690Y-86350262D01*
X115932318Y-86344082D01*
X116035408Y-86335063D01*
X116040723Y-86333639D01*
X116258353Y-86275326D01*
X116258355Y-86275325D01*
X116263663Y-86273903D01*
X116268645Y-86271580D01*
X116472848Y-86176358D01*
X116472851Y-86176356D01*
X116477829Y-86174035D01*
X116671401Y-86038495D01*
X116838495Y-85871401D01*
X116841655Y-85866889D01*
X116970878Y-85682339D01*
X116970881Y-85682334D01*
X116974035Y-85677830D01*
X116976358Y-85672848D01*
X116976361Y-85672843D01*
X117071580Y-85468645D01*
X117071581Y-85468644D01*
X117073903Y-85463663D01*
X117077561Y-85450013D01*
X117133639Y-85240723D01*
X117133639Y-85240722D01*
X117135063Y-85235408D01*
X117155659Y-85000000D01*
X117135063Y-84764592D01*
X117129043Y-84742123D01*
X117075326Y-84541647D01*
X117075325Y-84541645D01*
X117073903Y-84536337D01*
X117071580Y-84531355D01*
X116976358Y-84327152D01*
X116976356Y-84327149D01*
X116974035Y-84322171D01*
X116838495Y-84128599D01*
X116671401Y-83961505D01*
X116477829Y-83825965D01*
X116472851Y-83823644D01*
X116472848Y-83823642D01*
X116268645Y-83728420D01*
X116268643Y-83728419D01*
X116263663Y-83726097D01*
X116258355Y-83724675D01*
X116258353Y-83724674D01*
X116040723Y-83666361D01*
X116040722Y-83666361D01*
X116035408Y-83664937D01*
X115932318Y-83655918D01*
X115861690Y-83649738D01*
X115861683Y-83649738D01*
X115858966Y-83649500D01*
X115741034Y-83649500D01*
X115738317Y-83649738D01*
X115738310Y-83649738D01*
X115667682Y-83655918D01*
X115564592Y-83664937D01*
X115559278Y-83666361D01*
X115559277Y-83666361D01*
X115341647Y-83724674D01*
X115341645Y-83724675D01*
X115336337Y-83726097D01*
X115331357Y-83728419D01*
X115331355Y-83728420D01*
X115127152Y-83823642D01*
X115127149Y-83823644D01*
X115122171Y-83825965D01*
X114928599Y-83961505D01*
X114761505Y-84128599D01*
X114758348Y-84133107D01*
X114758346Y-84133110D01*
X114629122Y-84317661D01*
X114625965Y-84322170D01*
X114623642Y-84327152D01*
X114623639Y-84327157D01*
X114576912Y-84427364D01*
X114526097Y-84536337D01*
X114524675Y-84541645D01*
X114524674Y-84541647D01*
X114470957Y-84742123D01*
X114464937Y-84764592D01*
X114444341Y-85000000D01*
X93581037Y-85000000D01*
X92432106Y-83851069D01*
X111125164Y-83851069D01*
X111138392Y-84052894D01*
X111188178Y-84248928D01*
X111272856Y-84432607D01*
X111389588Y-84597780D01*
X111534466Y-84738913D01*
X111702637Y-84851282D01*
X111707940Y-84853560D01*
X111707943Y-84853562D01*
X111796291Y-84891519D01*
X111888470Y-84931122D01*
X112085740Y-84975760D01*
X112091509Y-84975987D01*
X112091512Y-84975987D01*
X112167683Y-84978979D01*
X112287842Y-84983700D01*
X112374132Y-84971189D01*
X112482286Y-84955508D01*
X112482291Y-84955507D01*
X112488007Y-84954678D01*
X112493479Y-84952820D01*
X112493481Y-84952820D01*
X112674067Y-84891519D01*
X112674069Y-84891518D01*
X112679531Y-84889664D01*
X112856001Y-84790837D01*
X112918433Y-84738913D01*
X113007073Y-84665191D01*
X113011505Y-84661505D01*
X113140837Y-84506001D01*
X113239664Y-84329531D01*
X113242163Y-84322171D01*
X113302820Y-84143481D01*
X113302820Y-84143479D01*
X113304678Y-84138007D01*
X113305507Y-84132291D01*
X113305508Y-84132286D01*
X113333167Y-83941516D01*
X113333700Y-83937842D01*
X113335215Y-83880000D01*
X113316708Y-83678591D01*
X113294168Y-83598668D01*
X113279900Y-83548078D01*
X113261807Y-83483926D01*
X113172351Y-83302527D01*
X113154079Y-83278057D01*
X113054788Y-83145091D01*
X113054787Y-83145090D01*
X113051335Y-83140467D01*
X113028350Y-83119220D01*
X112907053Y-83007094D01*
X112907051Y-83007092D01*
X112902812Y-83003174D01*
X112875374Y-82985862D01*
X112736637Y-82898325D01*
X112731757Y-82895246D01*
X112543898Y-82820298D01*
X112345526Y-82780839D01*
X112339752Y-82780763D01*
X112339748Y-82780763D01*
X112237257Y-82779422D01*
X112143286Y-82778192D01*
X112137589Y-82779171D01*
X112137588Y-82779171D01*
X111949646Y-82811465D01*
X111949645Y-82811465D01*
X111943949Y-82812444D01*
X111754193Y-82882449D01*
X111580371Y-82985862D01*
X111428305Y-83119220D01*
X111303089Y-83278057D01*
X111208914Y-83457053D01*
X111148937Y-83650213D01*
X111125164Y-83851069D01*
X92432106Y-83851069D01*
X92233348Y-83652311D01*
X92218623Y-83634080D01*
X92217222Y-83632540D01*
X92211572Y-83623790D01*
X92185535Y-83603264D01*
X92181168Y-83599383D01*
X92181102Y-83599461D01*
X92177144Y-83596107D01*
X92173462Y-83592425D01*
X92169231Y-83589402D01*
X92169228Y-83589399D01*
X92164409Y-83585956D01*
X92157948Y-83581339D01*
X92153212Y-83577783D01*
X92113400Y-83546397D01*
X92104851Y-83543395D01*
X92097481Y-83538128D01*
X92064203Y-83528176D01*
X92048930Y-83523608D01*
X92043286Y-83521774D01*
X92002935Y-83507604D01*
X92002929Y-83507603D01*
X91995452Y-83504977D01*
X91989945Y-83504500D01*
X91987238Y-83504500D01*
X91984665Y-83504389D01*
X91984506Y-83504341D01*
X91984512Y-83504197D01*
X91983892Y-83504158D01*
X91977713Y-83502310D01*
X91924445Y-83504403D01*
X91919498Y-83504500D01*
X90490305Y-83504500D01*
X90422184Y-83484498D01*
X90377299Y-83434229D01*
X90312351Y-83302527D01*
X90294079Y-83278057D01*
X90194788Y-83145091D01*
X90194787Y-83145090D01*
X90191335Y-83140467D01*
X90168350Y-83119220D01*
X90047053Y-83007094D01*
X90047051Y-83007092D01*
X90042812Y-83003174D01*
X90015374Y-82985862D01*
X89876637Y-82898325D01*
X89871757Y-82895246D01*
X89683898Y-82820298D01*
X89485526Y-82780839D01*
X89479752Y-82780763D01*
X89479748Y-82780763D01*
X89377257Y-82779422D01*
X89283286Y-82778192D01*
X89277589Y-82779171D01*
X89277588Y-82779171D01*
X89089646Y-82811465D01*
X89089645Y-82811465D01*
X89083949Y-82812444D01*
X88894193Y-82882449D01*
X88720371Y-82985862D01*
X88568305Y-83119220D01*
X88443089Y-83278057D01*
X88348914Y-83457053D01*
X88288937Y-83650213D01*
X88265164Y-83851069D01*
X83050500Y-83851069D01*
X83050500Y-81311069D01*
X111125164Y-81311069D01*
X111138392Y-81512894D01*
X111188178Y-81708928D01*
X111272856Y-81892607D01*
X111389588Y-82057780D01*
X111534466Y-82198913D01*
X111702637Y-82311282D01*
X111707940Y-82313560D01*
X111707943Y-82313562D01*
X111796291Y-82351519D01*
X111888470Y-82391122D01*
X112085740Y-82435760D01*
X112091509Y-82435987D01*
X112091512Y-82435987D01*
X112167683Y-82438979D01*
X112287842Y-82443700D01*
X112374132Y-82431189D01*
X112482286Y-82415508D01*
X112482291Y-82415507D01*
X112488007Y-82414678D01*
X112493479Y-82412820D01*
X112493481Y-82412820D01*
X112674067Y-82351519D01*
X112674069Y-82351518D01*
X112679531Y-82349664D01*
X112856001Y-82250837D01*
X112918433Y-82198913D01*
X113007073Y-82125191D01*
X113011505Y-82121505D01*
X113140837Y-81966001D01*
X113239664Y-81789531D01*
X113304678Y-81598007D01*
X113305507Y-81592291D01*
X113305508Y-81592286D01*
X113333167Y-81401516D01*
X113333700Y-81397842D01*
X113335215Y-81340000D01*
X113316708Y-81138591D01*
X113261807Y-80943926D01*
X113172351Y-80762527D01*
X113154079Y-80738057D01*
X113054788Y-80605091D01*
X113054787Y-80605090D01*
X113051335Y-80600467D01*
X113028350Y-80579220D01*
X112907053Y-80467094D01*
X112907051Y-80467092D01*
X112902812Y-80463174D01*
X112875374Y-80445862D01*
X112736637Y-80358325D01*
X112731757Y-80355246D01*
X112543898Y-80280298D01*
X112345526Y-80240839D01*
X112339752Y-80240763D01*
X112339748Y-80240763D01*
X112237257Y-80239422D01*
X112143286Y-80238192D01*
X112137589Y-80239171D01*
X112137588Y-80239171D01*
X111949646Y-80271465D01*
X111949645Y-80271465D01*
X111943949Y-80272444D01*
X111754193Y-80342449D01*
X111749232Y-80345401D01*
X111749231Y-80345401D01*
X111603110Y-80432334D01*
X111580371Y-80445862D01*
X111428305Y-80579220D01*
X111303089Y-80738057D01*
X111208914Y-80917053D01*
X111148937Y-81110213D01*
X111125164Y-81311069D01*
X83050500Y-81311069D01*
X83050500Y-79787085D01*
X83052921Y-79762504D01*
X83052987Y-79762173D01*
X83052987Y-79762171D01*
X83055408Y-79750000D01*
X84194341Y-79750000D01*
X84214937Y-79985408D01*
X84276097Y-80213663D01*
X84278419Y-80218643D01*
X84278420Y-80218645D01*
X84343555Y-80358325D01*
X84375965Y-80427829D01*
X84511505Y-80621401D01*
X84678599Y-80788495D01*
X84872171Y-80924035D01*
X84877149Y-80926356D01*
X84877152Y-80926358D01*
X85081355Y-81021580D01*
X85086337Y-81023903D01*
X85091645Y-81025325D01*
X85091647Y-81025326D01*
X85309277Y-81083639D01*
X85314592Y-81085063D01*
X85417682Y-81094082D01*
X85488310Y-81100262D01*
X85488317Y-81100262D01*
X85491034Y-81100500D01*
X85608966Y-81100500D01*
X85611683Y-81100262D01*
X85611690Y-81100262D01*
X85682318Y-81094082D01*
X85785408Y-81085063D01*
X85790723Y-81083639D01*
X86008353Y-81025326D01*
X86008355Y-81025325D01*
X86013663Y-81023903D01*
X86018645Y-81021580D01*
X86222848Y-80926358D01*
X86222851Y-80926356D01*
X86227829Y-80924035D01*
X86421401Y-80788495D01*
X86588495Y-80621401D01*
X86591655Y-80616889D01*
X86720878Y-80432339D01*
X86720881Y-80432334D01*
X86724035Y-80427830D01*
X86726358Y-80422848D01*
X86726361Y-80422843D01*
X86821580Y-80218645D01*
X86821581Y-80218644D01*
X86823903Y-80213663D01*
X86885063Y-79985408D01*
X86905659Y-79750000D01*
X86885063Y-79514592D01*
X86865404Y-79441222D01*
X86825326Y-79291647D01*
X86825325Y-79291645D01*
X86823903Y-79286337D01*
X86766542Y-79163326D01*
X86726358Y-79077152D01*
X86726356Y-79077149D01*
X86724035Y-79072171D01*
X86588495Y-78878599D01*
X86480965Y-78771069D01*
X111125164Y-78771069D01*
X111138392Y-78972894D01*
X111139815Y-78978496D01*
X111183836Y-79151830D01*
X111188178Y-79168928D01*
X111272856Y-79352607D01*
X111276189Y-79357323D01*
X111383579Y-79509277D01*
X111389588Y-79517780D01*
X111534466Y-79658913D01*
X111702637Y-79771282D01*
X111707940Y-79773560D01*
X111707943Y-79773562D01*
X111796291Y-79811519D01*
X111888470Y-79851122D01*
X112085740Y-79895760D01*
X112091509Y-79895987D01*
X112091512Y-79895987D01*
X112167683Y-79898979D01*
X112287842Y-79903700D01*
X112374132Y-79891189D01*
X112482286Y-79875508D01*
X112482291Y-79875507D01*
X112488007Y-79874678D01*
X112493479Y-79872820D01*
X112493481Y-79872820D01*
X112674067Y-79811519D01*
X112674069Y-79811518D01*
X112679531Y-79809664D01*
X112786070Y-79750000D01*
X114694341Y-79750000D01*
X114714937Y-79985408D01*
X114776097Y-80213663D01*
X114778419Y-80218643D01*
X114778420Y-80218645D01*
X114843555Y-80358325D01*
X114875965Y-80427829D01*
X115011505Y-80621401D01*
X115178599Y-80788495D01*
X115372171Y-80924035D01*
X115377149Y-80926356D01*
X115377152Y-80926358D01*
X115581355Y-81021580D01*
X115586337Y-81023903D01*
X115591645Y-81025325D01*
X115591647Y-81025326D01*
X115809277Y-81083639D01*
X115814592Y-81085063D01*
X115917682Y-81094082D01*
X115988310Y-81100262D01*
X115988317Y-81100262D01*
X115991034Y-81100500D01*
X116108966Y-81100500D01*
X116111683Y-81100262D01*
X116111690Y-81100262D01*
X116182318Y-81094082D01*
X116285408Y-81085063D01*
X116290723Y-81083639D01*
X116508353Y-81025326D01*
X116508355Y-81025325D01*
X116513663Y-81023903D01*
X116518645Y-81021580D01*
X116722848Y-80926358D01*
X116722851Y-80926356D01*
X116727829Y-80924035D01*
X116921401Y-80788495D01*
X117088495Y-80621401D01*
X117091655Y-80616889D01*
X117220878Y-80432339D01*
X117220881Y-80432334D01*
X117224035Y-80427830D01*
X117226358Y-80422848D01*
X117226361Y-80422843D01*
X117321580Y-80218645D01*
X117321581Y-80218644D01*
X117323903Y-80213663D01*
X117385063Y-79985408D01*
X117405659Y-79750000D01*
X117385063Y-79514592D01*
X117365404Y-79441222D01*
X117325326Y-79291647D01*
X117325325Y-79291645D01*
X117323903Y-79286337D01*
X117266542Y-79163326D01*
X117226358Y-79077152D01*
X117226356Y-79077149D01*
X117224035Y-79072171D01*
X117088495Y-78878599D01*
X116921401Y-78711505D01*
X116727829Y-78575965D01*
X116722851Y-78573644D01*
X116722848Y-78573642D01*
X116518645Y-78478420D01*
X116518643Y-78478419D01*
X116513663Y-78476097D01*
X116508355Y-78474675D01*
X116508353Y-78474674D01*
X116290723Y-78416361D01*
X116290722Y-78416361D01*
X116285408Y-78414937D01*
X116182318Y-78405918D01*
X116111690Y-78399738D01*
X116111683Y-78399738D01*
X116108966Y-78399500D01*
X115991034Y-78399500D01*
X115988317Y-78399738D01*
X115988310Y-78399738D01*
X115917682Y-78405918D01*
X115814592Y-78414937D01*
X115809278Y-78416361D01*
X115809277Y-78416361D01*
X115591647Y-78474674D01*
X115591645Y-78474675D01*
X115586337Y-78476097D01*
X115581357Y-78478419D01*
X115581355Y-78478420D01*
X115377152Y-78573642D01*
X115377149Y-78573644D01*
X115372171Y-78575965D01*
X115178599Y-78711505D01*
X115011505Y-78878599D01*
X115008348Y-78883107D01*
X115008346Y-78883110D01*
X114945479Y-78972894D01*
X114875965Y-79072170D01*
X114873642Y-79077152D01*
X114873639Y-79077157D01*
X114835322Y-79159328D01*
X114776097Y-79286337D01*
X114774675Y-79291645D01*
X114774674Y-79291647D01*
X114734596Y-79441222D01*
X114714937Y-79514592D01*
X114694341Y-79750000D01*
X112786070Y-79750000D01*
X112829965Y-79725418D01*
X112850964Y-79713658D01*
X112850965Y-79713657D01*
X112856001Y-79710837D01*
X112918433Y-79658913D01*
X113007073Y-79585191D01*
X113011505Y-79581505D01*
X113140837Y-79426001D01*
X113239664Y-79249531D01*
X113298178Y-79077157D01*
X113302820Y-79063481D01*
X113302820Y-79063479D01*
X113304678Y-79058007D01*
X113305507Y-79052291D01*
X113305508Y-79052286D01*
X113331801Y-78870939D01*
X113333700Y-78857842D01*
X113335215Y-78800000D01*
X113316708Y-78598591D01*
X113261807Y-78403926D01*
X113204450Y-78287617D01*
X113174906Y-78227708D01*
X113172351Y-78222527D01*
X113154079Y-78198057D01*
X113054788Y-78065091D01*
X113054787Y-78065090D01*
X113051335Y-78060467D01*
X113028350Y-78039220D01*
X112907053Y-77927094D01*
X112907051Y-77927092D01*
X112902812Y-77923174D01*
X112875374Y-77905862D01*
X112736637Y-77818325D01*
X112731757Y-77815246D01*
X112543898Y-77740298D01*
X112345526Y-77700839D01*
X112339752Y-77700763D01*
X112339748Y-77700763D01*
X112237257Y-77699422D01*
X112143286Y-77698192D01*
X112137589Y-77699171D01*
X112137588Y-77699171D01*
X111949646Y-77731465D01*
X111949645Y-77731465D01*
X111943949Y-77732444D01*
X111754193Y-77802449D01*
X111580371Y-77905862D01*
X111428305Y-78039220D01*
X111303089Y-78198057D01*
X111208914Y-78377053D01*
X111148937Y-78570213D01*
X111125164Y-78771069D01*
X86480965Y-78771069D01*
X86421401Y-78711505D01*
X86227829Y-78575965D01*
X86222851Y-78573644D01*
X86222848Y-78573642D01*
X86018645Y-78478420D01*
X86018643Y-78478419D01*
X86013663Y-78476097D01*
X86008355Y-78474675D01*
X86008353Y-78474674D01*
X85790723Y-78416361D01*
X85790722Y-78416361D01*
X85785408Y-78414937D01*
X85682318Y-78405918D01*
X85611690Y-78399738D01*
X85611683Y-78399738D01*
X85608966Y-78399500D01*
X85491034Y-78399500D01*
X85488317Y-78399738D01*
X85488310Y-78399738D01*
X85417682Y-78405918D01*
X85314592Y-78414937D01*
X85309278Y-78416361D01*
X85309277Y-78416361D01*
X85091647Y-78474674D01*
X85091645Y-78474675D01*
X85086337Y-78476097D01*
X85081357Y-78478419D01*
X85081355Y-78478420D01*
X84877152Y-78573642D01*
X84877149Y-78573644D01*
X84872171Y-78575965D01*
X84678599Y-78711505D01*
X84511505Y-78878599D01*
X84508348Y-78883107D01*
X84508346Y-78883110D01*
X84445479Y-78972894D01*
X84375965Y-79072170D01*
X84373642Y-79077152D01*
X84373639Y-79077157D01*
X84335322Y-79159328D01*
X84276097Y-79286337D01*
X84274675Y-79291645D01*
X84274674Y-79291647D01*
X84234596Y-79441222D01*
X84214937Y-79514592D01*
X84194341Y-79750000D01*
X83055408Y-79750000D01*
X83052986Y-79737827D01*
X83052986Y-79725418D01*
X83053346Y-79725418D01*
X83052626Y-79714842D01*
X83068264Y-79456326D01*
X83070098Y-79441222D01*
X83121757Y-79159328D01*
X83125398Y-79144555D01*
X83206867Y-78883111D01*
X83210662Y-78870934D01*
X83216056Y-78856712D01*
X83279656Y-78715400D01*
X83333675Y-78595374D01*
X83340745Y-78581903D01*
X83489011Y-78336642D01*
X83497654Y-78324121D01*
X83674397Y-78098524D01*
X83684487Y-78087135D01*
X83887135Y-77884487D01*
X83898524Y-77874397D01*
X84124121Y-77697654D01*
X84136642Y-77689011D01*
X84381903Y-77540745D01*
X84395376Y-77533674D01*
X84656716Y-77416054D01*
X84670934Y-77410662D01*
X84944555Y-77325398D01*
X84959328Y-77321757D01*
X85241222Y-77270098D01*
X85256326Y-77268264D01*
X85355628Y-77262257D01*
X85514844Y-77252626D01*
X85525418Y-77253346D01*
X85525418Y-77252986D01*
X85537827Y-77252986D01*
X85550000Y-77255408D01*
X85562171Y-77252987D01*
X85562173Y-77252987D01*
X85562504Y-77252921D01*
X85587085Y-77250500D01*
X116012915Y-77250500D01*
X116037496Y-77252921D01*
G37*
%TD.AperFunction*%
%TD*%
%TA.AperFunction,Conductor*%
%TO.N,+5V*%
G36*
X117737121Y-105555002D02*
G01*
X117783614Y-105608658D01*
X117795000Y-105661000D01*
X117795000Y-116585000D01*
X117774998Y-116653121D01*
X117721342Y-116699614D01*
X117669000Y-116711000D01*
X116143000Y-116711000D01*
X116074879Y-116690998D01*
X116028386Y-116637342D01*
X116017000Y-116585000D01*
X116017000Y-107948000D01*
X111190000Y-107948000D01*
X111121879Y-107927998D01*
X111075386Y-107874342D01*
X111064000Y-107822000D01*
X111064000Y-105661000D01*
X111084002Y-105592879D01*
X111137658Y-105546386D01*
X111190000Y-105535000D01*
X117669000Y-105535000D01*
X117737121Y-105555002D01*
G37*
%TD.AperFunction*%
%TD*%
M02*
