%TF.GenerationSoftware,KiCad,Pcbnew,(6.0.10)*%
%TF.CreationDate,2023-01-02T18:23:20+01:00*%
%TF.ProjectId,sniffer,736e6966-6665-4722-9e6b-696361645f70,rev?*%
%TF.SameCoordinates,Original*%
%TF.FileFunction,Drillmap*%
%TF.FilePolarity,Positive*%
%FSLAX45Y45*%
G04 Gerber Fmt 4.5, Leading zero omitted, Abs format (unit mm)*
G04 Created by KiCad (PCBNEW (6.0.10)) date 2023-01-02 18:23:20*
%MOMM*%
%LPD*%
G01*
G04 APERTURE LIST*
%ADD10C,0.050000*%
%ADD11C,0.200000*%
%ADD12C,0.030000*%
%ADD13C,0.070000*%
%ADD14C,0.100000*%
G04 APERTURE END LIST*
D10*
X8280000Y-12325000D02*
G75*
G03*
X8830000Y-12325000I275000J0D01*
G01*
X11330000Y-12325000D02*
G75*
G03*
X11880000Y-12325000I275000J0D01*
G01*
X11880000Y-7975000D02*
G75*
G03*
X11605000Y-7700000I-275000J0D01*
G01*
X8555000Y-7700000D02*
G75*
G03*
X8280000Y-7975000I0J-275000D01*
G01*
X11330000Y-12200000D02*
G75*
G03*
X11230000Y-12100000I-100000J0D01*
G01*
X10430000Y-12100000D02*
G75*
G03*
X10330000Y-12200000I0J-100000D01*
G01*
X9805000Y-12200000D02*
G75*
G03*
X9705000Y-12100000I-100000J0D01*
G01*
X8930000Y-12100000D02*
G75*
G03*
X8830000Y-12200000I0J-100000D01*
G01*
X8930000Y-12100000D02*
X9705000Y-12100000D01*
X8830000Y-12325000D02*
X8830000Y-12200000D01*
X11330000Y-12200000D02*
X11330000Y-12325000D01*
X10430000Y-12100000D02*
X11230000Y-12100000D01*
X10330000Y-12600000D02*
X10330000Y-12200000D01*
X9805000Y-12600000D02*
X10330000Y-12600000D01*
X9805000Y-12200000D02*
X9805000Y-12600000D01*
X8280000Y-12325000D02*
X8280000Y-7975000D01*
X11880000Y-7975000D02*
X11880000Y-12325000D01*
X8555000Y-7700000D02*
X11605000Y-7700000D01*
D11*
D12*
X9265000Y-8785000D02*
X9295000Y-8815000D01*
X9295000Y-8785000D02*
X9265000Y-8815000D01*
X9340000Y-8710000D02*
X9370000Y-8740000D01*
X9370000Y-8710000D02*
X9340000Y-8740000D01*
X9340000Y-12010000D02*
X9370000Y-12040000D01*
X9370000Y-12010000D02*
X9340000Y-12040000D01*
X9415000Y-8785000D02*
X9445000Y-8815000D01*
X9445000Y-8785000D02*
X9415000Y-8815000D01*
X9415000Y-10560000D02*
X9445000Y-10590000D01*
X9445000Y-10560000D02*
X9415000Y-10590000D01*
X9465000Y-11210000D02*
X9495000Y-11240000D01*
X9495000Y-11210000D02*
X9465000Y-11240000D01*
X9540000Y-11885000D02*
X9570000Y-11915000D01*
X9570000Y-11885000D02*
X9540000Y-11915000D01*
X9590000Y-10660000D02*
X9620000Y-10690000D01*
X9620000Y-10660000D02*
X9590000Y-10690000D01*
X9615000Y-11310000D02*
X9645000Y-11340000D01*
X9645000Y-11310000D02*
X9615000Y-11340000D01*
X9990000Y-11960000D02*
X10020000Y-11990000D01*
X10020000Y-11960000D02*
X9990000Y-11990000D01*
X10190000Y-11585000D02*
X10220000Y-11615000D01*
X10220000Y-11585000D02*
X10190000Y-11615000D01*
X10190000Y-12235000D02*
X10220000Y-12265000D01*
X10220000Y-12235000D02*
X10190000Y-12265000D01*
X10240000Y-11485000D02*
X10270000Y-11515000D01*
X10270000Y-11485000D02*
X10240000Y-11515000D01*
X10290000Y-11385000D02*
X10320000Y-11415000D01*
X10320000Y-11385000D02*
X10290000Y-11415000D01*
X10465000Y-8935000D02*
X10495000Y-8965000D01*
X10495000Y-8935000D02*
X10465000Y-8965000D01*
X10690000Y-11560000D02*
X10720000Y-11590000D01*
X10720000Y-11560000D02*
X10690000Y-11590000D01*
X10940000Y-11760000D02*
X10970000Y-11790000D01*
X10970000Y-11760000D02*
X10940000Y-11790000D01*
X10990000Y-8235000D02*
X11020000Y-8265000D01*
X11020000Y-8235000D02*
X10990000Y-8265000D01*
X10990000Y-8760000D02*
X11020000Y-8790000D01*
X11020000Y-8760000D02*
X10990000Y-8790000D01*
X11065000Y-11835000D02*
X11095000Y-11865000D01*
X11095000Y-11835000D02*
X11065000Y-11865000D01*
X11090000Y-9510000D02*
X11120000Y-9540000D01*
X11120000Y-9510000D02*
X11090000Y-9540000D01*
X11215000Y-10860000D02*
X11245000Y-10890000D01*
X11245000Y-10860000D02*
X11215000Y-10890000D01*
X11215000Y-11835000D02*
X11245000Y-11865000D01*
X11245000Y-11835000D02*
X11215000Y-11865000D01*
X11340000Y-10035000D02*
X11370000Y-10065000D01*
X11370000Y-10035000D02*
X11340000Y-10065000D01*
X11365000Y-9785000D02*
X11395000Y-9815000D01*
X11395000Y-9785000D02*
X11365000Y-9815000D01*
X11677900Y-11430400D02*
X11707900Y-11460400D01*
X11707900Y-11430400D02*
X11677900Y-11460400D01*
X11677900Y-11519300D02*
X11707900Y-11549300D01*
X11707900Y-11519300D02*
X11677900Y-11549300D01*
X11677900Y-11608200D02*
X11707900Y-11638200D01*
X11707900Y-11608200D02*
X11677900Y-11638200D01*
D13*
X11205000Y-11046000D02*
G75*
G03*
X11205000Y-11046000I-35000J0D01*
G01*
X11205000Y-11173000D02*
G75*
G03*
X11205000Y-11173000I-35000J0D01*
G01*
X11205000Y-11300000D02*
G75*
G03*
X11205000Y-11300000I-35000J0D01*
G01*
X11205000Y-11427000D02*
G75*
G03*
X11205000Y-11427000I-35000J0D01*
G01*
X11205000Y-11554000D02*
G75*
G03*
X11205000Y-11554000I-35000J0D01*
G01*
X11332000Y-11046000D02*
G75*
G03*
X11332000Y-11046000I-35000J0D01*
G01*
X11332000Y-11173000D02*
G75*
G03*
X11332000Y-11173000I-35000J0D01*
G01*
X11332000Y-11300000D02*
G75*
G03*
X11332000Y-11300000I-35000J0D01*
G01*
X11332000Y-11427000D02*
G75*
G03*
X11332000Y-11427000I-35000J0D01*
G01*
X11332000Y-11554000D02*
G75*
G03*
X11332000Y-11554000I-35000J0D01*
G01*
D14*
X8937000Y-7830000D02*
X8937000Y-7930000D01*
X8887000Y-7880000D02*
X8987000Y-7880000D01*
X8937000Y-8084000D02*
X8937000Y-8184000D01*
X8887000Y-8134000D02*
X8987000Y-8134000D01*
X8937000Y-8338000D02*
X8937000Y-8438000D01*
X8887000Y-8388000D02*
X8987000Y-8388000D01*
X8937000Y-8592000D02*
X8937000Y-8692000D01*
X8887000Y-8642000D02*
X8987000Y-8642000D01*
X8937000Y-8846000D02*
X8937000Y-8946000D01*
X8887000Y-8896000D02*
X8987000Y-8896000D01*
X8937000Y-9100000D02*
X8937000Y-9200000D01*
X8887000Y-9150000D02*
X8987000Y-9150000D01*
X8937000Y-9354000D02*
X8937000Y-9454000D01*
X8887000Y-9404000D02*
X8987000Y-9404000D01*
X8937000Y-9608000D02*
X8937000Y-9708000D01*
X8887000Y-9658000D02*
X8987000Y-9658000D01*
X8937000Y-9862000D02*
X8937000Y-9962000D01*
X8887000Y-9912000D02*
X8987000Y-9912000D01*
X8937000Y-10116000D02*
X8937000Y-10216000D01*
X8887000Y-10166000D02*
X8987000Y-10166000D01*
X8937000Y-10370000D02*
X8937000Y-10470000D01*
X8887000Y-10420000D02*
X8987000Y-10420000D01*
X8937000Y-10624000D02*
X8937000Y-10724000D01*
X8887000Y-10674000D02*
X8987000Y-10674000D01*
X11223000Y-7830000D02*
X11223000Y-7930000D01*
X11173000Y-7880000D02*
X11273000Y-7880000D01*
X11223000Y-8084000D02*
X11223000Y-8184000D01*
X11173000Y-8134000D02*
X11273000Y-8134000D01*
X11223000Y-8338000D02*
X11223000Y-8438000D01*
X11173000Y-8388000D02*
X11273000Y-8388000D01*
X11223000Y-8592000D02*
X11223000Y-8692000D01*
X11173000Y-8642000D02*
X11273000Y-8642000D01*
X11223000Y-8846000D02*
X11223000Y-8946000D01*
X11173000Y-8896000D02*
X11273000Y-8896000D01*
X11223000Y-9100000D02*
X11223000Y-9200000D01*
X11173000Y-9150000D02*
X11273000Y-9150000D01*
X11223000Y-9354000D02*
X11223000Y-9454000D01*
X11173000Y-9404000D02*
X11273000Y-9404000D01*
X11223000Y-9608000D02*
X11223000Y-9708000D01*
X11173000Y-9658000D02*
X11273000Y-9658000D01*
X11223000Y-9862000D02*
X11223000Y-9962000D01*
X11173000Y-9912000D02*
X11273000Y-9912000D01*
X11223000Y-10116000D02*
X11223000Y-10216000D01*
X11173000Y-10166000D02*
X11273000Y-10166000D01*
X11223000Y-10370000D02*
X11223000Y-10470000D01*
X11173000Y-10420000D02*
X11273000Y-10420000D01*
X11223000Y-10624000D02*
X11223000Y-10724000D01*
X11173000Y-10674000D02*
X11273000Y-10674000D01*
D11*
X8535119Y-12912976D02*
X8535119Y-12712976D01*
X8582738Y-12712976D01*
X8611310Y-12722500D01*
X8630357Y-12741548D01*
X8639881Y-12760595D01*
X8649405Y-12798690D01*
X8649405Y-12827262D01*
X8639881Y-12865357D01*
X8630357Y-12884405D01*
X8611310Y-12903452D01*
X8582738Y-12912976D01*
X8535119Y-12912976D01*
X8735119Y-12912976D02*
X8735119Y-12779643D01*
X8735119Y-12817738D02*
X8744643Y-12798690D01*
X8754167Y-12789167D01*
X8773214Y-12779643D01*
X8792262Y-12779643D01*
X8858929Y-12912976D02*
X8858929Y-12779643D01*
X8858929Y-12712976D02*
X8849405Y-12722500D01*
X8858929Y-12732024D01*
X8868452Y-12722500D01*
X8858929Y-12712976D01*
X8858929Y-12732024D01*
X8982738Y-12912976D02*
X8963690Y-12903452D01*
X8954167Y-12884405D01*
X8954167Y-12712976D01*
X9087500Y-12912976D02*
X9068452Y-12903452D01*
X9058929Y-12884405D01*
X9058929Y-12712976D01*
X9316071Y-12912976D02*
X9316071Y-12712976D01*
X9382738Y-12855833D01*
X9449405Y-12712976D01*
X9449405Y-12912976D01*
X9630357Y-12912976D02*
X9630357Y-12808214D01*
X9620833Y-12789167D01*
X9601786Y-12779643D01*
X9563690Y-12779643D01*
X9544643Y-12789167D01*
X9630357Y-12903452D02*
X9611310Y-12912976D01*
X9563690Y-12912976D01*
X9544643Y-12903452D01*
X9535119Y-12884405D01*
X9535119Y-12865357D01*
X9544643Y-12846309D01*
X9563690Y-12836786D01*
X9611310Y-12836786D01*
X9630357Y-12827262D01*
X9725595Y-12779643D02*
X9725595Y-12979643D01*
X9725595Y-12789167D02*
X9744643Y-12779643D01*
X9782738Y-12779643D01*
X9801786Y-12789167D01*
X9811310Y-12798690D01*
X9820833Y-12817738D01*
X9820833Y-12874881D01*
X9811310Y-12893928D01*
X9801786Y-12903452D01*
X9782738Y-12912976D01*
X9744643Y-12912976D01*
X9725595Y-12903452D01*
X9906548Y-12893928D02*
X9916071Y-12903452D01*
X9906548Y-12912976D01*
X9897024Y-12903452D01*
X9906548Y-12893928D01*
X9906548Y-12912976D01*
X9906548Y-12789167D02*
X9916071Y-12798690D01*
X9906548Y-12808214D01*
X9897024Y-12798690D01*
X9906548Y-12789167D01*
X9906548Y-12808214D01*
D12*
X8247500Y-13227500D02*
X8277500Y-13257500D01*
X8277500Y-13227500D02*
X8247500Y-13257500D01*
D11*
X8573214Y-13132976D02*
X8592262Y-13132976D01*
X8611310Y-13142500D01*
X8620833Y-13152024D01*
X8630357Y-13171071D01*
X8639881Y-13209167D01*
X8639881Y-13256786D01*
X8630357Y-13294881D01*
X8620833Y-13313928D01*
X8611310Y-13323452D01*
X8592262Y-13332976D01*
X8573214Y-13332976D01*
X8554167Y-13323452D01*
X8544643Y-13313928D01*
X8535119Y-13294881D01*
X8525595Y-13256786D01*
X8525595Y-13209167D01*
X8535119Y-13171071D01*
X8544643Y-13152024D01*
X8554167Y-13142500D01*
X8573214Y-13132976D01*
X8725595Y-13313928D02*
X8735119Y-13323452D01*
X8725595Y-13332976D01*
X8716071Y-13323452D01*
X8725595Y-13313928D01*
X8725595Y-13332976D01*
X8801786Y-13132976D02*
X8925595Y-13132976D01*
X8858929Y-13209167D01*
X8887500Y-13209167D01*
X8906548Y-13218690D01*
X8916071Y-13228214D01*
X8925595Y-13247262D01*
X8925595Y-13294881D01*
X8916071Y-13313928D01*
X8906548Y-13323452D01*
X8887500Y-13332976D01*
X8830357Y-13332976D01*
X8811310Y-13323452D01*
X8801786Y-13313928D01*
X9049405Y-13132976D02*
X9068452Y-13132976D01*
X9087500Y-13142500D01*
X9097024Y-13152024D01*
X9106548Y-13171071D01*
X9116071Y-13209167D01*
X9116071Y-13256786D01*
X9106548Y-13294881D01*
X9097024Y-13313928D01*
X9087500Y-13323452D01*
X9068452Y-13332976D01*
X9049405Y-13332976D01*
X9030357Y-13323452D01*
X9020833Y-13313928D01*
X9011310Y-13294881D01*
X9001786Y-13256786D01*
X9001786Y-13209167D01*
X9011310Y-13171071D01*
X9020833Y-13152024D01*
X9030357Y-13142500D01*
X9049405Y-13132976D01*
X9239881Y-13132976D02*
X9258929Y-13132976D01*
X9277976Y-13142500D01*
X9287500Y-13152024D01*
X9297024Y-13171071D01*
X9306548Y-13209167D01*
X9306548Y-13256786D01*
X9297024Y-13294881D01*
X9287500Y-13313928D01*
X9277976Y-13323452D01*
X9258929Y-13332976D01*
X9239881Y-13332976D01*
X9220833Y-13323452D01*
X9211310Y-13313928D01*
X9201786Y-13294881D01*
X9192262Y-13256786D01*
X9192262Y-13209167D01*
X9201786Y-13171071D01*
X9211310Y-13152024D01*
X9220833Y-13142500D01*
X9239881Y-13132976D01*
X9392262Y-13332976D02*
X9392262Y-13199643D01*
X9392262Y-13218690D02*
X9401786Y-13209167D01*
X9420833Y-13199643D01*
X9449405Y-13199643D01*
X9468452Y-13209167D01*
X9477976Y-13228214D01*
X9477976Y-13332976D01*
X9477976Y-13228214D02*
X9487500Y-13209167D01*
X9506548Y-13199643D01*
X9535119Y-13199643D01*
X9554167Y-13209167D01*
X9563690Y-13228214D01*
X9563690Y-13332976D01*
X9658929Y-13332976D02*
X9658929Y-13199643D01*
X9658929Y-13218690D02*
X9668452Y-13209167D01*
X9687500Y-13199643D01*
X9716071Y-13199643D01*
X9735119Y-13209167D01*
X9744643Y-13228214D01*
X9744643Y-13332976D01*
X9744643Y-13228214D02*
X9754167Y-13209167D01*
X9773214Y-13199643D01*
X9801786Y-13199643D01*
X9820833Y-13209167D01*
X9830357Y-13228214D01*
X9830357Y-13332976D01*
X10220833Y-13123452D02*
X10049405Y-13380595D01*
X10477976Y-13132976D02*
X10497024Y-13132976D01*
X10516071Y-13142500D01*
X10525595Y-13152024D01*
X10535119Y-13171071D01*
X10544643Y-13209167D01*
X10544643Y-13256786D01*
X10535119Y-13294881D01*
X10525595Y-13313928D01*
X10516071Y-13323452D01*
X10497024Y-13332976D01*
X10477976Y-13332976D01*
X10458929Y-13323452D01*
X10449405Y-13313928D01*
X10439881Y-13294881D01*
X10430357Y-13256786D01*
X10430357Y-13209167D01*
X10439881Y-13171071D01*
X10449405Y-13152024D01*
X10458929Y-13142500D01*
X10477976Y-13132976D01*
X10630357Y-13313928D02*
X10639881Y-13323452D01*
X10630357Y-13332976D01*
X10620833Y-13323452D01*
X10630357Y-13313928D01*
X10630357Y-13332976D01*
X10763690Y-13132976D02*
X10782738Y-13132976D01*
X10801786Y-13142500D01*
X10811310Y-13152024D01*
X10820833Y-13171071D01*
X10830357Y-13209167D01*
X10830357Y-13256786D01*
X10820833Y-13294881D01*
X10811310Y-13313928D01*
X10801786Y-13323452D01*
X10782738Y-13332976D01*
X10763690Y-13332976D01*
X10744643Y-13323452D01*
X10735119Y-13313928D01*
X10725595Y-13294881D01*
X10716071Y-13256786D01*
X10716071Y-13209167D01*
X10725595Y-13171071D01*
X10735119Y-13152024D01*
X10744643Y-13142500D01*
X10763690Y-13132976D01*
X11020833Y-13332976D02*
X10906548Y-13332976D01*
X10963690Y-13332976D02*
X10963690Y-13132976D01*
X10944643Y-13161548D01*
X10925595Y-13180595D01*
X10906548Y-13190119D01*
X11211309Y-13332976D02*
X11097024Y-13332976D01*
X11154167Y-13332976D02*
X11154167Y-13132976D01*
X11135119Y-13161548D01*
X11116071Y-13180595D01*
X11097024Y-13190119D01*
X11325595Y-13218690D02*
X11306548Y-13209167D01*
X11297024Y-13199643D01*
X11287500Y-13180595D01*
X11287500Y-13171071D01*
X11297024Y-13152024D01*
X11306548Y-13142500D01*
X11325595Y-13132976D01*
X11363690Y-13132976D01*
X11382738Y-13142500D01*
X11392262Y-13152024D01*
X11401786Y-13171071D01*
X11401786Y-13180595D01*
X11392262Y-13199643D01*
X11382738Y-13209167D01*
X11363690Y-13218690D01*
X11325595Y-13218690D01*
X11306548Y-13228214D01*
X11297024Y-13237738D01*
X11287500Y-13256786D01*
X11287500Y-13294881D01*
X11297024Y-13313928D01*
X11306548Y-13323452D01*
X11325595Y-13332976D01*
X11363690Y-13332976D01*
X11382738Y-13323452D01*
X11392262Y-13313928D01*
X11401786Y-13294881D01*
X11401786Y-13256786D01*
X11392262Y-13237738D01*
X11382738Y-13228214D01*
X11363690Y-13218690D01*
X11477976Y-13132976D02*
X11477976Y-13171071D01*
X11554167Y-13132976D02*
X11554167Y-13171071D01*
X11849405Y-13409167D02*
X11839881Y-13399643D01*
X11820833Y-13371071D01*
X11811309Y-13352024D01*
X11801786Y-13323452D01*
X11792262Y-13275833D01*
X11792262Y-13237738D01*
X11801786Y-13190119D01*
X11811309Y-13161548D01*
X11820833Y-13142500D01*
X11839881Y-13113928D01*
X11849405Y-13104405D01*
X11916071Y-13152024D02*
X11925595Y-13142500D01*
X11944643Y-13132976D01*
X11992262Y-13132976D01*
X12011309Y-13142500D01*
X12020833Y-13152024D01*
X12030357Y-13171071D01*
X12030357Y-13190119D01*
X12020833Y-13218690D01*
X11906548Y-13332976D01*
X12030357Y-13332976D01*
X12144643Y-13218690D02*
X12125595Y-13209167D01*
X12116071Y-13199643D01*
X12106548Y-13180595D01*
X12106548Y-13171071D01*
X12116071Y-13152024D01*
X12125595Y-13142500D01*
X12144643Y-13132976D01*
X12182738Y-13132976D01*
X12201786Y-13142500D01*
X12211309Y-13152024D01*
X12220833Y-13171071D01*
X12220833Y-13180595D01*
X12211309Y-13199643D01*
X12201786Y-13209167D01*
X12182738Y-13218690D01*
X12144643Y-13218690D01*
X12125595Y-13228214D01*
X12116071Y-13237738D01*
X12106548Y-13256786D01*
X12106548Y-13294881D01*
X12116071Y-13313928D01*
X12125595Y-13323452D01*
X12144643Y-13332976D01*
X12182738Y-13332976D01*
X12201786Y-13323452D01*
X12211309Y-13313928D01*
X12220833Y-13294881D01*
X12220833Y-13256786D01*
X12211309Y-13237738D01*
X12201786Y-13228214D01*
X12182738Y-13218690D01*
X12458928Y-13332976D02*
X12458928Y-13132976D01*
X12544643Y-13332976D02*
X12544643Y-13228214D01*
X12535119Y-13209167D01*
X12516071Y-13199643D01*
X12487500Y-13199643D01*
X12468452Y-13209167D01*
X12458928Y-13218690D01*
X12668452Y-13332976D02*
X12649405Y-13323452D01*
X12639881Y-13313928D01*
X12630357Y-13294881D01*
X12630357Y-13237738D01*
X12639881Y-13218690D01*
X12649405Y-13209167D01*
X12668452Y-13199643D01*
X12697024Y-13199643D01*
X12716071Y-13209167D01*
X12725595Y-13218690D01*
X12735119Y-13237738D01*
X12735119Y-13294881D01*
X12725595Y-13313928D01*
X12716071Y-13323452D01*
X12697024Y-13332976D01*
X12668452Y-13332976D01*
X12849405Y-13332976D02*
X12830357Y-13323452D01*
X12820833Y-13304405D01*
X12820833Y-13132976D01*
X13001786Y-13323452D02*
X12982738Y-13332976D01*
X12944643Y-13332976D01*
X12925595Y-13323452D01*
X12916071Y-13304405D01*
X12916071Y-13228214D01*
X12925595Y-13209167D01*
X12944643Y-13199643D01*
X12982738Y-13199643D01*
X13001786Y-13209167D01*
X13011309Y-13228214D01*
X13011309Y-13247262D01*
X12916071Y-13266309D01*
X13087500Y-13323452D02*
X13106548Y-13332976D01*
X13144643Y-13332976D01*
X13163690Y-13323452D01*
X13173214Y-13304405D01*
X13173214Y-13294881D01*
X13163690Y-13275833D01*
X13144643Y-13266309D01*
X13116071Y-13266309D01*
X13097024Y-13256786D01*
X13087500Y-13237738D01*
X13087500Y-13228214D01*
X13097024Y-13209167D01*
X13116071Y-13199643D01*
X13144643Y-13199643D01*
X13163690Y-13209167D01*
X13239881Y-13409167D02*
X13249405Y-13399643D01*
X13268452Y-13371071D01*
X13277976Y-13352024D01*
X13287500Y-13323452D01*
X13297024Y-13275833D01*
X13297024Y-13237738D01*
X13287500Y-13190119D01*
X13277976Y-13161548D01*
X13268452Y-13142500D01*
X13249405Y-13113928D01*
X13239881Y-13104405D01*
D13*
X8277500Y-13506500D02*
G75*
G03*
X8277500Y-13506500I-35000J0D01*
G01*
D11*
X8573214Y-13396976D02*
X8592262Y-13396976D01*
X8611310Y-13406500D01*
X8620833Y-13416024D01*
X8630357Y-13435071D01*
X8639881Y-13473167D01*
X8639881Y-13520786D01*
X8630357Y-13558881D01*
X8620833Y-13577928D01*
X8611310Y-13587452D01*
X8592262Y-13596976D01*
X8573214Y-13596976D01*
X8554167Y-13587452D01*
X8544643Y-13577928D01*
X8535119Y-13558881D01*
X8525595Y-13520786D01*
X8525595Y-13473167D01*
X8535119Y-13435071D01*
X8544643Y-13416024D01*
X8554167Y-13406500D01*
X8573214Y-13396976D01*
X8725595Y-13577928D02*
X8735119Y-13587452D01*
X8725595Y-13596976D01*
X8716071Y-13587452D01*
X8725595Y-13577928D01*
X8725595Y-13596976D01*
X8801786Y-13396976D02*
X8935119Y-13396976D01*
X8849405Y-13596976D01*
X9049405Y-13396976D02*
X9068452Y-13396976D01*
X9087500Y-13406500D01*
X9097024Y-13416024D01*
X9106548Y-13435071D01*
X9116071Y-13473167D01*
X9116071Y-13520786D01*
X9106548Y-13558881D01*
X9097024Y-13577928D01*
X9087500Y-13587452D01*
X9068452Y-13596976D01*
X9049405Y-13596976D01*
X9030357Y-13587452D01*
X9020833Y-13577928D01*
X9011310Y-13558881D01*
X9001786Y-13520786D01*
X9001786Y-13473167D01*
X9011310Y-13435071D01*
X9020833Y-13416024D01*
X9030357Y-13406500D01*
X9049405Y-13396976D01*
X9239881Y-13396976D02*
X9258929Y-13396976D01*
X9277976Y-13406500D01*
X9287500Y-13416024D01*
X9297024Y-13435071D01*
X9306548Y-13473167D01*
X9306548Y-13520786D01*
X9297024Y-13558881D01*
X9287500Y-13577928D01*
X9277976Y-13587452D01*
X9258929Y-13596976D01*
X9239881Y-13596976D01*
X9220833Y-13587452D01*
X9211310Y-13577928D01*
X9201786Y-13558881D01*
X9192262Y-13520786D01*
X9192262Y-13473167D01*
X9201786Y-13435071D01*
X9211310Y-13416024D01*
X9220833Y-13406500D01*
X9239881Y-13396976D01*
X9392262Y-13596976D02*
X9392262Y-13463643D01*
X9392262Y-13482690D02*
X9401786Y-13473167D01*
X9420833Y-13463643D01*
X9449405Y-13463643D01*
X9468452Y-13473167D01*
X9477976Y-13492214D01*
X9477976Y-13596976D01*
X9477976Y-13492214D02*
X9487500Y-13473167D01*
X9506548Y-13463643D01*
X9535119Y-13463643D01*
X9554167Y-13473167D01*
X9563690Y-13492214D01*
X9563690Y-13596976D01*
X9658929Y-13596976D02*
X9658929Y-13463643D01*
X9658929Y-13482690D02*
X9668452Y-13473167D01*
X9687500Y-13463643D01*
X9716071Y-13463643D01*
X9735119Y-13473167D01*
X9744643Y-13492214D01*
X9744643Y-13596976D01*
X9744643Y-13492214D02*
X9754167Y-13473167D01*
X9773214Y-13463643D01*
X9801786Y-13463643D01*
X9820833Y-13473167D01*
X9830357Y-13492214D01*
X9830357Y-13596976D01*
X10220833Y-13387452D02*
X10049405Y-13644595D01*
X10477976Y-13396976D02*
X10497024Y-13396976D01*
X10516071Y-13406500D01*
X10525595Y-13416024D01*
X10535119Y-13435071D01*
X10544643Y-13473167D01*
X10544643Y-13520786D01*
X10535119Y-13558881D01*
X10525595Y-13577928D01*
X10516071Y-13587452D01*
X10497024Y-13596976D01*
X10477976Y-13596976D01*
X10458929Y-13587452D01*
X10449405Y-13577928D01*
X10439881Y-13558881D01*
X10430357Y-13520786D01*
X10430357Y-13473167D01*
X10439881Y-13435071D01*
X10449405Y-13416024D01*
X10458929Y-13406500D01*
X10477976Y-13396976D01*
X10630357Y-13577928D02*
X10639881Y-13587452D01*
X10630357Y-13596976D01*
X10620833Y-13587452D01*
X10630357Y-13577928D01*
X10630357Y-13596976D01*
X10763690Y-13396976D02*
X10782738Y-13396976D01*
X10801786Y-13406500D01*
X10811310Y-13416024D01*
X10820833Y-13435071D01*
X10830357Y-13473167D01*
X10830357Y-13520786D01*
X10820833Y-13558881D01*
X10811310Y-13577928D01*
X10801786Y-13587452D01*
X10782738Y-13596976D01*
X10763690Y-13596976D01*
X10744643Y-13587452D01*
X10735119Y-13577928D01*
X10725595Y-13558881D01*
X10716071Y-13520786D01*
X10716071Y-13473167D01*
X10725595Y-13435071D01*
X10735119Y-13416024D01*
X10744643Y-13406500D01*
X10763690Y-13396976D01*
X10906548Y-13416024D02*
X10916071Y-13406500D01*
X10935119Y-13396976D01*
X10982738Y-13396976D01*
X11001786Y-13406500D01*
X11011310Y-13416024D01*
X11020833Y-13435071D01*
X11020833Y-13454119D01*
X11011310Y-13482690D01*
X10897024Y-13596976D01*
X11020833Y-13596976D01*
X11087500Y-13396976D02*
X11220833Y-13396976D01*
X11135119Y-13596976D01*
X11382738Y-13396976D02*
X11344643Y-13396976D01*
X11325595Y-13406500D01*
X11316071Y-13416024D01*
X11297024Y-13444595D01*
X11287500Y-13482690D01*
X11287500Y-13558881D01*
X11297024Y-13577928D01*
X11306548Y-13587452D01*
X11325595Y-13596976D01*
X11363690Y-13596976D01*
X11382738Y-13587452D01*
X11392262Y-13577928D01*
X11401786Y-13558881D01*
X11401786Y-13511262D01*
X11392262Y-13492214D01*
X11382738Y-13482690D01*
X11363690Y-13473167D01*
X11325595Y-13473167D01*
X11306548Y-13482690D01*
X11297024Y-13492214D01*
X11287500Y-13511262D01*
X11477976Y-13396976D02*
X11477976Y-13435071D01*
X11554167Y-13396976D02*
X11554167Y-13435071D01*
X11849405Y-13673167D02*
X11839881Y-13663643D01*
X11820833Y-13635071D01*
X11811309Y-13616024D01*
X11801786Y-13587452D01*
X11792262Y-13539833D01*
X11792262Y-13501738D01*
X11801786Y-13454119D01*
X11811309Y-13425548D01*
X11820833Y-13406500D01*
X11839881Y-13377928D01*
X11849405Y-13368405D01*
X12030357Y-13596976D02*
X11916071Y-13596976D01*
X11973214Y-13596976D02*
X11973214Y-13396976D01*
X11954167Y-13425548D01*
X11935119Y-13444595D01*
X11916071Y-13454119D01*
X12154167Y-13396976D02*
X12173214Y-13396976D01*
X12192262Y-13406500D01*
X12201786Y-13416024D01*
X12211309Y-13435071D01*
X12220833Y-13473167D01*
X12220833Y-13520786D01*
X12211309Y-13558881D01*
X12201786Y-13577928D01*
X12192262Y-13587452D01*
X12173214Y-13596976D01*
X12154167Y-13596976D01*
X12135119Y-13587452D01*
X12125595Y-13577928D01*
X12116071Y-13558881D01*
X12106548Y-13520786D01*
X12106548Y-13473167D01*
X12116071Y-13435071D01*
X12125595Y-13416024D01*
X12135119Y-13406500D01*
X12154167Y-13396976D01*
X12458928Y-13596976D02*
X12458928Y-13396976D01*
X12544643Y-13596976D02*
X12544643Y-13492214D01*
X12535119Y-13473167D01*
X12516071Y-13463643D01*
X12487500Y-13463643D01*
X12468452Y-13473167D01*
X12458928Y-13482690D01*
X12668452Y-13596976D02*
X12649405Y-13587452D01*
X12639881Y-13577928D01*
X12630357Y-13558881D01*
X12630357Y-13501738D01*
X12639881Y-13482690D01*
X12649405Y-13473167D01*
X12668452Y-13463643D01*
X12697024Y-13463643D01*
X12716071Y-13473167D01*
X12725595Y-13482690D01*
X12735119Y-13501738D01*
X12735119Y-13558881D01*
X12725595Y-13577928D01*
X12716071Y-13587452D01*
X12697024Y-13596976D01*
X12668452Y-13596976D01*
X12849405Y-13596976D02*
X12830357Y-13587452D01*
X12820833Y-13568405D01*
X12820833Y-13396976D01*
X13001786Y-13587452D02*
X12982738Y-13596976D01*
X12944643Y-13596976D01*
X12925595Y-13587452D01*
X12916071Y-13568405D01*
X12916071Y-13492214D01*
X12925595Y-13473167D01*
X12944643Y-13463643D01*
X12982738Y-13463643D01*
X13001786Y-13473167D01*
X13011309Y-13492214D01*
X13011309Y-13511262D01*
X12916071Y-13530309D01*
X13087500Y-13587452D02*
X13106548Y-13596976D01*
X13144643Y-13596976D01*
X13163690Y-13587452D01*
X13173214Y-13568405D01*
X13173214Y-13558881D01*
X13163690Y-13539833D01*
X13144643Y-13530309D01*
X13116071Y-13530309D01*
X13097024Y-13520786D01*
X13087500Y-13501738D01*
X13087500Y-13492214D01*
X13097024Y-13473167D01*
X13116071Y-13463643D01*
X13144643Y-13463643D01*
X13163690Y-13473167D01*
X13239881Y-13673167D02*
X13249405Y-13663643D01*
X13268452Y-13635071D01*
X13277976Y-13616024D01*
X13287500Y-13587452D01*
X13297024Y-13539833D01*
X13297024Y-13501738D01*
X13287500Y-13454119D01*
X13277976Y-13425548D01*
X13268452Y-13406500D01*
X13249405Y-13377928D01*
X13239881Y-13368405D01*
D14*
X8227500Y-13720500D02*
X8227500Y-13820500D01*
X8177500Y-13770500D02*
X8277500Y-13770500D01*
D11*
X8639881Y-13860976D02*
X8525595Y-13860976D01*
X8582738Y-13860976D02*
X8582738Y-13660976D01*
X8563690Y-13689548D01*
X8544643Y-13708595D01*
X8525595Y-13718119D01*
X8725595Y-13841928D02*
X8735119Y-13851452D01*
X8725595Y-13860976D01*
X8716071Y-13851452D01*
X8725595Y-13841928D01*
X8725595Y-13860976D01*
X8858929Y-13660976D02*
X8877976Y-13660976D01*
X8897024Y-13670500D01*
X8906548Y-13680024D01*
X8916071Y-13699071D01*
X8925595Y-13737167D01*
X8925595Y-13784786D01*
X8916071Y-13822881D01*
X8906548Y-13841928D01*
X8897024Y-13851452D01*
X8877976Y-13860976D01*
X8858929Y-13860976D01*
X8839881Y-13851452D01*
X8830357Y-13841928D01*
X8820833Y-13822881D01*
X8811310Y-13784786D01*
X8811310Y-13737167D01*
X8820833Y-13699071D01*
X8830357Y-13680024D01*
X8839881Y-13670500D01*
X8858929Y-13660976D01*
X9049405Y-13660976D02*
X9068452Y-13660976D01*
X9087500Y-13670500D01*
X9097024Y-13680024D01*
X9106548Y-13699071D01*
X9116071Y-13737167D01*
X9116071Y-13784786D01*
X9106548Y-13822881D01*
X9097024Y-13841928D01*
X9087500Y-13851452D01*
X9068452Y-13860976D01*
X9049405Y-13860976D01*
X9030357Y-13851452D01*
X9020833Y-13841928D01*
X9011310Y-13822881D01*
X9001786Y-13784786D01*
X9001786Y-13737167D01*
X9011310Y-13699071D01*
X9020833Y-13680024D01*
X9030357Y-13670500D01*
X9049405Y-13660976D01*
X9239881Y-13660976D02*
X9258929Y-13660976D01*
X9277976Y-13670500D01*
X9287500Y-13680024D01*
X9297024Y-13699071D01*
X9306548Y-13737167D01*
X9306548Y-13784786D01*
X9297024Y-13822881D01*
X9287500Y-13841928D01*
X9277976Y-13851452D01*
X9258929Y-13860976D01*
X9239881Y-13860976D01*
X9220833Y-13851452D01*
X9211310Y-13841928D01*
X9201786Y-13822881D01*
X9192262Y-13784786D01*
X9192262Y-13737167D01*
X9201786Y-13699071D01*
X9211310Y-13680024D01*
X9220833Y-13670500D01*
X9239881Y-13660976D01*
X9392262Y-13860976D02*
X9392262Y-13727643D01*
X9392262Y-13746690D02*
X9401786Y-13737167D01*
X9420833Y-13727643D01*
X9449405Y-13727643D01*
X9468452Y-13737167D01*
X9477976Y-13756214D01*
X9477976Y-13860976D01*
X9477976Y-13756214D02*
X9487500Y-13737167D01*
X9506548Y-13727643D01*
X9535119Y-13727643D01*
X9554167Y-13737167D01*
X9563690Y-13756214D01*
X9563690Y-13860976D01*
X9658929Y-13860976D02*
X9658929Y-13727643D01*
X9658929Y-13746690D02*
X9668452Y-13737167D01*
X9687500Y-13727643D01*
X9716071Y-13727643D01*
X9735119Y-13737167D01*
X9744643Y-13756214D01*
X9744643Y-13860976D01*
X9744643Y-13756214D02*
X9754167Y-13737167D01*
X9773214Y-13727643D01*
X9801786Y-13727643D01*
X9820833Y-13737167D01*
X9830357Y-13756214D01*
X9830357Y-13860976D01*
X10220833Y-13651452D02*
X10049405Y-13908595D01*
X10477976Y-13660976D02*
X10497024Y-13660976D01*
X10516071Y-13670500D01*
X10525595Y-13680024D01*
X10535119Y-13699071D01*
X10544643Y-13737167D01*
X10544643Y-13784786D01*
X10535119Y-13822881D01*
X10525595Y-13841928D01*
X10516071Y-13851452D01*
X10497024Y-13860976D01*
X10477976Y-13860976D01*
X10458929Y-13851452D01*
X10449405Y-13841928D01*
X10439881Y-13822881D01*
X10430357Y-13784786D01*
X10430357Y-13737167D01*
X10439881Y-13699071D01*
X10449405Y-13680024D01*
X10458929Y-13670500D01*
X10477976Y-13660976D01*
X10630357Y-13841928D02*
X10639881Y-13851452D01*
X10630357Y-13860976D01*
X10620833Y-13851452D01*
X10630357Y-13841928D01*
X10630357Y-13860976D01*
X10763690Y-13660976D02*
X10782738Y-13660976D01*
X10801786Y-13670500D01*
X10811310Y-13680024D01*
X10820833Y-13699071D01*
X10830357Y-13737167D01*
X10830357Y-13784786D01*
X10820833Y-13822881D01*
X10811310Y-13841928D01*
X10801786Y-13851452D01*
X10782738Y-13860976D01*
X10763690Y-13860976D01*
X10744643Y-13851452D01*
X10735119Y-13841928D01*
X10725595Y-13822881D01*
X10716071Y-13784786D01*
X10716071Y-13737167D01*
X10725595Y-13699071D01*
X10735119Y-13680024D01*
X10744643Y-13670500D01*
X10763690Y-13660976D01*
X10897024Y-13660976D02*
X11020833Y-13660976D01*
X10954167Y-13737167D01*
X10982738Y-13737167D01*
X11001786Y-13746690D01*
X11011310Y-13756214D01*
X11020833Y-13775262D01*
X11020833Y-13822881D01*
X11011310Y-13841928D01*
X11001786Y-13851452D01*
X10982738Y-13860976D01*
X10925595Y-13860976D01*
X10906548Y-13851452D01*
X10897024Y-13841928D01*
X11116071Y-13860976D02*
X11154167Y-13860976D01*
X11173214Y-13851452D01*
X11182738Y-13841928D01*
X11201786Y-13813357D01*
X11211309Y-13775262D01*
X11211309Y-13699071D01*
X11201786Y-13680024D01*
X11192262Y-13670500D01*
X11173214Y-13660976D01*
X11135119Y-13660976D01*
X11116071Y-13670500D01*
X11106548Y-13680024D01*
X11097024Y-13699071D01*
X11097024Y-13746690D01*
X11106548Y-13765738D01*
X11116071Y-13775262D01*
X11135119Y-13784786D01*
X11173214Y-13784786D01*
X11192262Y-13775262D01*
X11201786Y-13765738D01*
X11211309Y-13746690D01*
X11382738Y-13727643D02*
X11382738Y-13860976D01*
X11335119Y-13651452D02*
X11287500Y-13794309D01*
X11411309Y-13794309D01*
X11477976Y-13660976D02*
X11477976Y-13699071D01*
X11554167Y-13660976D02*
X11554167Y-13699071D01*
X11849405Y-13937167D02*
X11839881Y-13927643D01*
X11820833Y-13899071D01*
X11811309Y-13880024D01*
X11801786Y-13851452D01*
X11792262Y-13803833D01*
X11792262Y-13765738D01*
X11801786Y-13718119D01*
X11811309Y-13689548D01*
X11820833Y-13670500D01*
X11839881Y-13641928D01*
X11849405Y-13632405D01*
X11916071Y-13680024D02*
X11925595Y-13670500D01*
X11944643Y-13660976D01*
X11992262Y-13660976D01*
X12011309Y-13670500D01*
X12020833Y-13680024D01*
X12030357Y-13699071D01*
X12030357Y-13718119D01*
X12020833Y-13746690D01*
X11906548Y-13860976D01*
X12030357Y-13860976D01*
X12201786Y-13727643D02*
X12201786Y-13860976D01*
X12154167Y-13651452D02*
X12106548Y-13794309D01*
X12230357Y-13794309D01*
X12458928Y-13860976D02*
X12458928Y-13660976D01*
X12544643Y-13860976D02*
X12544643Y-13756214D01*
X12535119Y-13737167D01*
X12516071Y-13727643D01*
X12487500Y-13727643D01*
X12468452Y-13737167D01*
X12458928Y-13746690D01*
X12668452Y-13860976D02*
X12649405Y-13851452D01*
X12639881Y-13841928D01*
X12630357Y-13822881D01*
X12630357Y-13765738D01*
X12639881Y-13746690D01*
X12649405Y-13737167D01*
X12668452Y-13727643D01*
X12697024Y-13727643D01*
X12716071Y-13737167D01*
X12725595Y-13746690D01*
X12735119Y-13765738D01*
X12735119Y-13822881D01*
X12725595Y-13841928D01*
X12716071Y-13851452D01*
X12697024Y-13860976D01*
X12668452Y-13860976D01*
X12849405Y-13860976D02*
X12830357Y-13851452D01*
X12820833Y-13832405D01*
X12820833Y-13660976D01*
X13001786Y-13851452D02*
X12982738Y-13860976D01*
X12944643Y-13860976D01*
X12925595Y-13851452D01*
X12916071Y-13832405D01*
X12916071Y-13756214D01*
X12925595Y-13737167D01*
X12944643Y-13727643D01*
X12982738Y-13727643D01*
X13001786Y-13737167D01*
X13011309Y-13756214D01*
X13011309Y-13775262D01*
X12916071Y-13794309D01*
X13087500Y-13851452D02*
X13106548Y-13860976D01*
X13144643Y-13860976D01*
X13163690Y-13851452D01*
X13173214Y-13832405D01*
X13173214Y-13822881D01*
X13163690Y-13803833D01*
X13144643Y-13794309D01*
X13116071Y-13794309D01*
X13097024Y-13784786D01*
X13087500Y-13765738D01*
X13087500Y-13756214D01*
X13097024Y-13737167D01*
X13116071Y-13727643D01*
X13144643Y-13727643D01*
X13163690Y-13737167D01*
X13239881Y-13937167D02*
X13249405Y-13927643D01*
X13268452Y-13899071D01*
X13277976Y-13880024D01*
X13287500Y-13851452D01*
X13297024Y-13803833D01*
X13297024Y-13765738D01*
X13287500Y-13718119D01*
X13277976Y-13689548D01*
X13268452Y-13670500D01*
X13249405Y-13641928D01*
X13239881Y-13632405D01*
M02*
