%TF.GenerationSoftware,KiCad,Pcbnew,(6.0.10)*%
%TF.CreationDate,2023-01-02T18:23:20+01:00*%
%TF.ProjectId,sniffer,736e6966-6665-4722-9e6b-696361645f70,rev?*%
%TF.SameCoordinates,Original*%
%TF.FileFunction,Drillmap*%
%TF.FilePolarity,Positive*%
%FSLAX45Y45*%
G04 Gerber Fmt 4.5, Leading zero omitted, Abs format (unit mm)*
G04 Created by KiCad (PCBNEW (6.0.10)) date 2023-01-02 18:23:20*
%MOMM*%
%LPD*%
G01*
G04 APERTURE LIST*
%ADD10C,0.050000*%
%ADD11C,0.200000*%
%ADD12C,0.220000*%
G04 APERTURE END LIST*
D10*
X8280000Y-12325000D02*
G75*
G03*
X8830000Y-12325000I275000J0D01*
G01*
X11330000Y-12325000D02*
G75*
G03*
X11880000Y-12325000I275000J0D01*
G01*
X11880000Y-7975000D02*
G75*
G03*
X11605000Y-7700000I-275000J0D01*
G01*
X8555000Y-7700000D02*
G75*
G03*
X8280000Y-7975000I0J-275000D01*
G01*
X11330000Y-12200000D02*
G75*
G03*
X11230000Y-12100000I-100000J0D01*
G01*
X10430000Y-12100000D02*
G75*
G03*
X10330000Y-12200000I0J-100000D01*
G01*
X9805000Y-12200000D02*
G75*
G03*
X9705000Y-12100000I-100000J0D01*
G01*
X8930000Y-12100000D02*
G75*
G03*
X8830000Y-12200000I0J-100000D01*
G01*
X8930000Y-12100000D02*
X9705000Y-12100000D01*
X8830000Y-12325000D02*
X8830000Y-12200000D01*
X11330000Y-12200000D02*
X11330000Y-12325000D01*
X10430000Y-12100000D02*
X11230000Y-12100000D01*
X10330000Y-12600000D02*
X10330000Y-12200000D01*
X9805000Y-12600000D02*
X10330000Y-12600000D01*
X9805000Y-12200000D02*
X9805000Y-12600000D01*
X8280000Y-12325000D02*
X8280000Y-7975000D01*
X11880000Y-7975000D02*
X11880000Y-12325000D01*
X8555000Y-7700000D02*
X11605000Y-7700000D01*
D11*
D12*
X8445000Y-7865000D02*
X8665000Y-8085000D01*
X8665000Y-7865000D02*
X8445000Y-8085000D01*
X8445000Y-12215000D02*
X8665000Y-12435000D01*
X8665000Y-12215000D02*
X8445000Y-12435000D01*
X8470000Y-11690000D02*
X8690000Y-11910000D01*
X8690000Y-11690000D02*
X8470000Y-11910000D01*
X11470000Y-8390000D02*
X11690000Y-8610000D01*
X11690000Y-8390000D02*
X11470000Y-8610000D01*
X11495000Y-7865000D02*
X11715000Y-8085000D01*
X11715000Y-7865000D02*
X11495000Y-8085000D01*
X11495000Y-12215000D02*
X11715000Y-12435000D01*
X11715000Y-12215000D02*
X11495000Y-12435000D01*
D11*
X8535119Y-12912976D02*
X8535119Y-12712976D01*
X8582738Y-12712976D01*
X8611310Y-12722500D01*
X8630357Y-12741548D01*
X8639881Y-12760595D01*
X8649405Y-12798690D01*
X8649405Y-12827262D01*
X8639881Y-12865357D01*
X8630357Y-12884405D01*
X8611310Y-12903452D01*
X8582738Y-12912976D01*
X8535119Y-12912976D01*
X8735119Y-12912976D02*
X8735119Y-12779643D01*
X8735119Y-12817738D02*
X8744643Y-12798690D01*
X8754167Y-12789167D01*
X8773214Y-12779643D01*
X8792262Y-12779643D01*
X8858929Y-12912976D02*
X8858929Y-12779643D01*
X8858929Y-12712976D02*
X8849405Y-12722500D01*
X8858929Y-12732024D01*
X8868452Y-12722500D01*
X8858929Y-12712976D01*
X8858929Y-12732024D01*
X8982738Y-12912976D02*
X8963690Y-12903452D01*
X8954167Y-12884405D01*
X8954167Y-12712976D01*
X9087500Y-12912976D02*
X9068452Y-12903452D01*
X9058929Y-12884405D01*
X9058929Y-12712976D01*
X9316071Y-12912976D02*
X9316071Y-12712976D01*
X9382738Y-12855833D01*
X9449405Y-12712976D01*
X9449405Y-12912976D01*
X9630357Y-12912976D02*
X9630357Y-12808214D01*
X9620833Y-12789167D01*
X9601786Y-12779643D01*
X9563690Y-12779643D01*
X9544643Y-12789167D01*
X9630357Y-12903452D02*
X9611310Y-12912976D01*
X9563690Y-12912976D01*
X9544643Y-12903452D01*
X9535119Y-12884405D01*
X9535119Y-12865357D01*
X9544643Y-12846309D01*
X9563690Y-12836786D01*
X9611310Y-12836786D01*
X9630357Y-12827262D01*
X9725595Y-12779643D02*
X9725595Y-12979643D01*
X9725595Y-12789167D02*
X9744643Y-12779643D01*
X9782738Y-12779643D01*
X9801786Y-12789167D01*
X9811310Y-12798690D01*
X9820833Y-12817738D01*
X9820833Y-12874881D01*
X9811310Y-12893928D01*
X9801786Y-12903452D01*
X9782738Y-12912976D01*
X9744643Y-12912976D01*
X9725595Y-12903452D01*
X9906548Y-12893928D02*
X9916071Y-12903452D01*
X9906548Y-12912976D01*
X9897024Y-12903452D01*
X9906548Y-12893928D01*
X9906548Y-12912976D01*
X9906548Y-12789167D02*
X9916071Y-12798690D01*
X9906548Y-12808214D01*
X9897024Y-12798690D01*
X9906548Y-12789167D01*
X9906548Y-12808214D01*
X8077500Y-13142500D02*
X8277500Y-13342500D01*
X8277500Y-13142500D02*
X8077500Y-13342500D01*
X8525595Y-13152024D02*
X8535119Y-13142500D01*
X8554167Y-13132976D01*
X8601786Y-13132976D01*
X8620833Y-13142500D01*
X8630357Y-13152024D01*
X8639881Y-13171071D01*
X8639881Y-13190119D01*
X8630357Y-13218690D01*
X8516071Y-13332976D01*
X8639881Y-13332976D01*
X8725595Y-13313928D02*
X8735119Y-13323452D01*
X8725595Y-13332976D01*
X8716071Y-13323452D01*
X8725595Y-13313928D01*
X8725595Y-13332976D01*
X8811310Y-13152024D02*
X8820833Y-13142500D01*
X8839881Y-13132976D01*
X8887500Y-13132976D01*
X8906548Y-13142500D01*
X8916071Y-13152024D01*
X8925595Y-13171071D01*
X8925595Y-13190119D01*
X8916071Y-13218690D01*
X8801786Y-13332976D01*
X8925595Y-13332976D01*
X9049405Y-13132976D02*
X9068452Y-13132976D01*
X9087500Y-13142500D01*
X9097024Y-13152024D01*
X9106548Y-13171071D01*
X9116071Y-13209167D01*
X9116071Y-13256786D01*
X9106548Y-13294881D01*
X9097024Y-13313928D01*
X9087500Y-13323452D01*
X9068452Y-13332976D01*
X9049405Y-13332976D01*
X9030357Y-13323452D01*
X9020833Y-13313928D01*
X9011310Y-13294881D01*
X9001786Y-13256786D01*
X9001786Y-13209167D01*
X9011310Y-13171071D01*
X9020833Y-13152024D01*
X9030357Y-13142500D01*
X9049405Y-13132976D01*
X9239881Y-13132976D02*
X9258929Y-13132976D01*
X9277976Y-13142500D01*
X9287500Y-13152024D01*
X9297024Y-13171071D01*
X9306548Y-13209167D01*
X9306548Y-13256786D01*
X9297024Y-13294881D01*
X9287500Y-13313928D01*
X9277976Y-13323452D01*
X9258929Y-13332976D01*
X9239881Y-13332976D01*
X9220833Y-13323452D01*
X9211310Y-13313928D01*
X9201786Y-13294881D01*
X9192262Y-13256786D01*
X9192262Y-13209167D01*
X9201786Y-13171071D01*
X9211310Y-13152024D01*
X9220833Y-13142500D01*
X9239881Y-13132976D01*
X9392262Y-13332976D02*
X9392262Y-13199643D01*
X9392262Y-13218690D02*
X9401786Y-13209167D01*
X9420833Y-13199643D01*
X9449405Y-13199643D01*
X9468452Y-13209167D01*
X9477976Y-13228214D01*
X9477976Y-13332976D01*
X9477976Y-13228214D02*
X9487500Y-13209167D01*
X9506548Y-13199643D01*
X9535119Y-13199643D01*
X9554167Y-13209167D01*
X9563690Y-13228214D01*
X9563690Y-13332976D01*
X9658929Y-13332976D02*
X9658929Y-13199643D01*
X9658929Y-13218690D02*
X9668452Y-13209167D01*
X9687500Y-13199643D01*
X9716071Y-13199643D01*
X9735119Y-13209167D01*
X9744643Y-13228214D01*
X9744643Y-13332976D01*
X9744643Y-13228214D02*
X9754167Y-13209167D01*
X9773214Y-13199643D01*
X9801786Y-13199643D01*
X9820833Y-13209167D01*
X9830357Y-13228214D01*
X9830357Y-13332976D01*
X10220833Y-13123452D02*
X10049405Y-13380595D01*
X10477976Y-13132976D02*
X10497024Y-13132976D01*
X10516071Y-13142500D01*
X10525595Y-13152024D01*
X10535119Y-13171071D01*
X10544643Y-13209167D01*
X10544643Y-13256786D01*
X10535119Y-13294881D01*
X10525595Y-13313928D01*
X10516071Y-13323452D01*
X10497024Y-13332976D01*
X10477976Y-13332976D01*
X10458929Y-13323452D01*
X10449405Y-13313928D01*
X10439881Y-13294881D01*
X10430357Y-13256786D01*
X10430357Y-13209167D01*
X10439881Y-13171071D01*
X10449405Y-13152024D01*
X10458929Y-13142500D01*
X10477976Y-13132976D01*
X10630357Y-13313928D02*
X10639881Y-13323452D01*
X10630357Y-13332976D01*
X10620833Y-13323452D01*
X10630357Y-13313928D01*
X10630357Y-13332976D01*
X10763690Y-13132976D02*
X10782738Y-13132976D01*
X10801786Y-13142500D01*
X10811310Y-13152024D01*
X10820833Y-13171071D01*
X10830357Y-13209167D01*
X10830357Y-13256786D01*
X10820833Y-13294881D01*
X10811310Y-13313928D01*
X10801786Y-13323452D01*
X10782738Y-13332976D01*
X10763690Y-13332976D01*
X10744643Y-13323452D01*
X10735119Y-13313928D01*
X10725595Y-13294881D01*
X10716071Y-13256786D01*
X10716071Y-13209167D01*
X10725595Y-13171071D01*
X10735119Y-13152024D01*
X10744643Y-13142500D01*
X10763690Y-13132976D01*
X10944643Y-13218690D02*
X10925595Y-13209167D01*
X10916071Y-13199643D01*
X10906548Y-13180595D01*
X10906548Y-13171071D01*
X10916071Y-13152024D01*
X10925595Y-13142500D01*
X10944643Y-13132976D01*
X10982738Y-13132976D01*
X11001786Y-13142500D01*
X11011310Y-13152024D01*
X11020833Y-13171071D01*
X11020833Y-13180595D01*
X11011310Y-13199643D01*
X11001786Y-13209167D01*
X10982738Y-13218690D01*
X10944643Y-13218690D01*
X10925595Y-13228214D01*
X10916071Y-13237738D01*
X10906548Y-13256786D01*
X10906548Y-13294881D01*
X10916071Y-13313928D01*
X10925595Y-13323452D01*
X10944643Y-13332976D01*
X10982738Y-13332976D01*
X11001786Y-13323452D01*
X11011310Y-13313928D01*
X11020833Y-13294881D01*
X11020833Y-13256786D01*
X11011310Y-13237738D01*
X11001786Y-13228214D01*
X10982738Y-13218690D01*
X11192262Y-13132976D02*
X11154167Y-13132976D01*
X11135119Y-13142500D01*
X11125595Y-13152024D01*
X11106548Y-13180595D01*
X11097024Y-13218690D01*
X11097024Y-13294881D01*
X11106548Y-13313928D01*
X11116071Y-13323452D01*
X11135119Y-13332976D01*
X11173214Y-13332976D01*
X11192262Y-13323452D01*
X11201786Y-13313928D01*
X11211309Y-13294881D01*
X11211309Y-13247262D01*
X11201786Y-13228214D01*
X11192262Y-13218690D01*
X11173214Y-13209167D01*
X11135119Y-13209167D01*
X11116071Y-13218690D01*
X11106548Y-13228214D01*
X11097024Y-13247262D01*
X11382738Y-13132976D02*
X11344643Y-13132976D01*
X11325595Y-13142500D01*
X11316071Y-13152024D01*
X11297024Y-13180595D01*
X11287500Y-13218690D01*
X11287500Y-13294881D01*
X11297024Y-13313928D01*
X11306548Y-13323452D01*
X11325595Y-13332976D01*
X11363690Y-13332976D01*
X11382738Y-13323452D01*
X11392262Y-13313928D01*
X11401786Y-13294881D01*
X11401786Y-13247262D01*
X11392262Y-13228214D01*
X11382738Y-13218690D01*
X11363690Y-13209167D01*
X11325595Y-13209167D01*
X11306548Y-13218690D01*
X11297024Y-13228214D01*
X11287500Y-13247262D01*
X11477976Y-13132976D02*
X11477976Y-13171071D01*
X11554167Y-13132976D02*
X11554167Y-13171071D01*
X11849405Y-13409167D02*
X11839881Y-13399643D01*
X11820833Y-13371071D01*
X11811309Y-13352024D01*
X11801786Y-13323452D01*
X11792262Y-13275833D01*
X11792262Y-13237738D01*
X11801786Y-13190119D01*
X11811309Y-13161548D01*
X11820833Y-13142500D01*
X11839881Y-13113928D01*
X11849405Y-13104405D01*
X12011309Y-13132976D02*
X11973214Y-13132976D01*
X11954167Y-13142500D01*
X11944643Y-13152024D01*
X11925595Y-13180595D01*
X11916071Y-13218690D01*
X11916071Y-13294881D01*
X11925595Y-13313928D01*
X11935119Y-13323452D01*
X11954167Y-13332976D01*
X11992262Y-13332976D01*
X12011309Y-13323452D01*
X12020833Y-13313928D01*
X12030357Y-13294881D01*
X12030357Y-13247262D01*
X12020833Y-13228214D01*
X12011309Y-13218690D01*
X11992262Y-13209167D01*
X11954167Y-13209167D01*
X11935119Y-13218690D01*
X11925595Y-13228214D01*
X11916071Y-13247262D01*
X12268452Y-13332976D02*
X12268452Y-13132976D01*
X12354167Y-13332976D02*
X12354167Y-13228214D01*
X12344643Y-13209167D01*
X12325595Y-13199643D01*
X12297024Y-13199643D01*
X12277976Y-13209167D01*
X12268452Y-13218690D01*
X12477976Y-13332976D02*
X12458928Y-13323452D01*
X12449405Y-13313928D01*
X12439881Y-13294881D01*
X12439881Y-13237738D01*
X12449405Y-13218690D01*
X12458928Y-13209167D01*
X12477976Y-13199643D01*
X12506548Y-13199643D01*
X12525595Y-13209167D01*
X12535119Y-13218690D01*
X12544643Y-13237738D01*
X12544643Y-13294881D01*
X12535119Y-13313928D01*
X12525595Y-13323452D01*
X12506548Y-13332976D01*
X12477976Y-13332976D01*
X12658928Y-13332976D02*
X12639881Y-13323452D01*
X12630357Y-13304405D01*
X12630357Y-13132976D01*
X12811309Y-13323452D02*
X12792262Y-13332976D01*
X12754167Y-13332976D01*
X12735119Y-13323452D01*
X12725595Y-13304405D01*
X12725595Y-13228214D01*
X12735119Y-13209167D01*
X12754167Y-13199643D01*
X12792262Y-13199643D01*
X12811309Y-13209167D01*
X12820833Y-13228214D01*
X12820833Y-13247262D01*
X12725595Y-13266309D01*
X12897024Y-13323452D02*
X12916071Y-13332976D01*
X12954167Y-13332976D01*
X12973214Y-13323452D01*
X12982738Y-13304405D01*
X12982738Y-13294881D01*
X12973214Y-13275833D01*
X12954167Y-13266309D01*
X12925595Y-13266309D01*
X12906548Y-13256786D01*
X12897024Y-13237738D01*
X12897024Y-13228214D01*
X12906548Y-13209167D01*
X12925595Y-13199643D01*
X12954167Y-13199643D01*
X12973214Y-13209167D01*
X13049405Y-13409167D02*
X13058928Y-13399643D01*
X13077976Y-13371071D01*
X13087500Y-13352024D01*
X13097024Y-13323452D01*
X13106548Y-13275833D01*
X13106548Y-13237738D01*
X13097024Y-13190119D01*
X13087500Y-13161548D01*
X13077976Y-13142500D01*
X13058928Y-13113928D01*
X13049405Y-13104405D01*
X13411309Y-13409167D02*
X13401786Y-13399643D01*
X13382738Y-13371071D01*
X13373214Y-13352024D01*
X13363690Y-13323452D01*
X13354167Y-13275833D01*
X13354167Y-13237738D01*
X13363690Y-13190119D01*
X13373214Y-13161548D01*
X13382738Y-13142500D01*
X13401786Y-13113928D01*
X13411309Y-13104405D01*
X13487500Y-13199643D02*
X13487500Y-13332976D01*
X13487500Y-13218690D02*
X13497024Y-13209167D01*
X13516071Y-13199643D01*
X13544643Y-13199643D01*
X13563690Y-13209167D01*
X13573214Y-13228214D01*
X13573214Y-13332976D01*
X13697024Y-13332976D02*
X13677976Y-13323452D01*
X13668452Y-13313928D01*
X13658928Y-13294881D01*
X13658928Y-13237738D01*
X13668452Y-13218690D01*
X13677976Y-13209167D01*
X13697024Y-13199643D01*
X13725595Y-13199643D01*
X13744643Y-13209167D01*
X13754167Y-13218690D01*
X13763690Y-13237738D01*
X13763690Y-13294881D01*
X13754167Y-13313928D01*
X13744643Y-13323452D01*
X13725595Y-13332976D01*
X13697024Y-13332976D01*
X13820833Y-13199643D02*
X13897024Y-13199643D01*
X13849405Y-13132976D02*
X13849405Y-13304405D01*
X13858928Y-13323452D01*
X13877976Y-13332976D01*
X13897024Y-13332976D01*
X14116071Y-13199643D02*
X14116071Y-13399643D01*
X14116071Y-13209167D02*
X14135119Y-13199643D01*
X14173214Y-13199643D01*
X14192262Y-13209167D01*
X14201786Y-13218690D01*
X14211309Y-13237738D01*
X14211309Y-13294881D01*
X14201786Y-13313928D01*
X14192262Y-13323452D01*
X14173214Y-13332976D01*
X14135119Y-13332976D01*
X14116071Y-13323452D01*
X14325595Y-13332976D02*
X14306548Y-13323452D01*
X14297024Y-13304405D01*
X14297024Y-13132976D01*
X14487500Y-13332976D02*
X14487500Y-13228214D01*
X14477976Y-13209167D01*
X14458928Y-13199643D01*
X14420833Y-13199643D01*
X14401786Y-13209167D01*
X14487500Y-13323452D02*
X14468452Y-13332976D01*
X14420833Y-13332976D01*
X14401786Y-13323452D01*
X14392262Y-13304405D01*
X14392262Y-13285357D01*
X14401786Y-13266309D01*
X14420833Y-13256786D01*
X14468452Y-13256786D01*
X14487500Y-13247262D01*
X14554167Y-13199643D02*
X14630357Y-13199643D01*
X14582738Y-13132976D02*
X14582738Y-13304405D01*
X14592262Y-13323452D01*
X14611309Y-13332976D01*
X14630357Y-13332976D01*
X14773214Y-13323452D02*
X14754167Y-13332976D01*
X14716071Y-13332976D01*
X14697024Y-13323452D01*
X14687500Y-13304405D01*
X14687500Y-13228214D01*
X14697024Y-13209167D01*
X14716071Y-13199643D01*
X14754167Y-13199643D01*
X14773214Y-13209167D01*
X14782738Y-13228214D01*
X14782738Y-13247262D01*
X14687500Y-13266309D01*
X14954167Y-13332976D02*
X14954167Y-13132976D01*
X14954167Y-13323452D02*
X14935119Y-13332976D01*
X14897024Y-13332976D01*
X14877976Y-13323452D01*
X14868452Y-13313928D01*
X14858928Y-13294881D01*
X14858928Y-13237738D01*
X14868452Y-13218690D01*
X14877976Y-13209167D01*
X14897024Y-13199643D01*
X14935119Y-13199643D01*
X14954167Y-13209167D01*
X15030357Y-13409167D02*
X15039881Y-13399643D01*
X15058928Y-13371071D01*
X15068452Y-13352024D01*
X15077976Y-13323452D01*
X15087500Y-13275833D01*
X15087500Y-13237738D01*
X15077976Y-13190119D01*
X15068452Y-13161548D01*
X15058928Y-13142500D01*
X15039881Y-13113928D01*
X15030357Y-13104405D01*
M02*
