%TF.GenerationSoftware,KiCad,Pcbnew,(6.0.10)*%
%TF.CreationDate,2023-01-02T18:22:58+01:00*%
%TF.ProjectId,sniffer,736e6966-6665-4722-9e6b-696361645f70,rev?*%
%TF.SameCoordinates,Original*%
%TF.FileFunction,Legend,Top*%
%TF.FilePolarity,Positive*%
%FSLAX46Y46*%
G04 Gerber Fmt 4.6, Leading zero omitted, Abs format (unit mm)*
G04 Created by KiCad (PCBNEW (6.0.10)) date 2023-01-02 18:22:58*
%MOMM*%
%LPD*%
G01*
G04 APERTURE LIST*
G04 Aperture macros list*
%AMRoundRect*
0 Rectangle with rounded corners*
0 $1 Rounding radius*
0 $2 $3 $4 $5 $6 $7 $8 $9 X,Y pos of 4 corners*
0 Add a 4 corners polygon primitive as box body*
4,1,4,$2,$3,$4,$5,$6,$7,$8,$9,$2,$3,0*
0 Add four circle primitives for the rounded corners*
1,1,$1+$1,$2,$3*
1,1,$1+$1,$4,$5*
1,1,$1+$1,$6,$7*
1,1,$1+$1,$8,$9*
0 Add four rect primitives between the rounded corners*
20,1,$1+$1,$2,$3,$4,$5,0*
20,1,$1+$1,$4,$5,$6,$7,0*
20,1,$1+$1,$6,$7,$8,$9,0*
20,1,$1+$1,$8,$9,$2,$3,0*%
%AMFreePoly0*
4,1,37,0.012350,0.794884,0.074210,0.794507,0.088231,0.792412,0.224052,0.751793,0.236921,0.745846,0.355883,0.668739,0.366566,0.659420,0.459104,0.552023,0.466742,0.540080,0.525419,0.411028,0.529398,0.397421,0.549495,0.257088,0.550000,0.250000,0.550000,-0.250000,0.549996,-0.250610,0.549847,-0.262826,0.549158,-0.270511,0.525638,-0.410312,0.521328,-0.423818,0.459516,-0.551397,
0.451589,-0.563150,0.356454,-0.668254,0.345546,-0.677309,0.224736,-0.751486,0.211726,-0.757116,0.074953,-0.794405,0.060885,-0.796158,0.011462,-0.795252,0.000000,-0.800000,-0.500000,-0.800000,-0.535355,-0.785355,-0.550000,-0.750000,-0.550000,0.750000,-0.535355,0.785355,-0.500000,0.800000,0.000000,0.800000,0.012350,0.794884,0.012350,0.794884,$1*%
%AMFreePoly1*
4,1,37,0.535355,0.785355,0.550000,0.750000,0.550000,-0.750000,0.535355,-0.785355,0.500000,-0.800000,0.000000,-0.800000,-0.012524,-0.794812,-0.080857,-0.793560,-0.094851,-0.791293,-0.230166,-0.749018,-0.242962,-0.742915,-0.360972,-0.664360,-0.371540,-0.654911,-0.462760,-0.546392,-0.470252,-0.534356,-0.527347,-0.404597,-0.531159,-0.390943,-0.548742,-0.256483,-0.547388,-0.256306,-0.550000,-0.250000,
-0.550000,0.250000,-0.549522,0.251153,-0.549368,0.263802,-0.527557,0.403879,-0.523412,0.417435,-0.463164,0.545760,-0.455381,0.557609,-0.361537,0.663867,-0.350741,0.673055,-0.230846,0.748703,-0.217905,0.754492,-0.081598,0.793449,-0.067552,0.795373,-0.011991,0.795033,0.000000,0.800000,0.500000,0.800000,0.535355,0.785355,0.535355,0.785355,$1*%
G04 Aperture macros list end*
%ADD10C,0.250000*%
%ADD11C,0.600000*%
%ADD12C,0.150000*%
%ADD13C,0.120000*%
%ADD14C,0.100000*%
%ADD15C,1.800000*%
%ADD16RoundRect,0.205000X0.212500X0.155000X-0.212500X0.155000X-0.212500X-0.155000X0.212500X-0.155000X0*%
%ADD17RoundRect,0.287500X0.237500X-0.250000X0.237500X0.250000X-0.237500X0.250000X-0.237500X-0.250000X0*%
%ADD18RoundRect,0.287500X-0.237500X0.250000X-0.237500X-0.250000X0.237500X-0.250000X0.237500X0.250000X0*%
%ADD19RoundRect,0.287500X0.250000X0.237500X-0.250000X0.237500X-0.250000X-0.237500X0.250000X-0.237500X0*%
%ADD20RoundRect,0.050000X0.250000X0.175000X-0.250000X0.175000X-0.250000X-0.175000X0.250000X-0.175000X0*%
%ADD21RoundRect,0.287500X0.237500X-0.300000X0.237500X0.300000X-0.237500X0.300000X-0.237500X-0.300000X0*%
%ADD22RoundRect,0.287500X-0.300000X-0.237500X0.300000X-0.237500X0.300000X0.237500X-0.300000X0.237500X0*%
%ADD23O,1.100000X1.100000*%
%ADD24RoundRect,0.050000X-0.500000X-0.500000X0.500000X-0.500000X0.500000X0.500000X-0.500000X0.500000X0*%
%ADD25C,2.300000*%
%ADD26FreePoly0,90.000000*%
%ADD27FreePoly1,90.000000*%
%ADD28RoundRect,0.050000X-0.400000X0.450000X-0.400000X-0.450000X0.400000X-0.450000X0.400000X0.450000X0*%
%ADD29RoundRect,0.050000X0.450000X0.400000X-0.450000X0.400000X-0.450000X-0.400000X0.450000X-0.400000X0*%
G04 APERTURE END LIST*
D10*
X114978571Y-110785714D02*
X116478571Y-110285714D01*
X114978571Y-109785714D01*
X115121428Y-109357142D02*
X115050000Y-109285714D01*
X114978571Y-109142857D01*
X114978571Y-108785714D01*
X115050000Y-108642857D01*
X115121428Y-108571428D01*
X115264285Y-108500000D01*
X115407142Y-108500000D01*
X115621428Y-108571428D01*
X116478571Y-109428571D01*
X116478571Y-108500000D01*
X116335714Y-107857142D02*
X116407142Y-107785714D01*
X116478571Y-107857142D01*
X116407142Y-107928571D01*
X116335714Y-107857142D01*
X116478571Y-107857142D01*
X114978571Y-106857142D02*
X114978571Y-106714285D01*
X115050000Y-106571428D01*
X115121428Y-106500000D01*
X115264285Y-106428571D01*
X115550000Y-106357142D01*
X115907142Y-106357142D01*
X116192857Y-106428571D01*
X116335714Y-106500000D01*
X116407142Y-106571428D01*
X116478571Y-106714285D01*
X116478571Y-106857142D01*
X116407142Y-107000000D01*
X116335714Y-107071428D01*
X116192857Y-107142857D01*
X115907142Y-107214285D01*
X115550000Y-107214285D01*
X115264285Y-107142857D01*
X115121428Y-107071428D01*
X115050000Y-107000000D01*
X114978571Y-106857142D01*
X116335714Y-105714285D02*
X116407142Y-105642857D01*
X116478571Y-105714285D01*
X116407142Y-105785714D01*
X116335714Y-105714285D01*
X116478571Y-105714285D01*
X114978571Y-104714285D02*
X114978571Y-104571428D01*
X115050000Y-104428571D01*
X115121428Y-104357142D01*
X115264285Y-104285714D01*
X115550000Y-104214285D01*
X115907142Y-104214285D01*
X116192857Y-104285714D01*
X116335714Y-104357142D01*
X116407142Y-104428571D01*
X116478571Y-104571428D01*
X116478571Y-104714285D01*
X116407142Y-104857142D01*
X116335714Y-104928571D01*
X116192857Y-105000000D01*
X115907142Y-105071428D01*
X115550000Y-105071428D01*
X115264285Y-105000000D01*
X115121428Y-104928571D01*
X115050000Y-104857142D01*
X114978571Y-104714285D01*
X115121428Y-100214285D02*
X115050000Y-100142857D01*
X114978571Y-100000000D01*
X114978571Y-99642857D01*
X115050000Y-99500000D01*
X115121428Y-99428571D01*
X115264285Y-99357142D01*
X115407142Y-99357142D01*
X115621428Y-99428571D01*
X116478571Y-100285714D01*
X116478571Y-99357142D01*
X114978571Y-98428571D02*
X114978571Y-98285714D01*
X115050000Y-98142857D01*
X115121428Y-98071428D01*
X115264285Y-98000000D01*
X115550000Y-97928571D01*
X115907142Y-97928571D01*
X116192857Y-98000000D01*
X116335714Y-98071428D01*
X116407142Y-98142857D01*
X116478571Y-98285714D01*
X116478571Y-98428571D01*
X116407142Y-98571428D01*
X116335714Y-98642857D01*
X116192857Y-98714285D01*
X115907142Y-98785714D01*
X115550000Y-98785714D01*
X115264285Y-98714285D01*
X115121428Y-98642857D01*
X115050000Y-98571428D01*
X114978571Y-98428571D01*
X115121428Y-97357142D02*
X115050000Y-97285714D01*
X114978571Y-97142857D01*
X114978571Y-96785714D01*
X115050000Y-96642857D01*
X115121428Y-96571428D01*
X115264285Y-96500000D01*
X115407142Y-96500000D01*
X115621428Y-96571428D01*
X116478571Y-97428571D01*
X116478571Y-96500000D01*
X115121428Y-95928571D02*
X115050000Y-95857142D01*
X114978571Y-95714285D01*
X114978571Y-95357142D01*
X115050000Y-95214285D01*
X115121428Y-95142857D01*
X115264285Y-95071428D01*
X115407142Y-95071428D01*
X115621428Y-95142857D01*
X116478571Y-96000000D01*
X116478571Y-95071428D01*
X115907142Y-94428571D02*
X115907142Y-93285714D01*
X114978571Y-92285714D02*
X114978571Y-92142857D01*
X115050000Y-92000000D01*
X115121428Y-91928571D01*
X115264285Y-91857142D01*
X115550000Y-91785714D01*
X115907142Y-91785714D01*
X116192857Y-91857142D01*
X116335714Y-91928571D01*
X116407142Y-92000000D01*
X116478571Y-92142857D01*
X116478571Y-92285714D01*
X116407142Y-92428571D01*
X116335714Y-92500000D01*
X116192857Y-92571428D01*
X115907142Y-92642857D01*
X115550000Y-92642857D01*
X115264285Y-92571428D01*
X115121428Y-92500000D01*
X115050000Y-92428571D01*
X114978571Y-92285714D01*
X116478571Y-90357142D02*
X116478571Y-91214285D01*
X116478571Y-90785714D02*
X114978571Y-90785714D01*
X115192857Y-90928571D01*
X115335714Y-91071428D01*
X115407142Y-91214285D01*
D11*
X86966666Y-107249999D02*
X87133333Y-106749999D01*
X87133333Y-105916666D01*
X86966666Y-105583333D01*
X86800000Y-105416666D01*
X86466666Y-105249999D01*
X86133333Y-105249999D01*
X85800000Y-105416666D01*
X85633333Y-105583333D01*
X85466666Y-105916666D01*
X85300000Y-106583333D01*
X85133333Y-106916666D01*
X84966666Y-107083333D01*
X84633333Y-107249999D01*
X84300000Y-107249999D01*
X83966666Y-107083333D01*
X83800000Y-106916666D01*
X83633333Y-106583333D01*
X83633333Y-105749999D01*
X83800000Y-105249999D01*
X84800000Y-103749999D02*
X87133333Y-103749999D01*
X85133333Y-103749999D02*
X84966666Y-103583333D01*
X84800000Y-103249999D01*
X84800000Y-102749999D01*
X84966666Y-102416666D01*
X85300000Y-102249999D01*
X87133333Y-102249999D01*
X87133333Y-100583333D02*
X84800000Y-100583333D01*
X83633333Y-100583333D02*
X83800000Y-100749999D01*
X83966666Y-100583333D01*
X83800000Y-100416666D01*
X83633333Y-100583333D01*
X83966666Y-100583333D01*
X84800000Y-99416666D02*
X84800000Y-98083333D01*
X87133333Y-98916666D02*
X84133333Y-98916666D01*
X83800000Y-98749999D01*
X83633333Y-98416666D01*
X83633333Y-98083333D01*
X84800000Y-97416666D02*
X84800000Y-96083333D01*
X87133333Y-96916666D02*
X84133333Y-96916666D01*
X83800000Y-96749999D01*
X83633333Y-96416666D01*
X83633333Y-96083333D01*
X86966666Y-93583333D02*
X87133333Y-93916666D01*
X87133333Y-94583333D01*
X86966666Y-94916666D01*
X86633333Y-95083333D01*
X85300000Y-95083333D01*
X84966666Y-94916666D01*
X84800000Y-94583333D01*
X84800000Y-93916666D01*
X84966666Y-93583333D01*
X85300000Y-93416666D01*
X85633333Y-93416666D01*
X85966666Y-95083333D01*
X87133333Y-91916666D02*
X84800000Y-91916666D01*
X85466666Y-91916666D02*
X85133333Y-91749999D01*
X84966666Y-91583333D01*
X84800000Y-91249999D01*
X84800000Y-90916666D01*
D12*
%TO.C,U1*%
X86038095Y-83952380D02*
X86038095Y-84761904D01*
X86085714Y-84857142D01*
X86133333Y-84904761D01*
X86228571Y-84952380D01*
X86419047Y-84952380D01*
X86514285Y-84904761D01*
X86561904Y-84857142D01*
X86609523Y-84761904D01*
X86609523Y-83952380D01*
X87609523Y-84952380D02*
X87038095Y-84952380D01*
X87323809Y-84952380D02*
X87323809Y-83952380D01*
X87228571Y-84095238D01*
X87133333Y-84190476D01*
X87038095Y-84238095D01*
%TO.C,C1*%
X102666666Y-119785714D02*
X102628571Y-119823809D01*
X102514285Y-119861904D01*
X102438095Y-119861904D01*
X102323809Y-119823809D01*
X102247619Y-119747619D01*
X102209523Y-119671428D01*
X102171428Y-119519047D01*
X102171428Y-119404761D01*
X102209523Y-119252380D01*
X102247619Y-119176190D01*
X102323809Y-119100000D01*
X102438095Y-119061904D01*
X102514285Y-119061904D01*
X102628571Y-119100000D01*
X102666666Y-119138095D01*
X103428571Y-119861904D02*
X102971428Y-119861904D01*
X103200000Y-119861904D02*
X103200000Y-119061904D01*
X103123809Y-119176190D01*
X103047619Y-119252380D01*
X102971428Y-119290476D01*
%TO.C,C2*%
X102666666Y-121035714D02*
X102628571Y-121073809D01*
X102514285Y-121111904D01*
X102438095Y-121111904D01*
X102323809Y-121073809D01*
X102247619Y-120997619D01*
X102209523Y-120921428D01*
X102171428Y-120769047D01*
X102171428Y-120654761D01*
X102209523Y-120502380D01*
X102247619Y-120426190D01*
X102323809Y-120350000D01*
X102438095Y-120311904D01*
X102514285Y-120311904D01*
X102628571Y-120350000D01*
X102666666Y-120388095D01*
X102971428Y-120388095D02*
X103009523Y-120350000D01*
X103085714Y-120311904D01*
X103276190Y-120311904D01*
X103352380Y-120350000D01*
X103390476Y-120388095D01*
X103428571Y-120464285D01*
X103428571Y-120540476D01*
X103390476Y-120654761D01*
X102933333Y-121111904D01*
X103428571Y-121111904D01*
%TO.C,R2*%
X101502380Y-117916666D02*
X101026190Y-118250000D01*
X101502380Y-118488095D02*
X100502380Y-118488095D01*
X100502380Y-118107142D01*
X100550000Y-118011904D01*
X100597619Y-117964285D01*
X100692857Y-117916666D01*
X100835714Y-117916666D01*
X100930952Y-117964285D01*
X100978571Y-118011904D01*
X101026190Y-118107142D01*
X101026190Y-118488095D01*
X100597619Y-117535714D02*
X100550000Y-117488095D01*
X100502380Y-117392857D01*
X100502380Y-117154761D01*
X100550000Y-117059523D01*
X100597619Y-117011904D01*
X100692857Y-116964285D01*
X100788095Y-116964285D01*
X100930952Y-117011904D01*
X101502380Y-117583333D01*
X101502380Y-116964285D01*
%TO.C,R3*%
X96752380Y-117916666D02*
X96276190Y-118250000D01*
X96752380Y-118488095D02*
X95752380Y-118488095D01*
X95752380Y-118107142D01*
X95800000Y-118011904D01*
X95847619Y-117964285D01*
X95942857Y-117916666D01*
X96085714Y-117916666D01*
X96180952Y-117964285D01*
X96228571Y-118011904D01*
X96276190Y-118107142D01*
X96276190Y-118488095D01*
X95752380Y-117583333D02*
X95752380Y-116964285D01*
X96133333Y-117297619D01*
X96133333Y-117154761D01*
X96180952Y-117059523D01*
X96228571Y-117011904D01*
X96323809Y-116964285D01*
X96561904Y-116964285D01*
X96657142Y-117011904D01*
X96704761Y-117059523D01*
X96752380Y-117154761D01*
X96752380Y-117440476D01*
X96704761Y-117535714D01*
X96657142Y-117583333D01*
%TO.C,R4*%
X95002380Y-117916666D02*
X94526190Y-118250000D01*
X95002380Y-118488095D02*
X94002380Y-118488095D01*
X94002380Y-118107142D01*
X94050000Y-118011904D01*
X94097619Y-117964285D01*
X94192857Y-117916666D01*
X94335714Y-117916666D01*
X94430952Y-117964285D01*
X94478571Y-118011904D01*
X94526190Y-118107142D01*
X94526190Y-118488095D01*
X94335714Y-117059523D02*
X95002380Y-117059523D01*
X93954761Y-117297619D02*
X94669047Y-117535714D01*
X94669047Y-116916666D01*
%TO.C,R5*%
X117752380Y-115916666D02*
X117276190Y-116250000D01*
X117752380Y-116488095D02*
X116752380Y-116488095D01*
X116752380Y-116107142D01*
X116800000Y-116011904D01*
X116847619Y-115964285D01*
X116942857Y-115916666D01*
X117085714Y-115916666D01*
X117180952Y-115964285D01*
X117228571Y-116011904D01*
X117276190Y-116107142D01*
X117276190Y-116488095D01*
X116752380Y-115011904D02*
X116752380Y-115488095D01*
X117228571Y-115535714D01*
X117180952Y-115488095D01*
X117133333Y-115392857D01*
X117133333Y-115154761D01*
X117180952Y-115059523D01*
X117228571Y-115011904D01*
X117323809Y-114964285D01*
X117561904Y-114964285D01*
X117657142Y-115011904D01*
X117704761Y-115059523D01*
X117752380Y-115154761D01*
X117752380Y-115392857D01*
X117704761Y-115488095D01*
X117657142Y-115535714D01*
%TO.C,R1*%
X106883333Y-110952380D02*
X106550000Y-110476190D01*
X106311904Y-110952380D02*
X106311904Y-109952380D01*
X106692857Y-109952380D01*
X106788095Y-110000000D01*
X106835714Y-110047619D01*
X106883333Y-110142857D01*
X106883333Y-110285714D01*
X106835714Y-110380952D01*
X106788095Y-110428571D01*
X106692857Y-110476190D01*
X106311904Y-110476190D01*
X107835714Y-110952380D02*
X107264285Y-110952380D01*
X107550000Y-110952380D02*
X107550000Y-109952380D01*
X107454761Y-110095238D01*
X107359523Y-110190476D01*
X107264285Y-110238095D01*
%TO.C,U2*%
X98252380Y-122511904D02*
X99061904Y-122511904D01*
X99157142Y-122464285D01*
X99204761Y-122416666D01*
X99252380Y-122321428D01*
X99252380Y-122130952D01*
X99204761Y-122035714D01*
X99157142Y-121988095D01*
X99061904Y-121940476D01*
X98252380Y-121940476D01*
X98347619Y-121511904D02*
X98300000Y-121464285D01*
X98252380Y-121369047D01*
X98252380Y-121130952D01*
X98300000Y-121035714D01*
X98347619Y-120988095D01*
X98442857Y-120940476D01*
X98538095Y-120940476D01*
X98680952Y-120988095D01*
X99252380Y-121559523D01*
X99252380Y-120940476D01*
%TO.C,C5*%
X115657142Y-112666666D02*
X115704761Y-112714285D01*
X115752380Y-112857142D01*
X115752380Y-112952380D01*
X115704761Y-113095238D01*
X115609523Y-113190476D01*
X115514285Y-113238095D01*
X115323809Y-113285714D01*
X115180952Y-113285714D01*
X114990476Y-113238095D01*
X114895238Y-113190476D01*
X114800000Y-113095238D01*
X114752380Y-112952380D01*
X114752380Y-112857142D01*
X114800000Y-112714285D01*
X114847619Y-112666666D01*
X114752380Y-111761904D02*
X114752380Y-112238095D01*
X115228571Y-112285714D01*
X115180952Y-112238095D01*
X115133333Y-112142857D01*
X115133333Y-111904761D01*
X115180952Y-111809523D01*
X115228571Y-111761904D01*
X115323809Y-111714285D01*
X115561904Y-111714285D01*
X115657142Y-111761904D01*
X115704761Y-111809523D01*
X115752380Y-111904761D01*
X115752380Y-112142857D01*
X115704761Y-112238095D01*
X115657142Y-112285714D01*
%TO.C,C3*%
X109907142Y-117916666D02*
X109954761Y-117964285D01*
X110002380Y-118107142D01*
X110002380Y-118202380D01*
X109954761Y-118345238D01*
X109859523Y-118440476D01*
X109764285Y-118488095D01*
X109573809Y-118535714D01*
X109430952Y-118535714D01*
X109240476Y-118488095D01*
X109145238Y-118440476D01*
X109050000Y-118345238D01*
X109002380Y-118202380D01*
X109002380Y-118107142D01*
X109050000Y-117964285D01*
X109097619Y-117916666D01*
X109002380Y-117583333D02*
X109002380Y-116964285D01*
X109383333Y-117297619D01*
X109383333Y-117154761D01*
X109430952Y-117059523D01*
X109478571Y-117011904D01*
X109573809Y-116964285D01*
X109811904Y-116964285D01*
X109907142Y-117011904D01*
X109954761Y-117059523D01*
X110002380Y-117154761D01*
X110002380Y-117440476D01*
X109954761Y-117535714D01*
X109907142Y-117583333D01*
%TO.C,C4*%
X104633333Y-117607142D02*
X104585714Y-117654761D01*
X104442857Y-117702380D01*
X104347619Y-117702380D01*
X104204761Y-117654761D01*
X104109523Y-117559523D01*
X104061904Y-117464285D01*
X104014285Y-117273809D01*
X104014285Y-117130952D01*
X104061904Y-116940476D01*
X104109523Y-116845238D01*
X104204761Y-116750000D01*
X104347619Y-116702380D01*
X104442857Y-116702380D01*
X104585714Y-116750000D01*
X104633333Y-116797619D01*
X105490476Y-117035714D02*
X105490476Y-117702380D01*
X105252380Y-116654761D02*
X105014285Y-117369047D01*
X105633333Y-117369047D01*
%TO.C,JP1*%
X98502380Y-118583333D02*
X99216666Y-118583333D01*
X99359523Y-118630952D01*
X99454761Y-118726190D01*
X99502380Y-118869047D01*
X99502380Y-118964285D01*
X99502380Y-118107142D02*
X98502380Y-118107142D01*
X98502380Y-117726190D01*
X98550000Y-117630952D01*
X98597619Y-117583333D01*
X98692857Y-117535714D01*
X98835714Y-117535714D01*
X98930952Y-117583333D01*
X98978571Y-117630952D01*
X99026190Y-117726190D01*
X99026190Y-118107142D01*
X99502380Y-116583333D02*
X99502380Y-117154761D01*
X99502380Y-116869047D02*
X98502380Y-116869047D01*
X98645238Y-116964285D01*
X98740476Y-117059523D01*
X98788095Y-117154761D01*
%TO.C,Q1*%
X106954761Y-113297619D02*
X106859523Y-113250000D01*
X106764285Y-113154761D01*
X106621428Y-113011904D01*
X106526190Y-112964285D01*
X106430952Y-112964285D01*
X106478571Y-113202380D02*
X106383333Y-113154761D01*
X106288095Y-113059523D01*
X106240476Y-112869047D01*
X106240476Y-112535714D01*
X106288095Y-112345238D01*
X106383333Y-112250000D01*
X106478571Y-112202380D01*
X106669047Y-112202380D01*
X106764285Y-112250000D01*
X106859523Y-112345238D01*
X106907142Y-112535714D01*
X106907142Y-112869047D01*
X106859523Y-113059523D01*
X106764285Y-113154761D01*
X106669047Y-113202380D01*
X106478571Y-113202380D01*
X107859523Y-113202380D02*
X107288095Y-113202380D01*
X107573809Y-113202380D02*
X107573809Y-112202380D01*
X107478571Y-112345238D01*
X107383333Y-112440476D01*
X107288095Y-112488095D01*
%TO.C,Q2*%
X112597619Y-119345238D02*
X112550000Y-119440476D01*
X112454761Y-119535714D01*
X112311904Y-119678571D01*
X112264285Y-119773809D01*
X112264285Y-119869047D01*
X112502380Y-119821428D02*
X112454761Y-119916666D01*
X112359523Y-120011904D01*
X112169047Y-120059523D01*
X111835714Y-120059523D01*
X111645238Y-120011904D01*
X111550000Y-119916666D01*
X111502380Y-119821428D01*
X111502380Y-119630952D01*
X111550000Y-119535714D01*
X111645238Y-119440476D01*
X111835714Y-119392857D01*
X112169047Y-119392857D01*
X112359523Y-119440476D01*
X112454761Y-119535714D01*
X112502380Y-119630952D01*
X112502380Y-119821428D01*
X111597619Y-119011904D02*
X111550000Y-118964285D01*
X111502380Y-118869047D01*
X111502380Y-118630952D01*
X111550000Y-118535714D01*
X111597619Y-118488095D01*
X111692857Y-118440476D01*
X111788095Y-118440476D01*
X111930952Y-118488095D01*
X112502380Y-119059523D01*
X112502380Y-118440476D01*
%TO.C,U1*%
X88525000Y-71500000D02*
G75*
G03*
X88225000Y-71800000I0J-300000D01*
G01*
X113375000Y-71800000D02*
G75*
G03*
X113075000Y-71500000I-300000J0D01*
G01*
X111800000Y-122894000D02*
X113375000Y-121500000D01*
X88225000Y-121500000D02*
X89800000Y-122894000D01*
X88225000Y-77500000D02*
X113375000Y-77500000D01*
X88525000Y-71500000D02*
X113075000Y-71500000D01*
X113375000Y-121500000D02*
X113375000Y-71800000D01*
X88225000Y-121500000D02*
X88225000Y-71800000D01*
X89800000Y-122894000D02*
X111800000Y-122894000D01*
D13*
%TO.C,C1*%
X100788835Y-121037000D02*
X100557165Y-121037000D01*
X100788835Y-120317000D02*
X100557165Y-120317000D01*
%TO.C,C2*%
X100788835Y-121333000D02*
X100557165Y-121333000D01*
X100788835Y-122053000D02*
X100557165Y-122053000D01*
%TO.C,R2*%
X101572500Y-115254724D02*
X101572500Y-114745276D01*
X100527500Y-115254724D02*
X100527500Y-114745276D01*
%TO.C,R3*%
X96822500Y-115254724D02*
X96822500Y-114745276D01*
X95777500Y-115254724D02*
X95777500Y-114745276D01*
%TO.C,R4*%
X95072500Y-115254724D02*
X95072500Y-114745276D01*
X94027500Y-115254724D02*
X94027500Y-114745276D01*
%TO.C,R5*%
X117959500Y-118263276D02*
X117959500Y-118772724D01*
X116914500Y-118263276D02*
X116914500Y-118772724D01*
%TO.C,R1*%
X104233224Y-110883500D02*
X103723776Y-110883500D01*
X104233224Y-109838500D02*
X103723776Y-109838500D01*
D14*
%TO.C,U2*%
X99323000Y-122900000D02*
X99473000Y-122900000D01*
X102023000Y-122900000D02*
X101873000Y-122900000D01*
X99473000Y-125600000D02*
X99223000Y-125600000D01*
X102023000Y-122900000D02*
X102023000Y-123050000D01*
X102023000Y-125600000D02*
X101873000Y-125600000D01*
X99323000Y-123050000D02*
X99323000Y-122900000D01*
X102033000Y-125600000D02*
X102033000Y-125450000D01*
D13*
%TO.C,C5*%
X114618000Y-115206267D02*
X114618000Y-114913733D01*
X115638000Y-115206267D02*
X115638000Y-114913733D01*
%TO.C,C3*%
X110050000Y-115206267D02*
X110050000Y-114913733D01*
X109030000Y-115206267D02*
X109030000Y-114913733D01*
%TO.C,C4*%
X104694733Y-116205000D02*
X104987267Y-116205000D01*
X104694733Y-115185000D02*
X104987267Y-115185000D01*
%TO.C,JP1*%
X98750000Y-113600000D02*
G75*
G03*
X98050000Y-114300000I0J-700000D01*
G01*
X100050000Y-114300000D02*
G75*
G03*
X99350000Y-113600000I-700000J0D01*
G01*
X99350000Y-116400000D02*
G75*
G03*
X100050000Y-115700000I0J700000D01*
G01*
X98050000Y-115700000D02*
G75*
G03*
X98750000Y-116400000I700000J0D01*
G01*
X98050000Y-115700000D02*
X98050000Y-114300000D01*
X98750000Y-113600000D02*
X99350000Y-113600000D01*
X100050000Y-114300000D02*
X100050000Y-115700000D01*
X99350000Y-116400000D02*
X98750000Y-116400000D01*
%TO.C,Q1*%
X102398500Y-113788000D02*
X103328500Y-113788000D01*
X105558500Y-113788000D02*
X104628500Y-113788000D01*
X105558500Y-113788000D02*
X105558500Y-111628000D01*
X102398500Y-113788000D02*
X102398500Y-112328000D01*
%TO.C,Q2*%
X114137000Y-116938000D02*
X115597000Y-116938000D01*
X114137000Y-120098000D02*
X116297000Y-120098000D01*
X114137000Y-120098000D02*
X114137000Y-119168000D01*
X114137000Y-116938000D02*
X114137000Y-117868000D01*
%TD*%
%LPC*%
D15*
%TO.C,U1*%
X112230000Y-78800000D03*
X112230000Y-81340000D03*
X112230000Y-83880000D03*
X112230000Y-86420000D03*
X112230000Y-88960000D03*
X112230000Y-91500000D03*
X112230000Y-94040000D03*
X112230000Y-96580000D03*
X112230000Y-99120000D03*
X112230000Y-101660000D03*
X112230000Y-104200000D03*
X112230000Y-106740000D03*
X89370000Y-78800000D03*
X89370000Y-81340000D03*
X89370000Y-83880000D03*
X89370000Y-86420000D03*
X89370000Y-88960000D03*
X89370000Y-91500000D03*
X89370000Y-94040000D03*
X89370000Y-96580000D03*
X89370000Y-99120000D03*
X89370000Y-101660000D03*
X89370000Y-104200000D03*
X89370000Y-106740000D03*
%TD*%
D16*
%TO.C,C1*%
X101240500Y-120677000D03*
X100105500Y-120677000D03*
%TD*%
%TO.C,C2*%
X100105500Y-121693000D03*
X101240500Y-121693000D03*
%TD*%
D17*
%TO.C,R2*%
X101050000Y-114087500D03*
X101050000Y-115912500D03*
%TD*%
%TO.C,R3*%
X96300000Y-114087500D03*
X96300000Y-115912500D03*
%TD*%
%TO.C,R4*%
X94550000Y-114087500D03*
X94550000Y-115912500D03*
%TD*%
D18*
%TO.C,R5*%
X117437000Y-117605500D03*
X117437000Y-119430500D03*
%TD*%
D19*
%TO.C,R1*%
X104891000Y-110361000D03*
X103066000Y-110361000D03*
%TD*%
D20*
%TO.C,U2*%
X99648000Y-125225000D03*
X99648000Y-124575000D03*
X99648000Y-123925000D03*
X99648000Y-123275000D03*
X101698000Y-123275000D03*
X101698000Y-123925000D03*
X101698000Y-124575000D03*
X101698000Y-125225000D03*
%TD*%
D21*
%TO.C,C5*%
X115128000Y-115922500D03*
X115128000Y-114197500D03*
%TD*%
%TO.C,C3*%
X109540000Y-114197500D03*
X109540000Y-115922500D03*
%TD*%
D22*
%TO.C,C4*%
X105703500Y-115695000D03*
X103978500Y-115695000D03*
%TD*%
D23*
%TO.C,J1*%
X111700000Y-114270000D03*
X111700000Y-115540000D03*
X111700000Y-111730000D03*
X112970000Y-110460000D03*
X111700000Y-110460000D03*
X112970000Y-114270000D03*
X111700000Y-113000000D03*
X112970000Y-111730000D03*
D24*
X112970000Y-115540000D03*
D23*
X112970000Y-113000000D03*
D25*
X85800000Y-118000000D03*
X115800000Y-85000000D03*
%TD*%
%TO.C,H4*%
X116050000Y-123250000D03*
%TD*%
%TO.C,H2*%
X116050000Y-79750000D03*
%TD*%
%TO.C,H3*%
X85550000Y-123250000D03*
%TD*%
%TO.C,H1*%
X85550000Y-79750000D03*
%TD*%
D26*
%TO.C,JP1*%
X99050000Y-114350000D03*
D27*
X99050000Y-115650000D03*
%TD*%
D28*
%TO.C,Q1*%
X103978500Y-114028000D03*
X103028500Y-112028000D03*
X104928500Y-112028000D03*
%TD*%
D29*
%TO.C,Q2*%
X115897000Y-119468000D03*
X115897000Y-117568000D03*
X113897000Y-118518000D03*
%TD*%
M02*
